%TF.GenerationSoftware,KiCad,Pcbnew,(6.0.9)*%
%TF.CreationDate,2022-11-11T19:07:55-07:00*%
%TF.ProjectId,dumbpad,64756d62-7061-4642-9e6b-696361645f70,rev?*%
%TF.SameCoordinates,Original*%
%TF.FileFunction,Legend,Top*%
%TF.FilePolarity,Positive*%
%FSLAX46Y46*%
G04 Gerber Fmt 4.6, Leading zero omitted, Abs format (unit mm)*
G04 Created by KiCad (PCBNEW (6.0.9)) date 2022-11-11 19:07:55*
%MOMM*%
%LPD*%
G01*
G04 APERTURE LIST*
%ADD10C,0.152400*%
%ADD11C,0.112500*%
%ADD12C,0.262500*%
%ADD13C,0.150000*%
%ADD14C,0.120000*%
%ADD15C,0.203200*%
%ADD16C,0.381000*%
%ADD17R,1.700000X1.700000*%
%ADD18O,1.700000X1.700000*%
%ADD19C,2.006600*%
%ADD20C,2.100000*%
%ADD21R,2.000000X2.000000*%
%ADD22C,2.000000*%
%ADD23R,2.000000X3.200000*%
%ADD24C,4.100000*%
%ADD25C,1.700000*%
%ADD26C,3.600000*%
%ADD27C,1.477000*%
G04 APERTURE END LIST*
D10*
X119051100Y-68253600D02*
X119051100Y-101753600D01*
X106051100Y-66753600D02*
X114051100Y-66753600D01*
X106051100Y-68253600D02*
X106051100Y-66753600D01*
X114051100Y-66753600D02*
X114051100Y-68253600D01*
X114051100Y-68253600D02*
X119051100Y-68253600D01*
X101051100Y-68253600D02*
X106051100Y-68253600D01*
X101051100Y-101753600D02*
X101051100Y-68253600D01*
X119051100Y-101753600D02*
X101051100Y-101753600D01*
X106051100Y-68253600D02*
X114051100Y-68253600D01*
D11*
X104276010Y-87571992D02*
X104276010Y-86934492D01*
X104427796Y-86934492D01*
X104518867Y-86964850D01*
X104579582Y-87025564D01*
X104609939Y-87086278D01*
X104640296Y-87207707D01*
X104640296Y-87298778D01*
X104609939Y-87420207D01*
X104579582Y-87480921D01*
X104518867Y-87541635D01*
X104427796Y-87571992D01*
X104276010Y-87571992D01*
X105186725Y-87146992D02*
X105186725Y-87571992D01*
X105034939Y-86904135D02*
X104883153Y-87359492D01*
X105277796Y-87359492D01*
X115188689Y-89778064D02*
X114976189Y-89778064D01*
X114976189Y-90111992D02*
X114976189Y-89474492D01*
X115279760Y-89474492D01*
X115461903Y-89474492D02*
X115886903Y-89474492D01*
X115613689Y-90111992D01*
X104488510Y-99938064D02*
X104579582Y-99968421D01*
X104609939Y-99998778D01*
X104640296Y-100059492D01*
X104640296Y-100150564D01*
X104609939Y-100211278D01*
X104579582Y-100241635D01*
X104518867Y-100271992D01*
X104276010Y-100271992D01*
X104276010Y-99634492D01*
X104488510Y-99634492D01*
X104549225Y-99664850D01*
X104579582Y-99695207D01*
X104609939Y-99755921D01*
X104609939Y-99816635D01*
X104579582Y-99877350D01*
X104549225Y-99907707D01*
X104488510Y-99938064D01*
X104276010Y-99938064D01*
X105217082Y-99634492D02*
X104913510Y-99634492D01*
X104883153Y-99938064D01*
X104913510Y-99907707D01*
X104974225Y-99877350D01*
X105126010Y-99877350D01*
X105186725Y-99907707D01*
X105217082Y-99938064D01*
X105247439Y-99998778D01*
X105247439Y-100150564D01*
X105217082Y-100211278D01*
X105186725Y-100241635D01*
X105126010Y-100271992D01*
X104974225Y-100271992D01*
X104913510Y-100241635D01*
X104883153Y-100211278D01*
X104276010Y-92651992D02*
X104276010Y-92014492D01*
X104427796Y-92014492D01*
X104518867Y-92044850D01*
X104579582Y-92105564D01*
X104609939Y-92166278D01*
X104640296Y-92287707D01*
X104640296Y-92378778D01*
X104609939Y-92500207D01*
X104579582Y-92560921D01*
X104518867Y-92621635D01*
X104427796Y-92651992D01*
X104276010Y-92651992D01*
X104852796Y-92014492D02*
X105277796Y-92014492D01*
X105004582Y-92651992D01*
X115097617Y-92318064D02*
X115188689Y-92348421D01*
X115219046Y-92378778D01*
X115249403Y-92439492D01*
X115249403Y-92530564D01*
X115219046Y-92591278D01*
X115188689Y-92621635D01*
X115127975Y-92651992D01*
X114885117Y-92651992D01*
X114885117Y-92014492D01*
X115097617Y-92014492D01*
X115158332Y-92044850D01*
X115188689Y-92075207D01*
X115219046Y-92135921D01*
X115219046Y-92196635D01*
X115188689Y-92257350D01*
X115158332Y-92287707D01*
X115097617Y-92318064D01*
X114885117Y-92318064D01*
X115856546Y-92651992D02*
X115492260Y-92651992D01*
X115674403Y-92651992D02*
X115674403Y-92014492D01*
X115613689Y-92105564D01*
X115552975Y-92166278D01*
X115492260Y-92196635D01*
X115097617Y-97398064D02*
X115188689Y-97428421D01*
X115219046Y-97458778D01*
X115249403Y-97519492D01*
X115249403Y-97610564D01*
X115219046Y-97671278D01*
X115188689Y-97701635D01*
X115127975Y-97731992D01*
X114885117Y-97731992D01*
X114885117Y-97094492D01*
X115097617Y-97094492D01*
X115158332Y-97124850D01*
X115188689Y-97155207D01*
X115219046Y-97215921D01*
X115219046Y-97276635D01*
X115188689Y-97337350D01*
X115158332Y-97367707D01*
X115097617Y-97398064D01*
X114885117Y-97398064D01*
X115492260Y-97155207D02*
X115522617Y-97124850D01*
X115583332Y-97094492D01*
X115735117Y-97094492D01*
X115795832Y-97124850D01*
X115826189Y-97155207D01*
X115856546Y-97215921D01*
X115856546Y-97276635D01*
X115826189Y-97367707D01*
X115461903Y-97731992D01*
X115856546Y-97731992D01*
X104640296Y-90051278D02*
X104609939Y-90081635D01*
X104518867Y-90111992D01*
X104458153Y-90111992D01*
X104367082Y-90081635D01*
X104306367Y-90020921D01*
X104276010Y-89960207D01*
X104245653Y-89838778D01*
X104245653Y-89747707D01*
X104276010Y-89626278D01*
X104306367Y-89565564D01*
X104367082Y-89504850D01*
X104458153Y-89474492D01*
X104518867Y-89474492D01*
X104609939Y-89504850D01*
X104640296Y-89535207D01*
X105186725Y-89474492D02*
X105065296Y-89474492D01*
X105004582Y-89504850D01*
X104974225Y-89535207D01*
X104913510Y-89626278D01*
X104883153Y-89747707D01*
X104883153Y-89990564D01*
X104913510Y-90051278D01*
X104943867Y-90081635D01*
X105004582Y-90111992D01*
X105126010Y-90111992D01*
X105186725Y-90081635D01*
X105217082Y-90051278D01*
X105247439Y-89990564D01*
X105247439Y-89838778D01*
X105217082Y-89778064D01*
X105186725Y-89747707D01*
X105126010Y-89717350D01*
X105004582Y-89717350D01*
X104943867Y-89747707D01*
X104913510Y-89778064D01*
X104883153Y-89838778D01*
X104488510Y-97398064D02*
X104579582Y-97428421D01*
X104609939Y-97458778D01*
X104640296Y-97519492D01*
X104640296Y-97610564D01*
X104609939Y-97671278D01*
X104579582Y-97701635D01*
X104518867Y-97731992D01*
X104276010Y-97731992D01*
X104276010Y-97094492D01*
X104488510Y-97094492D01*
X104549225Y-97124850D01*
X104579582Y-97155207D01*
X104609939Y-97215921D01*
X104609939Y-97276635D01*
X104579582Y-97337350D01*
X104549225Y-97367707D01*
X104488510Y-97398064D01*
X104276010Y-97398064D01*
X105186725Y-97306992D02*
X105186725Y-97731992D01*
X105034939Y-97064135D02*
X104883153Y-97519492D01*
X105277796Y-97519492D01*
X104276010Y-72331992D02*
X104276010Y-71694492D01*
X104427796Y-71694492D01*
X104518867Y-71724850D01*
X104579582Y-71785564D01*
X104609939Y-71846278D01*
X104640296Y-71967707D01*
X104640296Y-72058778D01*
X104609939Y-72180207D01*
X104579582Y-72240921D01*
X104518867Y-72301635D01*
X104427796Y-72331992D01*
X104276010Y-72331992D01*
X104852796Y-71694492D02*
X105247439Y-71694492D01*
X105034939Y-71937350D01*
X105126010Y-71937350D01*
X105186725Y-71967707D01*
X105217082Y-71998064D01*
X105247439Y-72058778D01*
X105247439Y-72210564D01*
X105217082Y-72271278D01*
X105186725Y-72301635D01*
X105126010Y-72331992D01*
X104943867Y-72331992D01*
X104883153Y-72301635D01*
X104852796Y-72271278D01*
X114217260Y-79314492D02*
X114429760Y-79951992D01*
X114642260Y-79314492D01*
X115219046Y-79891278D02*
X115188689Y-79921635D01*
X115097617Y-79951992D01*
X115036903Y-79951992D01*
X114945832Y-79921635D01*
X114885117Y-79860921D01*
X114854760Y-79800207D01*
X114824403Y-79678778D01*
X114824403Y-79587707D01*
X114854760Y-79466278D01*
X114885117Y-79405564D01*
X114945832Y-79344850D01*
X115036903Y-79314492D01*
X115097617Y-79314492D01*
X115188689Y-79344850D01*
X115219046Y-79375207D01*
X115856546Y-79891278D02*
X115826189Y-79921635D01*
X115735117Y-79951992D01*
X115674403Y-79951992D01*
X115583332Y-79921635D01*
X115522617Y-79860921D01*
X115492260Y-79800207D01*
X115461903Y-79678778D01*
X115461903Y-79587707D01*
X115492260Y-79466278D01*
X115522617Y-79405564D01*
X115583332Y-79344850D01*
X115674403Y-79314492D01*
X115735117Y-79314492D01*
X115826189Y-79344850D01*
X115856546Y-79375207D01*
X104276010Y-94858064D02*
X104488510Y-94858064D01*
X104579582Y-95191992D02*
X104276010Y-95191992D01*
X104276010Y-94554492D01*
X104579582Y-94554492D01*
X105126010Y-94554492D02*
X105004582Y-94554492D01*
X104943867Y-94584850D01*
X104913510Y-94615207D01*
X104852796Y-94706278D01*
X104822439Y-94827707D01*
X104822439Y-95070564D01*
X104852796Y-95131278D01*
X104883153Y-95161635D01*
X104943867Y-95191992D01*
X105065296Y-95191992D01*
X105126010Y-95161635D01*
X105156367Y-95131278D01*
X105186725Y-95070564D01*
X105186725Y-94918778D01*
X105156367Y-94858064D01*
X105126010Y-94827707D01*
X105065296Y-94797350D01*
X104943867Y-94797350D01*
X104883153Y-94827707D01*
X104852796Y-94858064D01*
X104822439Y-94918778D01*
D12*
X104915683Y-69191100D02*
X104915683Y-70678600D01*
X104915683Y-69261933D02*
X105057350Y-69191100D01*
X105340683Y-69191100D01*
X105482350Y-69261933D01*
X105553183Y-69332766D01*
X105624016Y-69474433D01*
X105624016Y-69899433D01*
X105553183Y-70041100D01*
X105482350Y-70111933D01*
X105340683Y-70182766D01*
X105057350Y-70182766D01*
X104915683Y-70111933D01*
X106261516Y-70182766D02*
X106261516Y-69191100D01*
X106261516Y-69474433D02*
X106332350Y-69332766D01*
X106403183Y-69261933D01*
X106544850Y-69191100D01*
X106686516Y-69191100D01*
X107394850Y-70182766D02*
X107253183Y-70111933D01*
X107182350Y-70041100D01*
X107111516Y-69899433D01*
X107111516Y-69474433D01*
X107182350Y-69332766D01*
X107253183Y-69261933D01*
X107394850Y-69191100D01*
X107607350Y-69191100D01*
X107749016Y-69261933D01*
X107819850Y-69332766D01*
X107890683Y-69474433D01*
X107890683Y-69899433D01*
X107819850Y-70041100D01*
X107749016Y-70111933D01*
X107607350Y-70182766D01*
X107394850Y-70182766D01*
X109661516Y-70182766D02*
X109661516Y-69191100D01*
X109661516Y-69332766D02*
X109732350Y-69261933D01*
X109874016Y-69191100D01*
X110086516Y-69191100D01*
X110228183Y-69261933D01*
X110299016Y-69403600D01*
X110299016Y-70182766D01*
X110299016Y-69403600D02*
X110369850Y-69261933D01*
X110511516Y-69191100D01*
X110724016Y-69191100D01*
X110865683Y-69261933D01*
X110936516Y-69403600D01*
X110936516Y-70182766D01*
X111644850Y-70182766D02*
X111644850Y-69191100D01*
X111644850Y-68695266D02*
X111574016Y-68766100D01*
X111644850Y-68836933D01*
X111715683Y-68766100D01*
X111644850Y-68695266D01*
X111644850Y-68836933D01*
X112990683Y-70111933D02*
X112849016Y-70182766D01*
X112565683Y-70182766D01*
X112424016Y-70111933D01*
X112353183Y-70041100D01*
X112282350Y-69899433D01*
X112282350Y-69474433D01*
X112353183Y-69332766D01*
X112424016Y-69261933D01*
X112565683Y-69191100D01*
X112849016Y-69191100D01*
X112990683Y-69261933D01*
X113628183Y-70182766D02*
X113628183Y-69191100D01*
X113628183Y-69474433D02*
X113699016Y-69332766D01*
X113769850Y-69261933D01*
X113911516Y-69191100D01*
X114053183Y-69191100D01*
X114761516Y-70182766D02*
X114619850Y-70111933D01*
X114549016Y-70041100D01*
X114478183Y-69899433D01*
X114478183Y-69474433D01*
X114549016Y-69332766D01*
X114619850Y-69261933D01*
X114761516Y-69191100D01*
X114974016Y-69191100D01*
X115115683Y-69261933D01*
X115186516Y-69332766D01*
X115257350Y-69474433D01*
X115257350Y-69899433D01*
X115186516Y-70041100D01*
X115115683Y-70111933D01*
X114974016Y-70182766D01*
X114761516Y-70182766D01*
D11*
X114581546Y-72331992D02*
X114369046Y-72028421D01*
X114217260Y-72331992D02*
X114217260Y-71694492D01*
X114460117Y-71694492D01*
X114520832Y-71724850D01*
X114551189Y-71755207D01*
X114581546Y-71815921D01*
X114581546Y-71906992D01*
X114551189Y-71967707D01*
X114520832Y-71998064D01*
X114460117Y-72028421D01*
X114217260Y-72028421D01*
X114824403Y-72149850D02*
X115127975Y-72149850D01*
X114763689Y-72331992D02*
X114976189Y-71694492D01*
X115188689Y-72331992D01*
X115340475Y-71694492D02*
X115492260Y-72331992D01*
X115613689Y-71876635D01*
X115735117Y-72331992D01*
X115886903Y-71694492D01*
D12*
X103413391Y-143307766D02*
X103413391Y-141820266D01*
X103413391Y-143236933D02*
X103271725Y-143307766D01*
X102988391Y-143307766D01*
X102846725Y-143236933D01*
X102775891Y-143166100D01*
X102705058Y-143024433D01*
X102705058Y-142599433D01*
X102775891Y-142457766D01*
X102846725Y-142386933D01*
X102988391Y-142316100D01*
X103271725Y-142316100D01*
X103413391Y-142386933D01*
X104759225Y-142316100D02*
X104759225Y-143307766D01*
X104121725Y-142316100D02*
X104121725Y-143095266D01*
X104192558Y-143236933D01*
X104334225Y-143307766D01*
X104546725Y-143307766D01*
X104688391Y-143236933D01*
X104759225Y-143166100D01*
X105467558Y-143307766D02*
X105467558Y-142316100D01*
X105467558Y-142457766D02*
X105538391Y-142386933D01*
X105680058Y-142316100D01*
X105892558Y-142316100D01*
X106034225Y-142386933D01*
X106105058Y-142528600D01*
X106105058Y-143307766D01*
X106105058Y-142528600D02*
X106175891Y-142386933D01*
X106317558Y-142316100D01*
X106530058Y-142316100D01*
X106671725Y-142386933D01*
X106742558Y-142528600D01*
X106742558Y-143307766D01*
X107450891Y-143307766D02*
X107450891Y-141820266D01*
X107450891Y-142386933D02*
X107592558Y-142316100D01*
X107875891Y-142316100D01*
X108017558Y-142386933D01*
X108088391Y-142457766D01*
X108159225Y-142599433D01*
X108159225Y-143024433D01*
X108088391Y-143166100D01*
X108017558Y-143236933D01*
X107875891Y-143307766D01*
X107592558Y-143307766D01*
X107450891Y-143236933D01*
X108796725Y-142316100D02*
X108796725Y-143803600D01*
X108796725Y-142386933D02*
X108938391Y-142316100D01*
X109221725Y-142316100D01*
X109363391Y-142386933D01*
X109434225Y-142457766D01*
X109505058Y-142599433D01*
X109505058Y-143024433D01*
X109434225Y-143166100D01*
X109363391Y-143236933D01*
X109221725Y-143307766D01*
X108938391Y-143307766D01*
X108796725Y-143236933D01*
X110780058Y-143307766D02*
X110780058Y-142528600D01*
X110709225Y-142386933D01*
X110567558Y-142316100D01*
X110284225Y-142316100D01*
X110142558Y-142386933D01*
X110780058Y-143236933D02*
X110638391Y-143307766D01*
X110284225Y-143307766D01*
X110142558Y-143236933D01*
X110071725Y-143095266D01*
X110071725Y-142953600D01*
X110142558Y-142811933D01*
X110284225Y-142741100D01*
X110638391Y-142741100D01*
X110780058Y-142670266D01*
X112125891Y-143307766D02*
X112125891Y-141820266D01*
X112125891Y-143236933D02*
X111984225Y-143307766D01*
X111700891Y-143307766D01*
X111559225Y-143236933D01*
X111488391Y-143166100D01*
X111417558Y-143024433D01*
X111417558Y-142599433D01*
X111488391Y-142457766D01*
X111559225Y-142386933D01*
X111700891Y-142316100D01*
X111984225Y-142316100D01*
X112125891Y-142386933D01*
X113967558Y-142741100D02*
X115100891Y-142741100D01*
X116942558Y-143307766D02*
X116942558Y-141820266D01*
X117580058Y-143307766D02*
X117580058Y-142528600D01*
X117509225Y-142386933D01*
X117367558Y-142316100D01*
X117155058Y-142316100D01*
X117013391Y-142386933D01*
X116942558Y-142457766D01*
X118500891Y-143307766D02*
X118359225Y-143236933D01*
X118288391Y-143166100D01*
X118217558Y-143024433D01*
X118217558Y-142599433D01*
X118288391Y-142457766D01*
X118359225Y-142386933D01*
X118500891Y-142316100D01*
X118713391Y-142316100D01*
X118855058Y-142386933D01*
X118925891Y-142457766D01*
X118996725Y-142599433D01*
X118996725Y-143024433D01*
X118925891Y-143166100D01*
X118855058Y-143236933D01*
X118713391Y-143307766D01*
X118500891Y-143307766D01*
X119421725Y-142316100D02*
X119988391Y-142316100D01*
X119634225Y-141820266D02*
X119634225Y-143095266D01*
X119705058Y-143236933D01*
X119846725Y-143307766D01*
X119988391Y-143307766D01*
X120413391Y-143236933D02*
X120555058Y-143307766D01*
X120838391Y-143307766D01*
X120980058Y-143236933D01*
X121050891Y-143095266D01*
X121050891Y-143024433D01*
X120980058Y-142882766D01*
X120838391Y-142811933D01*
X120625891Y-142811933D01*
X120484225Y-142741100D01*
X120413391Y-142599433D01*
X120413391Y-142528600D01*
X120484225Y-142386933D01*
X120625891Y-142316100D01*
X120838391Y-142316100D01*
X120980058Y-142386933D01*
X121546725Y-142316100D02*
X121830058Y-143307766D01*
X122113391Y-142599433D01*
X122396725Y-143307766D01*
X122680058Y-142316100D01*
X123884225Y-143307766D02*
X123884225Y-142528600D01*
X123813391Y-142386933D01*
X123671725Y-142316100D01*
X123388391Y-142316100D01*
X123246725Y-142386933D01*
X123884225Y-143236933D02*
X123742558Y-143307766D01*
X123388391Y-143307766D01*
X123246725Y-143236933D01*
X123175891Y-143095266D01*
X123175891Y-142953600D01*
X123246725Y-142811933D01*
X123388391Y-142741100D01*
X123742558Y-142741100D01*
X123884225Y-142670266D01*
X124592558Y-142316100D02*
X124592558Y-143803600D01*
X124592558Y-142386933D02*
X124734225Y-142316100D01*
X125017558Y-142316100D01*
X125159225Y-142386933D01*
X125230058Y-142457766D01*
X125300891Y-142599433D01*
X125300891Y-143024433D01*
X125230058Y-143166100D01*
X125159225Y-143236933D01*
X125017558Y-143307766D01*
X124734225Y-143307766D01*
X124592558Y-143236933D01*
X127071725Y-142741100D02*
X128205058Y-142741100D01*
X130046725Y-143307766D02*
X130046725Y-142316100D01*
X130046725Y-142599433D02*
X130117558Y-142457766D01*
X130188391Y-142386933D01*
X130330058Y-142316100D01*
X130471725Y-142316100D01*
X131605058Y-142316100D02*
X131605058Y-143520266D01*
X131534225Y-143661933D01*
X131463391Y-143732766D01*
X131321725Y-143803600D01*
X131109225Y-143803600D01*
X130967558Y-143732766D01*
X131605058Y-143236933D02*
X131463391Y-143307766D01*
X131180058Y-143307766D01*
X131038391Y-143236933D01*
X130967558Y-143166100D01*
X130896725Y-143024433D01*
X130896725Y-142599433D01*
X130967558Y-142457766D01*
X131038391Y-142386933D01*
X131180058Y-142316100D01*
X131463391Y-142316100D01*
X131605058Y-142386933D01*
X132313391Y-143307766D02*
X132313391Y-141820266D01*
X132313391Y-142386933D02*
X132455058Y-142316100D01*
X132738391Y-142316100D01*
X132880058Y-142386933D01*
X132950891Y-142457766D01*
X133021725Y-142599433D01*
X133021725Y-143024433D01*
X132950891Y-143166100D01*
X132880058Y-143236933D01*
X132738391Y-143307766D01*
X132455058Y-143307766D01*
X132313391Y-143236933D01*
X134792558Y-142741100D02*
X135925891Y-142741100D01*
X137980058Y-143307766D02*
X137838391Y-143236933D01*
X137767558Y-143166100D01*
X137696725Y-143024433D01*
X137696725Y-142599433D01*
X137767558Y-142457766D01*
X137838391Y-142386933D01*
X137980058Y-142316100D01*
X138192558Y-142316100D01*
X138334225Y-142386933D01*
X138405058Y-142457766D01*
X138475891Y-142599433D01*
X138475891Y-143024433D01*
X138405058Y-143166100D01*
X138334225Y-143236933D01*
X138192558Y-143307766D01*
X137980058Y-143307766D01*
X139325891Y-143307766D02*
X139184225Y-143236933D01*
X139113391Y-143095266D01*
X139113391Y-141820266D01*
X140459225Y-143236933D02*
X140317558Y-143307766D01*
X140034225Y-143307766D01*
X139892558Y-143236933D01*
X139821725Y-143095266D01*
X139821725Y-142528600D01*
X139892558Y-142386933D01*
X140034225Y-142316100D01*
X140317558Y-142316100D01*
X140459225Y-142386933D01*
X140530058Y-142528600D01*
X140530058Y-142670266D01*
X139821725Y-142811933D01*
X141805058Y-143307766D02*
X141805058Y-141820266D01*
X141805058Y-143236933D02*
X141663391Y-143307766D01*
X141380058Y-143307766D01*
X141238391Y-143236933D01*
X141167558Y-143166100D01*
X141096725Y-143024433D01*
X141096725Y-142599433D01*
X141167558Y-142457766D01*
X141238391Y-142386933D01*
X141380058Y-142316100D01*
X141663391Y-142316100D01*
X141805058Y-142386933D01*
D11*
X104276010Y-85031992D02*
X104276010Y-84394492D01*
X104427796Y-84394492D01*
X104518867Y-84424850D01*
X104579582Y-84485564D01*
X104609939Y-84546278D01*
X104640296Y-84667707D01*
X104640296Y-84758778D01*
X104609939Y-84880207D01*
X104579582Y-84940921D01*
X104518867Y-85001635D01*
X104427796Y-85031992D01*
X104276010Y-85031992D01*
X105034939Y-84394492D02*
X105095653Y-84394492D01*
X105156367Y-84424850D01*
X105186725Y-84455207D01*
X105217082Y-84515921D01*
X105247439Y-84637350D01*
X105247439Y-84789135D01*
X105217082Y-84910564D01*
X105186725Y-84971278D01*
X105156367Y-85001635D01*
X105095653Y-85031992D01*
X105034939Y-85031992D01*
X104974225Y-85001635D01*
X104943867Y-84971278D01*
X104913510Y-84910564D01*
X104883153Y-84789135D01*
X104883153Y-84637350D01*
X104913510Y-84515921D01*
X104943867Y-84455207D01*
X104974225Y-84424850D01*
X105034939Y-84394492D01*
X115097617Y-99938064D02*
X115188689Y-99968421D01*
X115219046Y-99998778D01*
X115249403Y-100059492D01*
X115249403Y-100150564D01*
X115219046Y-100211278D01*
X115188689Y-100241635D01*
X115127975Y-100271992D01*
X114885117Y-100271992D01*
X114885117Y-99634492D01*
X115097617Y-99634492D01*
X115158332Y-99664850D01*
X115188689Y-99695207D01*
X115219046Y-99755921D01*
X115219046Y-99816635D01*
X115188689Y-99877350D01*
X115158332Y-99907707D01*
X115097617Y-99938064D01*
X114885117Y-99938064D01*
X115795832Y-99634492D02*
X115674403Y-99634492D01*
X115613689Y-99664850D01*
X115583332Y-99695207D01*
X115522617Y-99786278D01*
X115492260Y-99907707D01*
X115492260Y-100150564D01*
X115522617Y-100211278D01*
X115552975Y-100241635D01*
X115613689Y-100271992D01*
X115735117Y-100271992D01*
X115795832Y-100241635D01*
X115826189Y-100211278D01*
X115856546Y-100150564D01*
X115856546Y-99998778D01*
X115826189Y-99938064D01*
X115795832Y-99907707D01*
X115735117Y-99877350D01*
X115613689Y-99877350D01*
X115552975Y-99907707D01*
X115522617Y-99938064D01*
X115492260Y-99998778D01*
X104276010Y-74871992D02*
X104276010Y-74234492D01*
X104427796Y-74234492D01*
X104518867Y-74264850D01*
X104579582Y-74325564D01*
X104609939Y-74386278D01*
X104640296Y-74507707D01*
X104640296Y-74598778D01*
X104609939Y-74720207D01*
X104579582Y-74780921D01*
X104518867Y-74841635D01*
X104427796Y-74871992D01*
X104276010Y-74871992D01*
X104883153Y-74295207D02*
X104913510Y-74264850D01*
X104974225Y-74234492D01*
X105126010Y-74234492D01*
X105186725Y-74264850D01*
X105217082Y-74295207D01*
X105247439Y-74355921D01*
X105247439Y-74416635D01*
X105217082Y-74507707D01*
X104852796Y-74871992D01*
X105247439Y-74871992D01*
X115188689Y-84698064D02*
X114976189Y-84698064D01*
X114976189Y-85031992D02*
X114976189Y-84394492D01*
X115279760Y-84394492D01*
X115826189Y-84394492D02*
X115522617Y-84394492D01*
X115492260Y-84698064D01*
X115522617Y-84667707D01*
X115583332Y-84637350D01*
X115735117Y-84637350D01*
X115795832Y-84667707D01*
X115826189Y-84698064D01*
X115856546Y-84758778D01*
X115856546Y-84910564D01*
X115826189Y-84971278D01*
X115795832Y-85001635D01*
X115735117Y-85031992D01*
X115583332Y-85031992D01*
X115522617Y-85001635D01*
X115492260Y-84971278D01*
X114520832Y-74264850D02*
X114460117Y-74234492D01*
X114369046Y-74234492D01*
X114277975Y-74264850D01*
X114217260Y-74325564D01*
X114186903Y-74386278D01*
X114156546Y-74507707D01*
X114156546Y-74598778D01*
X114186903Y-74720207D01*
X114217260Y-74780921D01*
X114277975Y-74841635D01*
X114369046Y-74871992D01*
X114429760Y-74871992D01*
X114520832Y-74841635D01*
X114551189Y-74811278D01*
X114551189Y-74598778D01*
X114429760Y-74598778D01*
X114824403Y-74871992D02*
X114824403Y-74234492D01*
X115188689Y-74871992D01*
X115188689Y-74234492D01*
X115492260Y-74871992D02*
X115492260Y-74234492D01*
X115644046Y-74234492D01*
X115735117Y-74264850D01*
X115795832Y-74325564D01*
X115826189Y-74386278D01*
X115856546Y-74507707D01*
X115856546Y-74598778D01*
X115826189Y-74720207D01*
X115795832Y-74780921D01*
X115735117Y-74841635D01*
X115644046Y-74871992D01*
X115492260Y-74871992D01*
X114763689Y-77411992D02*
X114551189Y-77108421D01*
X114399403Y-77411992D02*
X114399403Y-76774492D01*
X114642260Y-76774492D01*
X114702975Y-76804850D01*
X114733332Y-76835207D01*
X114763689Y-76895921D01*
X114763689Y-76986992D01*
X114733332Y-77047707D01*
X114702975Y-77078064D01*
X114642260Y-77108421D01*
X114399403Y-77108421D01*
X115006546Y-77381635D02*
X115097617Y-77411992D01*
X115249403Y-77411992D01*
X115310117Y-77381635D01*
X115340475Y-77351278D01*
X115370832Y-77290564D01*
X115370832Y-77229850D01*
X115340475Y-77169135D01*
X115310117Y-77138778D01*
X115249403Y-77108421D01*
X115127975Y-77078064D01*
X115067260Y-77047707D01*
X115036903Y-77017350D01*
X115006546Y-76956635D01*
X115006546Y-76895921D01*
X115036903Y-76835207D01*
X115067260Y-76804850D01*
X115127975Y-76774492D01*
X115279760Y-76774492D01*
X115370832Y-76804850D01*
X115552975Y-76774492D02*
X115917260Y-76774492D01*
X115735117Y-77411992D02*
X115735117Y-76774492D01*
X115188689Y-87238064D02*
X114976189Y-87238064D01*
X114976189Y-87571992D02*
X114976189Y-86934492D01*
X115279760Y-86934492D01*
X115795832Y-86934492D02*
X115674403Y-86934492D01*
X115613689Y-86964850D01*
X115583332Y-86995207D01*
X115522617Y-87086278D01*
X115492260Y-87207707D01*
X115492260Y-87450564D01*
X115522617Y-87511278D01*
X115552975Y-87541635D01*
X115613689Y-87571992D01*
X115735117Y-87571992D01*
X115795832Y-87541635D01*
X115826189Y-87511278D01*
X115856546Y-87450564D01*
X115856546Y-87298778D01*
X115826189Y-87238064D01*
X115795832Y-87207707D01*
X115735117Y-87177350D01*
X115613689Y-87177350D01*
X115552975Y-87207707D01*
X115522617Y-87238064D01*
X115492260Y-87298778D01*
X104609939Y-76804850D02*
X104549225Y-76774492D01*
X104458153Y-76774492D01*
X104367082Y-76804850D01*
X104306367Y-76865564D01*
X104276010Y-76926278D01*
X104245653Y-77047707D01*
X104245653Y-77138778D01*
X104276010Y-77260207D01*
X104306367Y-77320921D01*
X104367082Y-77381635D01*
X104458153Y-77411992D01*
X104518867Y-77411992D01*
X104609939Y-77381635D01*
X104640296Y-77351278D01*
X104640296Y-77138778D01*
X104518867Y-77138778D01*
X104913510Y-77411992D02*
X104913510Y-76774492D01*
X105277796Y-77411992D01*
X105277796Y-76774492D01*
X105581367Y-77411992D02*
X105581367Y-76774492D01*
X105733153Y-76774492D01*
X105824225Y-76804850D01*
X105884939Y-76865564D01*
X105915296Y-76926278D01*
X105945653Y-77047707D01*
X105945653Y-77138778D01*
X105915296Y-77260207D01*
X105884939Y-77320921D01*
X105824225Y-77381635D01*
X105733153Y-77411992D01*
X105581367Y-77411992D01*
D12*
X157180475Y-142316100D02*
X157180475Y-143520266D01*
X157109641Y-143661933D01*
X157038808Y-143732766D01*
X156897141Y-143803600D01*
X156684641Y-143803600D01*
X156542975Y-143732766D01*
X157180475Y-143236933D02*
X157038808Y-143307766D01*
X156755475Y-143307766D01*
X156613808Y-143236933D01*
X156542975Y-143166100D01*
X156472141Y-143024433D01*
X156472141Y-142599433D01*
X156542975Y-142457766D01*
X156613808Y-142386933D01*
X156755475Y-142316100D01*
X157038808Y-142316100D01*
X157180475Y-142386933D01*
X157888808Y-143307766D02*
X157888808Y-142316100D01*
X157888808Y-141820266D02*
X157817975Y-141891100D01*
X157888808Y-141961933D01*
X157959641Y-141891100D01*
X157888808Y-141820266D01*
X157888808Y-141961933D01*
X158384641Y-142316100D02*
X158951308Y-142316100D01*
X158597141Y-141820266D02*
X158597141Y-143095266D01*
X158667975Y-143236933D01*
X158809641Y-143307766D01*
X158951308Y-143307766D01*
X159447141Y-143307766D02*
X159447141Y-141820266D01*
X160084641Y-143307766D02*
X160084641Y-142528600D01*
X160013808Y-142386933D01*
X159872141Y-142316100D01*
X159659641Y-142316100D01*
X159517975Y-142386933D01*
X159447141Y-142457766D01*
X161430475Y-142316100D02*
X161430475Y-143307766D01*
X160792975Y-142316100D02*
X160792975Y-143095266D01*
X160863808Y-143236933D01*
X161005475Y-143307766D01*
X161217975Y-143307766D01*
X161359641Y-143236933D01*
X161430475Y-143166100D01*
X162138808Y-143307766D02*
X162138808Y-141820266D01*
X162138808Y-142386933D02*
X162280475Y-142316100D01*
X162563808Y-142316100D01*
X162705475Y-142386933D01*
X162776308Y-142457766D01*
X162847141Y-142599433D01*
X162847141Y-143024433D01*
X162776308Y-143166100D01*
X162705475Y-143236933D01*
X162563808Y-143307766D01*
X162280475Y-143307766D01*
X162138808Y-143236933D01*
X163484641Y-143166100D02*
X163555475Y-143236933D01*
X163484641Y-143307766D01*
X163413808Y-143236933D01*
X163484641Y-143166100D01*
X163484641Y-143307766D01*
X164830475Y-143236933D02*
X164688808Y-143307766D01*
X164405475Y-143307766D01*
X164263808Y-143236933D01*
X164192975Y-143166100D01*
X164122141Y-143024433D01*
X164122141Y-142599433D01*
X164192975Y-142457766D01*
X164263808Y-142386933D01*
X164405475Y-142316100D01*
X164688808Y-142316100D01*
X164830475Y-142386933D01*
X165680475Y-143307766D02*
X165538808Y-143236933D01*
X165467975Y-143166100D01*
X165397141Y-143024433D01*
X165397141Y-142599433D01*
X165467975Y-142457766D01*
X165538808Y-142386933D01*
X165680475Y-142316100D01*
X165892975Y-142316100D01*
X166034641Y-142386933D01*
X166105475Y-142457766D01*
X166176308Y-142599433D01*
X166176308Y-143024433D01*
X166105475Y-143166100D01*
X166034641Y-143236933D01*
X165892975Y-143307766D01*
X165680475Y-143307766D01*
X166813808Y-143307766D02*
X166813808Y-142316100D01*
X166813808Y-142457766D02*
X166884641Y-142386933D01*
X167026308Y-142316100D01*
X167238808Y-142316100D01*
X167380475Y-142386933D01*
X167451308Y-142528600D01*
X167451308Y-143307766D01*
X167451308Y-142528600D02*
X167522141Y-142386933D01*
X167663808Y-142316100D01*
X167876308Y-142316100D01*
X168017975Y-142386933D01*
X168088808Y-142528600D01*
X168088808Y-143307766D01*
X169859641Y-141749433D02*
X168584641Y-143661933D01*
X170355475Y-143307766D02*
X170355475Y-142316100D01*
X170355475Y-141820266D02*
X170284641Y-141891100D01*
X170355475Y-141961933D01*
X170426308Y-141891100D01*
X170355475Y-141820266D01*
X170355475Y-141961933D01*
X171063808Y-143307766D02*
X171063808Y-142316100D01*
X171063808Y-142457766D02*
X171134641Y-142386933D01*
X171276308Y-142316100D01*
X171488808Y-142316100D01*
X171630475Y-142386933D01*
X171701308Y-142528600D01*
X171701308Y-143307766D01*
X171701308Y-142528600D02*
X171772141Y-142386933D01*
X171913808Y-142316100D01*
X172126308Y-142316100D01*
X172267975Y-142386933D01*
X172338808Y-142528600D01*
X172338808Y-143307766D01*
X173684641Y-143236933D02*
X173542975Y-143307766D01*
X173259641Y-143307766D01*
X173117975Y-143236933D01*
X173047141Y-143166100D01*
X172976308Y-143024433D01*
X172976308Y-142599433D01*
X173047141Y-142457766D01*
X173117975Y-142386933D01*
X173259641Y-142316100D01*
X173542975Y-142316100D01*
X173684641Y-142386933D01*
X174322141Y-143307766D02*
X174322141Y-141820266D01*
X174959641Y-143307766D02*
X174959641Y-142528600D01*
X174888808Y-142386933D01*
X174747141Y-142316100D01*
X174534641Y-142316100D01*
X174392975Y-142386933D01*
X174322141Y-142457766D01*
X175667975Y-143307766D02*
X175667975Y-142316100D01*
X175667975Y-141820266D02*
X175597141Y-141891100D01*
X175667975Y-141961933D01*
X175738808Y-141891100D01*
X175667975Y-141820266D01*
X175667975Y-141961933D01*
X176376308Y-142316100D02*
X176376308Y-143803600D01*
X176376308Y-142386933D02*
X176517975Y-142316100D01*
X176801308Y-142316100D01*
X176942975Y-142386933D01*
X177013808Y-142457766D01*
X177084641Y-142599433D01*
X177084641Y-143024433D01*
X177013808Y-143166100D01*
X176942975Y-143236933D01*
X176801308Y-143307766D01*
X176517975Y-143307766D01*
X176376308Y-143236933D01*
X177580475Y-142316100D02*
X177863808Y-143307766D01*
X178147141Y-142599433D01*
X178430475Y-143307766D01*
X178713808Y-142316100D01*
X179492975Y-143307766D02*
X179351308Y-143236933D01*
X179280475Y-143166100D01*
X179209641Y-143024433D01*
X179209641Y-142599433D01*
X179280475Y-142457766D01*
X179351308Y-142386933D01*
X179492975Y-142316100D01*
X179705475Y-142316100D01*
X179847141Y-142386933D01*
X179917975Y-142457766D01*
X179988808Y-142599433D01*
X179988808Y-143024433D01*
X179917975Y-143166100D01*
X179847141Y-143236933D01*
X179705475Y-143307766D01*
X179492975Y-143307766D01*
X180838808Y-143307766D02*
X180697141Y-143236933D01*
X180626308Y-143166100D01*
X180555475Y-143024433D01*
X180555475Y-142599433D01*
X180626308Y-142457766D01*
X180697141Y-142386933D01*
X180838808Y-142316100D01*
X181051308Y-142316100D01*
X181192975Y-142386933D01*
X181263808Y-142457766D01*
X181334641Y-142599433D01*
X181334641Y-143024433D01*
X181263808Y-143166100D01*
X181192975Y-143236933D01*
X181051308Y-143307766D01*
X180838808Y-143307766D01*
X182609641Y-143307766D02*
X182609641Y-141820266D01*
X182609641Y-143236933D02*
X182467975Y-143307766D01*
X182184641Y-143307766D01*
X182042975Y-143236933D01*
X181972141Y-143166100D01*
X181901308Y-143024433D01*
X181901308Y-142599433D01*
X181972141Y-142457766D01*
X182042975Y-142386933D01*
X182184641Y-142316100D01*
X182467975Y-142316100D01*
X182609641Y-142386933D01*
X184380475Y-141749433D02*
X183105475Y-143661933D01*
X185513808Y-143307766D02*
X185513808Y-141820266D01*
X185513808Y-143236933D02*
X185372141Y-143307766D01*
X185088808Y-143307766D01*
X184947141Y-143236933D01*
X184876308Y-143166100D01*
X184805475Y-143024433D01*
X184805475Y-142599433D01*
X184876308Y-142457766D01*
X184947141Y-142386933D01*
X185088808Y-142316100D01*
X185372141Y-142316100D01*
X185513808Y-142386933D01*
X186859641Y-142316100D02*
X186859641Y-143307766D01*
X186222141Y-142316100D02*
X186222141Y-143095266D01*
X186292975Y-143236933D01*
X186434641Y-143307766D01*
X186647141Y-143307766D01*
X186788808Y-143236933D01*
X186859641Y-143166100D01*
X187567975Y-143307766D02*
X187567975Y-142316100D01*
X187567975Y-142457766D02*
X187638808Y-142386933D01*
X187780475Y-142316100D01*
X187992975Y-142316100D01*
X188134641Y-142386933D01*
X188205475Y-142528600D01*
X188205475Y-143307766D01*
X188205475Y-142528600D02*
X188276308Y-142386933D01*
X188417975Y-142316100D01*
X188630475Y-142316100D01*
X188772141Y-142386933D01*
X188842975Y-142528600D01*
X188842975Y-143307766D01*
X189551308Y-143307766D02*
X189551308Y-141820266D01*
X189551308Y-142386933D02*
X189692975Y-142316100D01*
X189976308Y-142316100D01*
X190117975Y-142386933D01*
X190188808Y-142457766D01*
X190259641Y-142599433D01*
X190259641Y-143024433D01*
X190188808Y-143166100D01*
X190117975Y-143236933D01*
X189976308Y-143307766D01*
X189692975Y-143307766D01*
X189551308Y-143236933D01*
X190897141Y-142316100D02*
X190897141Y-143803600D01*
X190897141Y-142386933D02*
X191038808Y-142316100D01*
X191322141Y-142316100D01*
X191463808Y-142386933D01*
X191534641Y-142457766D01*
X191605475Y-142599433D01*
X191605475Y-143024433D01*
X191534641Y-143166100D01*
X191463808Y-143236933D01*
X191322141Y-143307766D01*
X191038808Y-143307766D01*
X190897141Y-143236933D01*
X192880475Y-143307766D02*
X192880475Y-142528600D01*
X192809641Y-142386933D01*
X192667975Y-142316100D01*
X192384641Y-142316100D01*
X192242975Y-142386933D01*
X192880475Y-143236933D02*
X192738808Y-143307766D01*
X192384641Y-143307766D01*
X192242975Y-143236933D01*
X192172141Y-143095266D01*
X192172141Y-142953600D01*
X192242975Y-142811933D01*
X192384641Y-142741100D01*
X192738808Y-142741100D01*
X192880475Y-142670266D01*
X194226308Y-143307766D02*
X194226308Y-141820266D01*
X194226308Y-143236933D02*
X194084641Y-143307766D01*
X193801308Y-143307766D01*
X193659641Y-143236933D01*
X193588808Y-143166100D01*
X193517975Y-143024433D01*
X193517975Y-142599433D01*
X193588808Y-142457766D01*
X193659641Y-142386933D01*
X193801308Y-142316100D01*
X194084641Y-142316100D01*
X194226308Y-142386933D01*
D11*
X115097617Y-94858064D02*
X115188689Y-94888421D01*
X115219046Y-94918778D01*
X115249403Y-94979492D01*
X115249403Y-95070564D01*
X115219046Y-95131278D01*
X115188689Y-95161635D01*
X115127975Y-95191992D01*
X114885117Y-95191992D01*
X114885117Y-94554492D01*
X115097617Y-94554492D01*
X115158332Y-94584850D01*
X115188689Y-94615207D01*
X115219046Y-94675921D01*
X115219046Y-94736635D01*
X115188689Y-94797350D01*
X115158332Y-94827707D01*
X115097617Y-94858064D01*
X114885117Y-94858064D01*
X115461903Y-94554492D02*
X115856546Y-94554492D01*
X115644046Y-94797350D01*
X115735117Y-94797350D01*
X115795832Y-94827707D01*
X115826189Y-94858064D01*
X115856546Y-94918778D01*
X115856546Y-95070564D01*
X115826189Y-95131278D01*
X115795832Y-95161635D01*
X115735117Y-95191992D01*
X115552975Y-95191992D01*
X115492260Y-95161635D01*
X115461903Y-95131278D01*
X104276010Y-82491992D02*
X104276010Y-81854492D01*
X104427796Y-81854492D01*
X104518867Y-81884850D01*
X104579582Y-81945564D01*
X104609939Y-82006278D01*
X104640296Y-82127707D01*
X104640296Y-82218778D01*
X104609939Y-82340207D01*
X104579582Y-82400921D01*
X104518867Y-82461635D01*
X104427796Y-82491992D01*
X104276010Y-82491992D01*
X105247439Y-82491992D02*
X104883153Y-82491992D01*
X105065296Y-82491992D02*
X105065296Y-81854492D01*
X105004582Y-81945564D01*
X104943867Y-82006278D01*
X104883153Y-82036635D01*
X115188689Y-82158064D02*
X114976189Y-82158064D01*
X114976189Y-82491992D02*
X114976189Y-81854492D01*
X115279760Y-81854492D01*
X115795832Y-82066992D02*
X115795832Y-82491992D01*
X115644046Y-81824135D02*
X115492260Y-82279492D01*
X115886903Y-82279492D01*
X104609939Y-79344850D02*
X104549225Y-79314492D01*
X104458153Y-79314492D01*
X104367082Y-79344850D01*
X104306367Y-79405564D01*
X104276010Y-79466278D01*
X104245653Y-79587707D01*
X104245653Y-79678778D01*
X104276010Y-79800207D01*
X104306367Y-79860921D01*
X104367082Y-79921635D01*
X104458153Y-79951992D01*
X104518867Y-79951992D01*
X104609939Y-79921635D01*
X104640296Y-79891278D01*
X104640296Y-79678778D01*
X104518867Y-79678778D01*
X104913510Y-79951992D02*
X104913510Y-79314492D01*
X105277796Y-79951992D01*
X105277796Y-79314492D01*
X105581367Y-79951992D02*
X105581367Y-79314492D01*
X105733153Y-79314492D01*
X105824225Y-79344850D01*
X105884939Y-79405564D01*
X105915296Y-79466278D01*
X105945653Y-79587707D01*
X105945653Y-79678778D01*
X105915296Y-79800207D01*
X105884939Y-79860921D01*
X105824225Y-79921635D01*
X105733153Y-79951992D01*
X105581367Y-79951992D01*
D13*
%TO.C,RE_3_1*%
X102472380Y-139657142D02*
X101996190Y-139990476D01*
X102472380Y-140228571D02*
X101472380Y-140228571D01*
X101472380Y-139847619D01*
X101520000Y-139752380D01*
X101567619Y-139704761D01*
X101662857Y-139657142D01*
X101805714Y-139657142D01*
X101900952Y-139704761D01*
X101948571Y-139752380D01*
X101996190Y-139847619D01*
X101996190Y-140228571D01*
X101948571Y-139228571D02*
X101948571Y-138895238D01*
X102472380Y-138752380D02*
X102472380Y-139228571D01*
X101472380Y-139228571D01*
X101472380Y-138752380D01*
X102567619Y-138561904D02*
X102567619Y-137800000D01*
X101472380Y-137657142D02*
X101472380Y-137038095D01*
X101853333Y-137371428D01*
X101853333Y-137228571D01*
X101900952Y-137133333D01*
X101948571Y-137085714D01*
X102043809Y-137038095D01*
X102281904Y-137038095D01*
X102377142Y-137085714D01*
X102424761Y-137133333D01*
X102472380Y-137228571D01*
X102472380Y-137514285D01*
X102424761Y-137609523D01*
X102377142Y-137657142D01*
X102567619Y-136847619D02*
X102567619Y-136085714D01*
X102472380Y-135323809D02*
X102472380Y-135895238D01*
X102472380Y-135609523D02*
X101472380Y-135609523D01*
X101615238Y-135704761D01*
X101710476Y-135800000D01*
X101758095Y-135895238D01*
D14*
%TO.C,J1*%
X105156000Y-106172000D02*
X115173401Y-106172000D01*
X115173401Y-106172000D02*
X115173401Y-103828072D01*
X115173401Y-103828072D02*
X105156000Y-103828072D01*
X105156000Y-103828072D02*
X105156000Y-106172000D01*
D15*
%TO.C,S17*%
X107892100Y-124051600D02*
X112210100Y-124051600D01*
X107003100Y-119975600D02*
X107003100Y-122019600D01*
X112210100Y-117955600D02*
X107892100Y-117955600D01*
X113099100Y-120005600D02*
X113099100Y-122019600D01*
X111829100Y-121003600D02*
G75*
G03*
X111829100Y-121003600I-1778000J0D01*
G01*
D14*
%TO.C,RE_3_1*%
X105120000Y-140900000D02*
X105120000Y-140300000D01*
X108720000Y-133100000D02*
X109720000Y-133100000D01*
X105420000Y-140600000D02*
X105120000Y-140900000D01*
X115120000Y-135100000D02*
X115120000Y-139200000D01*
X112720000Y-127000000D02*
X115120000Y-127000000D01*
X109220000Y-133600000D02*
X109220000Y-132600000D01*
X103320000Y-127000000D02*
X105720000Y-127000000D01*
X103320000Y-135100000D02*
X103320000Y-139200000D01*
X107920000Y-127000000D02*
X110520000Y-127000000D01*
X105120000Y-140300000D02*
X105420000Y-140600000D01*
X103320000Y-139200000D02*
X115120000Y-139200000D01*
X103320000Y-131100000D02*
X103320000Y-127000000D01*
X115120000Y-127000000D02*
X115120000Y-131100000D01*
X112220000Y-133100000D02*
G75*
G03*
X112220000Y-133100000I-3000000J0D01*
G01*
D16*
%TO.C,S1*%
X137801100Y-83238600D02*
X137801100Y-81333600D01*
X122201100Y-81333600D02*
X122201100Y-83238600D01*
X137801100Y-69268600D02*
X136351100Y-69268600D01*
X123701100Y-69268600D02*
X122201100Y-69268600D01*
X122201100Y-69268600D02*
X122201100Y-71173600D01*
X122201100Y-83238600D02*
X123701100Y-83238600D01*
X136301100Y-83238600D02*
X137801100Y-83238600D01*
X137801100Y-71173600D02*
X137801100Y-69268600D01*
%TO.C,S15*%
X174401100Y-140388600D02*
X175901100Y-140388600D01*
X160301100Y-126418600D02*
X160301100Y-128323600D01*
X175901100Y-140388600D02*
X175901100Y-138483600D01*
X160301100Y-138483600D02*
X160301100Y-140388600D01*
X161801100Y-126418600D02*
X160301100Y-126418600D01*
X175901100Y-126418600D02*
X174451100Y-126418600D01*
X160301100Y-140388600D02*
X161801100Y-140388600D01*
X175901100Y-128323600D02*
X175901100Y-126418600D01*
%TO.C,S8*%
X179351100Y-100383600D02*
X179351100Y-102288600D01*
X194951100Y-88318600D02*
X193501100Y-88318600D01*
X179351100Y-102288600D02*
X180851100Y-102288600D01*
X194951100Y-102288600D02*
X194951100Y-100383600D01*
X180851100Y-88318600D02*
X179351100Y-88318600D01*
X193451100Y-102288600D02*
X194951100Y-102288600D01*
X194951100Y-90223600D02*
X194951100Y-88318600D01*
X179351100Y-88318600D02*
X179351100Y-90223600D01*
%TO.C,S2*%
X155351100Y-83238600D02*
X156851100Y-83238600D01*
X141251100Y-81333600D02*
X141251100Y-83238600D01*
X142751100Y-69268600D02*
X141251100Y-69268600D01*
X156851100Y-69268600D02*
X155401100Y-69268600D01*
X141251100Y-83238600D02*
X142751100Y-83238600D01*
X156851100Y-71173600D02*
X156851100Y-69268600D01*
X156851100Y-83238600D02*
X156851100Y-81333600D01*
X141251100Y-69268600D02*
X141251100Y-71173600D01*
%TO.C,S4*%
X179351100Y-81333600D02*
X179351100Y-83238600D01*
X179351100Y-69268600D02*
X179351100Y-71173600D01*
X180851100Y-69268600D02*
X179351100Y-69268600D01*
X194951100Y-71173600D02*
X194951100Y-69268600D01*
X194951100Y-69268600D02*
X193501100Y-69268600D01*
X179351100Y-83238600D02*
X180851100Y-83238600D01*
X194951100Y-83238600D02*
X194951100Y-81333600D01*
X193451100Y-83238600D02*
X194951100Y-83238600D01*
%TO.C,S5*%
X136301100Y-102288600D02*
X137801100Y-102288600D01*
X137801100Y-88318600D02*
X136351100Y-88318600D01*
X122201100Y-88318600D02*
X122201100Y-90223600D01*
X123701100Y-88318600D02*
X122201100Y-88318600D01*
X137801100Y-102288600D02*
X137801100Y-100383600D01*
X137801100Y-90223600D02*
X137801100Y-88318600D01*
X122201100Y-102288600D02*
X123701100Y-102288600D01*
X122201100Y-100383600D02*
X122201100Y-102288600D01*
%TO.C,S14*%
X156851100Y-140388600D02*
X156851100Y-138483600D01*
X156851100Y-128323600D02*
X156851100Y-126418600D01*
X141251100Y-138483600D02*
X141251100Y-140388600D01*
X142751100Y-126418600D02*
X141251100Y-126418600D01*
X156851100Y-126418600D02*
X155401100Y-126418600D01*
X141251100Y-126418600D02*
X141251100Y-128323600D01*
X141251100Y-140388600D02*
X142751100Y-140388600D01*
X155351100Y-140388600D02*
X156851100Y-140388600D01*
%TO.C,S11*%
X160301100Y-121338600D02*
X161801100Y-121338600D01*
X175901100Y-109273600D02*
X175901100Y-107368600D01*
X161801100Y-107368600D02*
X160301100Y-107368600D01*
X175901100Y-107368600D02*
X174451100Y-107368600D01*
X175901100Y-121338600D02*
X175901100Y-119433600D01*
X174401100Y-121338600D02*
X175901100Y-121338600D01*
X160301100Y-119433600D02*
X160301100Y-121338600D01*
X160301100Y-107368600D02*
X160301100Y-109273600D01*
%TO.C,S7*%
X161801100Y-88318600D02*
X160301100Y-88318600D01*
X160301100Y-88318600D02*
X160301100Y-90223600D01*
X175901100Y-102288600D02*
X175901100Y-100383600D01*
X160301100Y-102288600D02*
X161801100Y-102288600D01*
X175901100Y-90223600D02*
X175901100Y-88318600D01*
X174401100Y-102288600D02*
X175901100Y-102288600D01*
X175901100Y-88318600D02*
X174451100Y-88318600D01*
X160301100Y-100383600D02*
X160301100Y-102288600D01*
%TO.C,S6*%
X156851100Y-88318600D02*
X155401100Y-88318600D01*
X155351100Y-102288600D02*
X156851100Y-102288600D01*
X141251100Y-102288600D02*
X142751100Y-102288600D01*
X142751100Y-88318600D02*
X141251100Y-88318600D01*
X156851100Y-102288600D02*
X156851100Y-100383600D01*
X141251100Y-100383600D02*
X141251100Y-102288600D01*
X141251100Y-88318600D02*
X141251100Y-90223600D01*
X156851100Y-90223600D02*
X156851100Y-88318600D01*
%TO.C,S12*%
X179351100Y-119433600D02*
X179351100Y-121338600D01*
X180851100Y-107368600D02*
X179351100Y-107368600D01*
X193451100Y-121338600D02*
X194951100Y-121338600D01*
X194951100Y-109273600D02*
X194951100Y-107368600D01*
X179351100Y-121338600D02*
X180851100Y-121338600D01*
X194951100Y-107368600D02*
X193501100Y-107368600D01*
X179351100Y-107368600D02*
X179351100Y-109273600D01*
X194951100Y-121338600D02*
X194951100Y-119433600D01*
%TO.C,S3*%
X174401100Y-83238600D02*
X175901100Y-83238600D01*
X160301100Y-81333600D02*
X160301100Y-83238600D01*
X175901100Y-71173600D02*
X175901100Y-69268600D01*
X160301100Y-83238600D02*
X161801100Y-83238600D01*
X175901100Y-69268600D02*
X174451100Y-69268600D01*
X161801100Y-69268600D02*
X160301100Y-69268600D01*
X175901100Y-83238600D02*
X175901100Y-81333600D01*
X160301100Y-69268600D02*
X160301100Y-71173600D01*
%TO.C,S13*%
X137801100Y-126422200D02*
X136351100Y-126422200D01*
X137801100Y-140392200D02*
X137801100Y-138487200D01*
X123701100Y-126422200D02*
X122201100Y-126422200D01*
X122201100Y-138487200D02*
X122201100Y-140392200D01*
X122201100Y-140392200D02*
X123701100Y-140392200D01*
X122201100Y-126422200D02*
X122201100Y-128327200D01*
X136301100Y-140392200D02*
X137801100Y-140392200D01*
X137801100Y-128327200D02*
X137801100Y-126422200D01*
%TO.C,S9*%
X137801100Y-121338600D02*
X137801100Y-119433600D01*
X123701100Y-107368600D02*
X122201100Y-107368600D01*
X137801100Y-107368600D02*
X136351100Y-107368600D01*
X122201100Y-119433600D02*
X122201100Y-121338600D01*
X137801100Y-109273600D02*
X137801100Y-107368600D01*
X122201100Y-107368600D02*
X122201100Y-109273600D01*
X122201100Y-121338600D02*
X123701100Y-121338600D01*
X136301100Y-121338600D02*
X137801100Y-121338600D01*
%TO.C,S16*%
X193451100Y-140392200D02*
X194951100Y-140392200D01*
X179351100Y-140392200D02*
X180851100Y-140392200D01*
X194951100Y-128327200D02*
X194951100Y-126422200D01*
X194951100Y-126422200D02*
X193501100Y-126422200D01*
X179351100Y-126422200D02*
X179351100Y-128327200D01*
X180851100Y-126422200D02*
X179351100Y-126422200D01*
X179351100Y-138487200D02*
X179351100Y-140392200D01*
X194951100Y-140392200D02*
X194951100Y-138487200D01*
%TO.C,S10*%
X155351100Y-121338600D02*
X156851100Y-121338600D01*
X141251100Y-119433600D02*
X141251100Y-121338600D01*
X156851100Y-109273600D02*
X156851100Y-107368600D01*
X156851100Y-107368600D02*
X155401100Y-107368600D01*
X141251100Y-107368600D02*
X141251100Y-109273600D01*
X142751100Y-107368600D02*
X141251100Y-107368600D01*
X156851100Y-121338600D02*
X156851100Y-119433600D01*
X141251100Y-121338600D02*
X142751100Y-121338600D01*
%TD*%
%LPC*%
D17*
%TO.C,J1*%
X113940000Y-105080000D03*
D18*
X111400000Y-105080000D03*
X108860000Y-105080000D03*
X106320000Y-105080000D03*
%TD*%
D19*
%TO.C,S17*%
X106799900Y-118743000D03*
X113302300Y-118743000D03*
X106799900Y-123264200D03*
X113302300Y-123264200D03*
%TD*%
D20*
%TO.C,REF\u002A\u002A*%
X138576100Y-124828600D03*
%TD*%
%TO.C,REF\u002A\u002A*%
X178576100Y-124828600D03*
%TD*%
D19*
%TO.C,B1*%
X102431100Y-72053600D03*
X102431100Y-74593600D03*
X102431100Y-77133600D03*
X102431100Y-79673600D03*
X102431100Y-82213600D03*
X102431100Y-84753600D03*
X102431100Y-87293600D03*
X102431100Y-89833600D03*
X102431100Y-92373600D03*
X102431100Y-94913600D03*
X102431100Y-97453600D03*
X102431100Y-99993600D03*
X117671100Y-99993600D03*
X117671100Y-97453600D03*
X117671100Y-94913600D03*
X117671100Y-92373600D03*
X117671100Y-89833600D03*
X117671100Y-87293600D03*
X117671100Y-84753600D03*
X117671100Y-82213600D03*
X117671100Y-79673600D03*
X117671100Y-77133600D03*
X117671100Y-74593600D03*
X117671100Y-72053600D03*
%TD*%
D21*
%TO.C,RE_3_1*%
X106720000Y-140600000D03*
D22*
X111720000Y-140600000D03*
X109220000Y-140600000D03*
D23*
X103620000Y-133100000D03*
X114820000Y-133100000D03*
D22*
X111720000Y-126100000D03*
X106720000Y-126100000D03*
%TD*%
D20*
%TO.C,REF\u002A\u002A*%
X138576100Y-84828600D03*
%TD*%
%TO.C,REF\u002A\u002A*%
X178576100Y-84828600D03*
%TD*%
D24*
%TO.C,S1*%
X130001100Y-76253600D03*
D25*
X124921100Y-76253600D03*
X135081100Y-76253600D03*
D26*
X132541100Y-71173600D03*
X126191100Y-73713600D03*
%TD*%
D27*
%TO.C,D10*%
X158750000Y-109220000D03*
X158750000Y-116840000D03*
%TD*%
D24*
%TO.C,S15*%
X168101100Y-133403600D03*
D25*
X163021100Y-133403600D03*
X173181100Y-133403600D03*
D26*
X170641100Y-128323600D03*
X164291100Y-130863600D03*
%TD*%
D25*
%TO.C,S8*%
X192231100Y-95303600D03*
X182071100Y-95303600D03*
D24*
X187151100Y-95303600D03*
D26*
X189691100Y-90223600D03*
X183341100Y-92763600D03*
%TD*%
D24*
%TO.C,S2*%
X149051100Y-76253600D03*
D25*
X154131100Y-76253600D03*
X143971100Y-76253600D03*
D26*
X151591100Y-71173600D03*
X145241100Y-73713600D03*
%TD*%
D27*
%TO.C,D8*%
X190961100Y-86360000D03*
X183341100Y-86360000D03*
%TD*%
%TO.C,D6*%
X158576100Y-90170000D03*
X158576100Y-97790000D03*
%TD*%
D25*
%TO.C,S4*%
X182071100Y-76253600D03*
X192231100Y-76253600D03*
D24*
X187151100Y-76253600D03*
D26*
X189691100Y-71173600D03*
X183341100Y-73713600D03*
%TD*%
D25*
%TO.C,S5*%
X135081100Y-95303600D03*
D24*
X130001100Y-95303600D03*
D25*
X124921100Y-95303600D03*
D26*
X132541100Y-90223600D03*
X126191100Y-92763600D03*
%TD*%
D27*
%TO.C,D4*%
X190961100Y-67310000D03*
X183341100Y-67310000D03*
%TD*%
D25*
%TO.C,S14*%
X143971100Y-133403600D03*
X154131100Y-133403600D03*
D24*
X149051100Y-133403600D03*
D26*
X151591100Y-128323600D03*
X145241100Y-130863600D03*
%TD*%
D24*
%TO.C,S11*%
X168101100Y-114353600D03*
D25*
X163021100Y-114353600D03*
X173181100Y-114353600D03*
D26*
X170641100Y-109273600D03*
X164291100Y-111813600D03*
%TD*%
D24*
%TO.C,S7*%
X168101100Y-95303600D03*
D25*
X163021100Y-95303600D03*
X173181100Y-95303600D03*
D26*
X170641100Y-90223600D03*
X164291100Y-92763600D03*
%TD*%
D25*
%TO.C,S6*%
X154131100Y-95303600D03*
D24*
X149051100Y-95303600D03*
D25*
X143971100Y-95303600D03*
D26*
X151591100Y-90223600D03*
X145241100Y-92763600D03*
%TD*%
D27*
%TO.C,D9*%
X139526100Y-109220000D03*
X139526100Y-116840000D03*
%TD*%
%TO.C,D11*%
X177626100Y-109220000D03*
X177626100Y-116840000D03*
%TD*%
%TO.C,D13*%
X139526100Y-128270000D03*
X139526100Y-135890000D03*
%TD*%
D25*
%TO.C,S12*%
X182071100Y-114353600D03*
D24*
X187151100Y-114353600D03*
D25*
X192231100Y-114353600D03*
D26*
X189691100Y-109273600D03*
X183341100Y-111813600D03*
%TD*%
D27*
%TO.C,D20*%
X119380000Y-128270000D03*
X119380000Y-135890000D03*
%TD*%
%TO.C,D7*%
X177626100Y-90170000D03*
X177626100Y-97790000D03*
%TD*%
D24*
%TO.C,S3*%
X168101100Y-76253600D03*
D25*
X173181100Y-76253600D03*
X163021100Y-76253600D03*
D26*
X170641100Y-71173600D03*
X164291100Y-73713600D03*
%TD*%
D27*
%TO.C,D5*%
X139526100Y-90170000D03*
X139526100Y-97790000D03*
%TD*%
%TO.C,D16*%
X190961100Y-124460000D03*
X183341100Y-124460000D03*
%TD*%
%TO.C,D14*%
X158576100Y-128270000D03*
X158576100Y-135890000D03*
%TD*%
%TO.C,D3*%
X177626100Y-71120000D03*
X177626100Y-78740000D03*
%TD*%
%TO.C,D15*%
X177626100Y-128270000D03*
X177626100Y-135890000D03*
%TD*%
D24*
%TO.C,S13*%
X130001100Y-133407200D03*
D25*
X124921100Y-133407200D03*
X135081100Y-133407200D03*
D26*
X132541100Y-128327200D03*
X126191100Y-130867200D03*
%TD*%
D25*
%TO.C,S9*%
X124921100Y-114353600D03*
X135081100Y-114353600D03*
D24*
X130001100Y-114353600D03*
D26*
X132541100Y-109273600D03*
X126191100Y-111813600D03*
%TD*%
D27*
%TO.C,D1*%
X139526100Y-71120000D03*
X139526100Y-78740000D03*
%TD*%
D25*
%TO.C,S16*%
X182071100Y-133407200D03*
X192231100Y-133407200D03*
D24*
X187151100Y-133407200D03*
D26*
X189691100Y-128327200D03*
X183341100Y-130867200D03*
%TD*%
D27*
%TO.C,D12*%
X190961100Y-105410000D03*
X183341100Y-105410000D03*
%TD*%
%TO.C,D2*%
X158576100Y-71120000D03*
X158576100Y-78740000D03*
%TD*%
D24*
%TO.C,S10*%
X149051100Y-114353600D03*
D25*
X143971100Y-114353600D03*
X154131100Y-114353600D03*
D26*
X151591100Y-109273600D03*
X145241100Y-111813600D03*
%TD*%
M02*
