M48
; DRILL file {KiCad (6.0.9)} date Fri Nov 11 18:48:37 2022
; FORMAT={-:-/ absolute / inch / decimal}
; #@! TF.CreationDate,2022-11-11T18:48:37-07:00
; #@! TF.GenerationSoftware,Kicad,Pcbnew,(6.0.9)
; #@! TF.FileFunction,Plated,1,2,PTH
FMAT,2
INCH
; #@! TA.AperFunction,Plated,PTH,ViaDrill
T1C0.0157
; #@! TA.AperFunction,Plated,PTH,ComponentDrill
T2C0.0354
; #@! TA.AperFunction,Plated,PTH,ComponentDrill
T3C0.0394
; #@! TA.AperFunction,Plated,PTH,ComponentDrill
T4C0.0400
; #@! TA.AperFunction,Plated,PTH,ComponentDrill
T5C0.0591
; #@! TA.AperFunction,Plated,PTH,ComponentDrill
T6C0.1201
%
G90
G05
T1
X4.339Y-3.2111
X4.339Y-3.6534
X4.45Y-3.45
X4.45Y-3.7
X4.7816Y-4.19
X4.85Y-3.0
X4.85Y-3.55
X4.85Y-3.75
X4.85Y-4.3
X4.85Y-4.5
X4.85Y-5.05
X4.92Y-4.73
X5.01Y-4.04
X5.6Y-3.0
X5.6Y-3.55
X5.6Y-3.75
X5.6Y-4.3
X5.6Y-4.5
X5.6Y-5.05
X6.35Y-3.0
X6.35Y-3.55
X6.35Y-3.75
X6.35Y-4.3
X6.35Y-4.5
X6.35Y-5.05
X6.35Y-5.25
X6.35Y-5.55
X7.1Y-3.0
X7.1Y-3.75
X7.1Y-4.5
X7.1Y-5.25
X7.1Y-5.6
X7.1029Y-3.5529
X7.1029Y-4.3029
X7.1029Y-5.0529
X7.49Y-3.87
X7.54Y-3.17
X7.54Y-4.67
X7.55Y-5.42
T2
X4.7Y-5.05
X4.7Y-5.35
X5.4932Y-2.8
X5.4932Y-3.1
X5.4932Y-3.55
X5.4932Y-3.85
X5.4932Y-4.3
X5.4932Y-4.6
X5.4932Y-5.05
X5.4932Y-5.35
X6.2432Y-2.8
X6.2432Y-3.1
X6.2432Y-3.55
X6.2432Y-3.85
X6.2432Y-5.05
X6.2432Y-5.35
X6.25Y-4.3
X6.25Y-4.6
X6.9932Y-2.8
X6.9932Y-3.1
X6.9932Y-3.55
X6.9932Y-3.85
X6.9932Y-4.3
X6.9932Y-4.6
X6.9932Y-5.05
X6.9932Y-5.35
X7.2182Y-2.65
X7.2182Y-3.4
X7.2182Y-4.15
X7.2182Y-4.9
X7.5182Y-2.65
X7.5182Y-3.4
X7.5182Y-4.15
X7.5182Y-4.9
T3
X4.1858Y-4.137
X4.2016Y-4.9646
X4.2016Y-5.5354
X4.2858Y-4.137
X4.3Y-5.5354
X4.3858Y-4.137
X4.3984Y-4.9646
X4.3984Y-5.5354
X4.4858Y-4.137
T4
X4.0327Y-2.8368
X4.0327Y-2.9368
X4.0327Y-3.0368
X4.0327Y-3.1368
X4.0327Y-3.2368
X4.0327Y-3.3368
X4.0327Y-3.4368
X4.0327Y-3.5368
X4.0327Y-3.6368
X4.0327Y-3.7368
X4.0327Y-3.8368
X4.0327Y-3.9368
X4.2047Y-4.6749
X4.2047Y-4.8529
X4.4607Y-4.6749
X4.4607Y-4.8529
X4.6327Y-2.8368
X4.6327Y-2.9368
X4.6327Y-3.0368
X4.6327Y-3.1368
X4.6327Y-3.2368
X4.6327Y-3.3368
X4.6327Y-3.4368
X4.6327Y-3.5368
X4.6327Y-3.6368
X4.6327Y-3.7368
X4.6327Y-3.8368
X4.6327Y-3.9368
T6
X4.9682Y-2.9021
X4.9682Y-3.6521
X4.9682Y-4.4021
X4.9682Y-5.1523
X5.2182Y-2.8021
X5.2182Y-3.5521
X5.2182Y-4.3021
X5.2182Y-5.0523
X5.7182Y-2.9021
X5.7182Y-3.6521
X5.7182Y-4.4021
X5.7182Y-5.1521
X5.9682Y-2.8021
X5.9682Y-3.5521
X5.9682Y-4.3021
X5.9682Y-5.0521
X6.4682Y-2.9021
X6.4682Y-3.6521
X6.4682Y-4.4021
X6.4682Y-5.1521
X6.7182Y-2.8021
X6.7182Y-3.5521
X6.7182Y-4.3021
X6.7182Y-5.0521
X7.2182Y-2.9021
X7.2182Y-3.6521
X7.2182Y-4.4021
X7.2182Y-5.1523
X7.4682Y-2.8021
X7.4682Y-3.5521
X7.4682Y-4.3021
X7.4682Y-5.0523
T5
G00X4.0795Y-5.2657
M15
G01X4.0795Y-5.2146
M16
G05
G00X4.5205Y-5.2657
M15
G01X4.5205Y-5.2146
M16
G05
T0
M30
