M48
; DRILL file {KiCad (6.0.9)} date Fri Nov 11 18:48:37 2022
; FORMAT={-:-/ absolute / inch / decimal}
; #@! TF.CreationDate,2022-11-11T18:48:37-07:00
; #@! TF.GenerationSoftware,Kicad,Pcbnew,(6.0.9)
; #@! TF.FileFunction,NonPlated,1,2,NPTH
FMAT,2
INCH
; #@! TA.AperFunction,NonPlated,NPTH,ComponentDrill
T1C0.0669
; #@! TA.AperFunction,NonPlated,NPTH,ComponentDrill
T2C0.0827
; #@! TA.AperFunction,NonPlated,NPTH,ComponentDrill
T3C0.1614
%
G90
G05
T1
X4.9182Y-3.0021
X4.9182Y-3.7521
X4.9182Y-4.5021
X4.9182Y-5.2523
X5.3182Y-3.0021
X5.3182Y-3.7521
X5.3182Y-4.5021
X5.3182Y-5.2523
X5.6682Y-3.0021
X5.6682Y-3.7521
X5.6682Y-4.5021
X5.6682Y-5.2521
X6.0682Y-3.0021
X6.0682Y-3.7521
X6.0682Y-4.5021
X6.0682Y-5.2521
X6.4182Y-3.0021
X6.4182Y-3.7521
X6.4182Y-4.5021
X6.4182Y-5.2521
X6.8182Y-3.0021
X6.8182Y-3.7521
X6.8182Y-4.5021
X6.8182Y-5.2521
X7.1682Y-3.0021
X7.1682Y-3.7521
X7.1682Y-4.5021
X7.1682Y-5.2523
X7.5682Y-3.0021
X7.5682Y-3.7521
X7.5682Y-4.5021
X7.5682Y-5.2523
T2
X5.4558Y-3.3397
X5.4558Y-4.9145
X7.0306Y-3.3397
X7.0306Y-4.9145
T3
X5.1182Y-3.0021
X5.1182Y-3.7521
X5.1182Y-4.5021
X5.1182Y-5.2523
X5.8682Y-3.0021
X5.8682Y-3.7521
X5.8682Y-4.5021
X5.8682Y-5.2521
X6.6182Y-3.0021
X6.6182Y-3.7521
X6.6182Y-4.5021
X6.6182Y-5.2521
X7.3682Y-3.0021
X7.3682Y-3.7521
X7.3682Y-4.5021
X7.3682Y-5.2523
T0
M30
