%TF.GenerationSoftware,KiCad,Pcbnew,(6.0.9)*%
%TF.CreationDate,2022-11-11T18:48:27-07:00*%
%TF.ProjectId,dumbpad,64756d62-7061-4642-9e6b-696361645f70,rev?*%
%TF.SameCoordinates,Original*%
%TF.FileFunction,Legend,Bot*%
%TF.FilePolarity,Positive*%
%FSLAX46Y46*%
G04 Gerber Fmt 4.6, Leading zero omitted, Abs format (unit mm)*
G04 Created by KiCad (PCBNEW (6.0.9)) date 2022-11-11 18:48:27*
%MOMM*%
%LPD*%
G01*
G04 APERTURE LIST*
G04 Aperture macros list*
%AMRoundRect*
0 Rectangle with rounded corners*
0 $1 Rounding radius*
0 $2 $3 $4 $5 $6 $7 $8 $9 X,Y pos of 4 corners*
0 Add a 4 corners polygon primitive as box body*
4,1,4,$2,$3,$4,$5,$6,$7,$8,$9,$2,$3,0*
0 Add four circle primitives for the rounded corners*
1,1,$1+$1,$2,$3*
1,1,$1+$1,$4,$5*
1,1,$1+$1,$6,$7*
1,1,$1+$1,$8,$9*
0 Add four rect primitives between the rounded corners*
20,1,$1+$1,$2,$3,$4,$5,0*
20,1,$1+$1,$4,$5,$6,$7,0*
20,1,$1+$1,$6,$7,$8,$9,0*
20,1,$1+$1,$8,$9,$2,$3,0*%
G04 Aperture macros list end*
%ADD10C,0.152400*%
%ADD11C,0.262500*%
%ADD12C,0.112500*%
%ADD13C,0.200000*%
%ADD14C,0.044867*%
%ADD15C,0.150000*%
%ADD16C,0.120000*%
%ADD17C,0.203200*%
%ADD18R,1.700000X1.700000*%
%ADD19O,1.700000X1.700000*%
%ADD20C,2.006600*%
%ADD21C,2.100000*%
%ADD22R,2.000000X2.000000*%
%ADD23C,2.000000*%
%ADD24R,2.000000X3.200000*%
%ADD25C,4.100000*%
%ADD26C,1.700000*%
%ADD27C,3.600000*%
%ADD28RoundRect,0.625000X1.125000X0.625000X-1.125000X0.625000X-1.125000X-0.625000X1.125000X-0.625000X0*%
%ADD29C,1.477000*%
%ADD30R,1.700000X1.000000*%
G04 APERTURE END LIST*
D10*
X106051100Y-68253600D02*
X114051100Y-68253600D01*
X114051100Y-68253600D02*
X119051100Y-68253600D01*
X106051100Y-66753600D02*
X114051100Y-66753600D01*
X101051100Y-68253600D02*
X106051100Y-68253600D01*
X119051100Y-68253600D02*
X119051100Y-101753600D01*
X106051100Y-68253600D02*
X106051100Y-66753600D01*
X114051100Y-66753600D02*
X114051100Y-68253600D01*
X119051100Y-101753600D02*
X101051100Y-101753600D01*
X101051100Y-101753600D02*
X101051100Y-68253600D01*
D11*
X115186516Y-69191100D02*
X115186516Y-70678600D01*
X115186516Y-69261933D02*
X115044850Y-69191100D01*
X114761516Y-69191100D01*
X114619850Y-69261933D01*
X114549016Y-69332766D01*
X114478183Y-69474433D01*
X114478183Y-69899433D01*
X114549016Y-70041100D01*
X114619850Y-70111933D01*
X114761516Y-70182766D01*
X115044850Y-70182766D01*
X115186516Y-70111933D01*
X113840683Y-70182766D02*
X113840683Y-69191100D01*
X113840683Y-69474433D02*
X113769850Y-69332766D01*
X113699016Y-69261933D01*
X113557350Y-69191100D01*
X113415683Y-69191100D01*
X112707350Y-70182766D02*
X112849016Y-70111933D01*
X112919850Y-70041100D01*
X112990683Y-69899433D01*
X112990683Y-69474433D01*
X112919850Y-69332766D01*
X112849016Y-69261933D01*
X112707350Y-69191100D01*
X112494850Y-69191100D01*
X112353183Y-69261933D01*
X112282350Y-69332766D01*
X112211516Y-69474433D01*
X112211516Y-69899433D01*
X112282350Y-70041100D01*
X112353183Y-70111933D01*
X112494850Y-70182766D01*
X112707350Y-70182766D01*
X110440683Y-70182766D02*
X110440683Y-69191100D01*
X110440683Y-69332766D02*
X110369850Y-69261933D01*
X110228183Y-69191100D01*
X110015683Y-69191100D01*
X109874016Y-69261933D01*
X109803183Y-69403600D01*
X109803183Y-70182766D01*
X109803183Y-69403600D02*
X109732350Y-69261933D01*
X109590683Y-69191100D01*
X109378183Y-69191100D01*
X109236516Y-69261933D01*
X109165683Y-69403600D01*
X109165683Y-70182766D01*
X108457350Y-70182766D02*
X108457350Y-69191100D01*
X108457350Y-68695266D02*
X108528183Y-68766100D01*
X108457350Y-68836933D01*
X108386516Y-68766100D01*
X108457350Y-68695266D01*
X108457350Y-68836933D01*
X107111516Y-70111933D02*
X107253183Y-70182766D01*
X107536516Y-70182766D01*
X107678183Y-70111933D01*
X107749016Y-70041100D01*
X107819850Y-69899433D01*
X107819850Y-69474433D01*
X107749016Y-69332766D01*
X107678183Y-69261933D01*
X107536516Y-69191100D01*
X107253183Y-69191100D01*
X107111516Y-69261933D01*
X106474016Y-70182766D02*
X106474016Y-69191100D01*
X106474016Y-69474433D02*
X106403183Y-69332766D01*
X106332350Y-69261933D01*
X106190683Y-69191100D01*
X106049016Y-69191100D01*
X105340683Y-70182766D02*
X105482350Y-70111933D01*
X105553183Y-70041100D01*
X105624016Y-69899433D01*
X105624016Y-69474433D01*
X105553183Y-69332766D01*
X105482350Y-69261933D01*
X105340683Y-69191100D01*
X105128183Y-69191100D01*
X104986516Y-69261933D01*
X104915683Y-69332766D01*
X104844850Y-69474433D01*
X104844850Y-69899433D01*
X104915683Y-70041100D01*
X104986516Y-70111933D01*
X105128183Y-70182766D01*
X105340683Y-70182766D01*
D12*
X104852796Y-90051278D02*
X104883153Y-90081635D01*
X104974225Y-90111992D01*
X105034939Y-90111992D01*
X105126010Y-90081635D01*
X105186725Y-90020921D01*
X105217082Y-89960207D01*
X105247439Y-89838778D01*
X105247439Y-89747707D01*
X105217082Y-89626278D01*
X105186725Y-89565564D01*
X105126010Y-89504850D01*
X105034939Y-89474492D01*
X104974225Y-89474492D01*
X104883153Y-89504850D01*
X104852796Y-89535207D01*
X104306367Y-89474492D02*
X104427796Y-89474492D01*
X104488510Y-89504850D01*
X104518867Y-89535207D01*
X104579582Y-89626278D01*
X104609939Y-89747707D01*
X104609939Y-89990564D01*
X104579582Y-90051278D01*
X104549225Y-90081635D01*
X104488510Y-90111992D01*
X104367082Y-90111992D01*
X104306367Y-90081635D01*
X104276010Y-90051278D01*
X104245653Y-89990564D01*
X104245653Y-89838778D01*
X104276010Y-89778064D01*
X104306367Y-89747707D01*
X104367082Y-89717350D01*
X104488510Y-89717350D01*
X104549225Y-89747707D01*
X104579582Y-89778064D01*
X104609939Y-89838778D01*
X105156367Y-94858064D02*
X104943867Y-94858064D01*
X104852796Y-95191992D02*
X105156367Y-95191992D01*
X105156367Y-94554492D01*
X104852796Y-94554492D01*
X104306367Y-94554492D02*
X104427796Y-94554492D01*
X104488510Y-94584850D01*
X104518867Y-94615207D01*
X104579582Y-94706278D01*
X104609939Y-94827707D01*
X104609939Y-95070564D01*
X104579582Y-95131278D01*
X104549225Y-95161635D01*
X104488510Y-95191992D01*
X104367082Y-95191992D01*
X104306367Y-95161635D01*
X104276010Y-95131278D01*
X104245653Y-95070564D01*
X104245653Y-94918778D01*
X104276010Y-94858064D01*
X104306367Y-94827707D01*
X104367082Y-94797350D01*
X104488510Y-94797350D01*
X104549225Y-94827707D01*
X104579582Y-94858064D01*
X104609939Y-94918778D01*
X115613689Y-94858064D02*
X115522617Y-94888421D01*
X115492260Y-94918778D01*
X115461903Y-94979492D01*
X115461903Y-95070564D01*
X115492260Y-95131278D01*
X115522617Y-95161635D01*
X115583332Y-95191992D01*
X115826189Y-95191992D01*
X115826189Y-94554492D01*
X115613689Y-94554492D01*
X115552975Y-94584850D01*
X115522617Y-94615207D01*
X115492260Y-94675921D01*
X115492260Y-94736635D01*
X115522617Y-94797350D01*
X115552975Y-94827707D01*
X115613689Y-94858064D01*
X115826189Y-94858064D01*
X115249403Y-94554492D02*
X114854760Y-94554492D01*
X115067260Y-94797350D01*
X114976189Y-94797350D01*
X114915475Y-94827707D01*
X114885117Y-94858064D01*
X114854760Y-94918778D01*
X114854760Y-95070564D01*
X114885117Y-95131278D01*
X114915475Y-95161635D01*
X114976189Y-95191992D01*
X115158332Y-95191992D01*
X115219046Y-95161635D01*
X115249403Y-95131278D01*
X115917260Y-79314492D02*
X115704760Y-79951992D01*
X115492260Y-79314492D01*
X114915475Y-79891278D02*
X114945832Y-79921635D01*
X115036903Y-79951992D01*
X115097617Y-79951992D01*
X115188689Y-79921635D01*
X115249403Y-79860921D01*
X115279760Y-79800207D01*
X115310117Y-79678778D01*
X115310117Y-79587707D01*
X115279760Y-79466278D01*
X115249403Y-79405564D01*
X115188689Y-79344850D01*
X115097617Y-79314492D01*
X115036903Y-79314492D01*
X114945832Y-79344850D01*
X114915475Y-79375207D01*
X114277975Y-79891278D02*
X114308332Y-79921635D01*
X114399403Y-79951992D01*
X114460117Y-79951992D01*
X114551189Y-79921635D01*
X114611903Y-79860921D01*
X114642260Y-79800207D01*
X114672617Y-79678778D01*
X114672617Y-79587707D01*
X114642260Y-79466278D01*
X114611903Y-79405564D01*
X114551189Y-79344850D01*
X114460117Y-79314492D01*
X114399403Y-79314492D01*
X114308332Y-79344850D01*
X114277975Y-79375207D01*
X115613689Y-87238064D02*
X115826189Y-87238064D01*
X115826189Y-87571992D02*
X115826189Y-86934492D01*
X115522617Y-86934492D01*
X115006546Y-86934492D02*
X115127975Y-86934492D01*
X115188689Y-86964850D01*
X115219046Y-86995207D01*
X115279760Y-87086278D01*
X115310117Y-87207707D01*
X115310117Y-87450564D01*
X115279760Y-87511278D01*
X115249403Y-87541635D01*
X115188689Y-87571992D01*
X115067260Y-87571992D01*
X115006546Y-87541635D01*
X114976189Y-87511278D01*
X114945832Y-87450564D01*
X114945832Y-87298778D01*
X114976189Y-87238064D01*
X115006546Y-87207707D01*
X115067260Y-87177350D01*
X115188689Y-87177350D01*
X115249403Y-87207707D01*
X115279760Y-87238064D01*
X115310117Y-87298778D01*
X105217082Y-92651992D02*
X105217082Y-92014492D01*
X105065296Y-92014492D01*
X104974225Y-92044850D01*
X104913510Y-92105564D01*
X104883153Y-92166278D01*
X104852796Y-92287707D01*
X104852796Y-92378778D01*
X104883153Y-92500207D01*
X104913510Y-92560921D01*
X104974225Y-92621635D01*
X105065296Y-92651992D01*
X105217082Y-92651992D01*
X104640296Y-92014492D02*
X104215296Y-92014492D01*
X104488510Y-92651992D01*
X115613689Y-89778064D02*
X115826189Y-89778064D01*
X115826189Y-90111992D02*
X115826189Y-89474492D01*
X115522617Y-89474492D01*
X115340475Y-89474492D02*
X114915475Y-89474492D01*
X115188689Y-90111992D01*
X105581367Y-79344850D02*
X105642082Y-79314492D01*
X105733153Y-79314492D01*
X105824225Y-79344850D01*
X105884939Y-79405564D01*
X105915296Y-79466278D01*
X105945653Y-79587707D01*
X105945653Y-79678778D01*
X105915296Y-79800207D01*
X105884939Y-79860921D01*
X105824225Y-79921635D01*
X105733153Y-79951992D01*
X105672439Y-79951992D01*
X105581367Y-79921635D01*
X105551010Y-79891278D01*
X105551010Y-79678778D01*
X105672439Y-79678778D01*
X105277796Y-79951992D02*
X105277796Y-79314492D01*
X104913510Y-79951992D01*
X104913510Y-79314492D01*
X104609939Y-79951992D02*
X104609939Y-79314492D01*
X104458153Y-79314492D01*
X104367082Y-79344850D01*
X104306367Y-79405564D01*
X104276010Y-79466278D01*
X104245653Y-79587707D01*
X104245653Y-79678778D01*
X104276010Y-79800207D01*
X104306367Y-79860921D01*
X104367082Y-79921635D01*
X104458153Y-79951992D01*
X104609939Y-79951992D01*
X115613689Y-99938064D02*
X115522617Y-99968421D01*
X115492260Y-99998778D01*
X115461903Y-100059492D01*
X115461903Y-100150564D01*
X115492260Y-100211278D01*
X115522617Y-100241635D01*
X115583332Y-100271992D01*
X115826189Y-100271992D01*
X115826189Y-99634492D01*
X115613689Y-99634492D01*
X115552975Y-99664850D01*
X115522617Y-99695207D01*
X115492260Y-99755921D01*
X115492260Y-99816635D01*
X115522617Y-99877350D01*
X115552975Y-99907707D01*
X115613689Y-99938064D01*
X115826189Y-99938064D01*
X114915475Y-99634492D02*
X115036903Y-99634492D01*
X115097617Y-99664850D01*
X115127975Y-99695207D01*
X115188689Y-99786278D01*
X115219046Y-99907707D01*
X115219046Y-100150564D01*
X115188689Y-100211278D01*
X115158332Y-100241635D01*
X115097617Y-100271992D01*
X114976189Y-100271992D01*
X114915475Y-100241635D01*
X114885117Y-100211278D01*
X114854760Y-100150564D01*
X114854760Y-99998778D01*
X114885117Y-99938064D01*
X114915475Y-99907707D01*
X114976189Y-99877350D01*
X115097617Y-99877350D01*
X115158332Y-99907707D01*
X115188689Y-99938064D01*
X115219046Y-99998778D01*
X105217082Y-87571992D02*
X105217082Y-86934492D01*
X105065296Y-86934492D01*
X104974225Y-86964850D01*
X104913510Y-87025564D01*
X104883153Y-87086278D01*
X104852796Y-87207707D01*
X104852796Y-87298778D01*
X104883153Y-87420207D01*
X104913510Y-87480921D01*
X104974225Y-87541635D01*
X105065296Y-87571992D01*
X105217082Y-87571992D01*
X104306367Y-87146992D02*
X104306367Y-87571992D01*
X104458153Y-86904135D02*
X104609939Y-87359492D01*
X104215296Y-87359492D01*
X105004582Y-99938064D02*
X104913510Y-99968421D01*
X104883153Y-99998778D01*
X104852796Y-100059492D01*
X104852796Y-100150564D01*
X104883153Y-100211278D01*
X104913510Y-100241635D01*
X104974225Y-100271992D01*
X105217082Y-100271992D01*
X105217082Y-99634492D01*
X105004582Y-99634492D01*
X104943867Y-99664850D01*
X104913510Y-99695207D01*
X104883153Y-99755921D01*
X104883153Y-99816635D01*
X104913510Y-99877350D01*
X104943867Y-99907707D01*
X105004582Y-99938064D01*
X105217082Y-99938064D01*
X104276010Y-99634492D02*
X104579582Y-99634492D01*
X104609939Y-99938064D01*
X104579582Y-99907707D01*
X104518867Y-99877350D01*
X104367082Y-99877350D01*
X104306367Y-99907707D01*
X104276010Y-99938064D01*
X104245653Y-99998778D01*
X104245653Y-100150564D01*
X104276010Y-100211278D01*
X104306367Y-100241635D01*
X104367082Y-100271992D01*
X104518867Y-100271992D01*
X104579582Y-100241635D01*
X104609939Y-100211278D01*
X115461903Y-77411992D02*
X115674403Y-77108421D01*
X115826189Y-77411992D02*
X115826189Y-76774492D01*
X115583332Y-76774492D01*
X115522617Y-76804850D01*
X115492260Y-76835207D01*
X115461903Y-76895921D01*
X115461903Y-76986992D01*
X115492260Y-77047707D01*
X115522617Y-77078064D01*
X115583332Y-77108421D01*
X115826189Y-77108421D01*
X115219046Y-77381635D02*
X115127975Y-77411992D01*
X114976189Y-77411992D01*
X114915475Y-77381635D01*
X114885117Y-77351278D01*
X114854760Y-77290564D01*
X114854760Y-77229850D01*
X114885117Y-77169135D01*
X114915475Y-77138778D01*
X114976189Y-77108421D01*
X115097617Y-77078064D01*
X115158332Y-77047707D01*
X115188689Y-77017350D01*
X115219046Y-76956635D01*
X115219046Y-76895921D01*
X115188689Y-76835207D01*
X115158332Y-76804850D01*
X115097617Y-76774492D01*
X114945832Y-76774492D01*
X114854760Y-76804850D01*
X114672617Y-76774492D02*
X114308332Y-76774492D01*
X114490475Y-77411992D02*
X114490475Y-76774492D01*
X115461903Y-72331992D02*
X115674403Y-72028421D01*
X115826189Y-72331992D02*
X115826189Y-71694492D01*
X115583332Y-71694492D01*
X115522617Y-71724850D01*
X115492260Y-71755207D01*
X115461903Y-71815921D01*
X115461903Y-71906992D01*
X115492260Y-71967707D01*
X115522617Y-71998064D01*
X115583332Y-72028421D01*
X115826189Y-72028421D01*
X115219046Y-72149850D02*
X114915475Y-72149850D01*
X115279760Y-72331992D02*
X115067260Y-71694492D01*
X114854760Y-72331992D01*
X114702975Y-71694492D02*
X114551189Y-72331992D01*
X114429760Y-71876635D01*
X114308332Y-72331992D01*
X114156546Y-71694492D01*
X115492260Y-74264850D02*
X115552975Y-74234492D01*
X115644046Y-74234492D01*
X115735117Y-74264850D01*
X115795832Y-74325564D01*
X115826189Y-74386278D01*
X115856546Y-74507707D01*
X115856546Y-74598778D01*
X115826189Y-74720207D01*
X115795832Y-74780921D01*
X115735117Y-74841635D01*
X115644046Y-74871992D01*
X115583332Y-74871992D01*
X115492260Y-74841635D01*
X115461903Y-74811278D01*
X115461903Y-74598778D01*
X115583332Y-74598778D01*
X115188689Y-74871992D02*
X115188689Y-74234492D01*
X114824403Y-74871992D01*
X114824403Y-74234492D01*
X114520832Y-74871992D02*
X114520832Y-74234492D01*
X114369046Y-74234492D01*
X114277975Y-74264850D01*
X114217260Y-74325564D01*
X114186903Y-74386278D01*
X114156546Y-74507707D01*
X114156546Y-74598778D01*
X114186903Y-74720207D01*
X114217260Y-74780921D01*
X114277975Y-74841635D01*
X114369046Y-74871992D01*
X114520832Y-74871992D01*
X105217082Y-72331992D02*
X105217082Y-71694492D01*
X105065296Y-71694492D01*
X104974225Y-71724850D01*
X104913510Y-71785564D01*
X104883153Y-71846278D01*
X104852796Y-71967707D01*
X104852796Y-72058778D01*
X104883153Y-72180207D01*
X104913510Y-72240921D01*
X104974225Y-72301635D01*
X105065296Y-72331992D01*
X105217082Y-72331992D01*
X104640296Y-71694492D02*
X104245653Y-71694492D01*
X104458153Y-71937350D01*
X104367082Y-71937350D01*
X104306367Y-71967707D01*
X104276010Y-71998064D01*
X104245653Y-72058778D01*
X104245653Y-72210564D01*
X104276010Y-72271278D01*
X104306367Y-72301635D01*
X104367082Y-72331992D01*
X104549225Y-72331992D01*
X104609939Y-72301635D01*
X104640296Y-72271278D01*
X105217082Y-85031992D02*
X105217082Y-84394492D01*
X105065296Y-84394492D01*
X104974225Y-84424850D01*
X104913510Y-84485564D01*
X104883153Y-84546278D01*
X104852796Y-84667707D01*
X104852796Y-84758778D01*
X104883153Y-84880207D01*
X104913510Y-84940921D01*
X104974225Y-85001635D01*
X105065296Y-85031992D01*
X105217082Y-85031992D01*
X104458153Y-84394492D02*
X104397439Y-84394492D01*
X104336725Y-84424850D01*
X104306367Y-84455207D01*
X104276010Y-84515921D01*
X104245653Y-84637350D01*
X104245653Y-84789135D01*
X104276010Y-84910564D01*
X104306367Y-84971278D01*
X104336725Y-85001635D01*
X104397439Y-85031992D01*
X104458153Y-85031992D01*
X104518867Y-85001635D01*
X104549225Y-84971278D01*
X104579582Y-84910564D01*
X104609939Y-84789135D01*
X104609939Y-84637350D01*
X104579582Y-84515921D01*
X104549225Y-84455207D01*
X104518867Y-84424850D01*
X104458153Y-84394492D01*
X115613689Y-92318064D02*
X115522617Y-92348421D01*
X115492260Y-92378778D01*
X115461903Y-92439492D01*
X115461903Y-92530564D01*
X115492260Y-92591278D01*
X115522617Y-92621635D01*
X115583332Y-92651992D01*
X115826189Y-92651992D01*
X115826189Y-92014492D01*
X115613689Y-92014492D01*
X115552975Y-92044850D01*
X115522617Y-92075207D01*
X115492260Y-92135921D01*
X115492260Y-92196635D01*
X115522617Y-92257350D01*
X115552975Y-92287707D01*
X115613689Y-92318064D01*
X115826189Y-92318064D01*
X114854760Y-92651992D02*
X115219046Y-92651992D01*
X115036903Y-92651992D02*
X115036903Y-92014492D01*
X115097617Y-92105564D01*
X115158332Y-92166278D01*
X115219046Y-92196635D01*
X115613689Y-97398064D02*
X115522617Y-97428421D01*
X115492260Y-97458778D01*
X115461903Y-97519492D01*
X115461903Y-97610564D01*
X115492260Y-97671278D01*
X115522617Y-97701635D01*
X115583332Y-97731992D01*
X115826189Y-97731992D01*
X115826189Y-97094492D01*
X115613689Y-97094492D01*
X115552975Y-97124850D01*
X115522617Y-97155207D01*
X115492260Y-97215921D01*
X115492260Y-97276635D01*
X115522617Y-97337350D01*
X115552975Y-97367707D01*
X115613689Y-97398064D01*
X115826189Y-97398064D01*
X115219046Y-97155207D02*
X115188689Y-97124850D01*
X115127975Y-97094492D01*
X114976189Y-97094492D01*
X114915475Y-97124850D01*
X114885117Y-97155207D01*
X114854760Y-97215921D01*
X114854760Y-97276635D01*
X114885117Y-97367707D01*
X115249403Y-97731992D01*
X114854760Y-97731992D01*
X105217082Y-82491992D02*
X105217082Y-81854492D01*
X105065296Y-81854492D01*
X104974225Y-81884850D01*
X104913510Y-81945564D01*
X104883153Y-82006278D01*
X104852796Y-82127707D01*
X104852796Y-82218778D01*
X104883153Y-82340207D01*
X104913510Y-82400921D01*
X104974225Y-82461635D01*
X105065296Y-82491992D01*
X105217082Y-82491992D01*
X104245653Y-82491992D02*
X104609939Y-82491992D01*
X104427796Y-82491992D02*
X104427796Y-81854492D01*
X104488510Y-81945564D01*
X104549225Y-82006278D01*
X104609939Y-82036635D01*
D11*
X127142558Y-143307766D02*
X127142558Y-142316100D01*
X127142558Y-141820266D02*
X127213391Y-141891100D01*
X127142558Y-141961933D01*
X127071725Y-141891100D01*
X127142558Y-141820266D01*
X127142558Y-141961933D01*
X126434225Y-143307766D02*
X126434225Y-142316100D01*
X126434225Y-142457766D02*
X126363391Y-142386933D01*
X126221725Y-142316100D01*
X126009225Y-142316100D01*
X125867558Y-142386933D01*
X125796725Y-142528600D01*
X125796725Y-143307766D01*
X125796725Y-142528600D02*
X125725891Y-142386933D01*
X125584225Y-142316100D01*
X125371725Y-142316100D01*
X125230058Y-142386933D01*
X125159225Y-142528600D01*
X125159225Y-143307766D01*
X123813391Y-143236933D02*
X123955058Y-143307766D01*
X124238391Y-143307766D01*
X124380058Y-143236933D01*
X124450891Y-143166100D01*
X124521725Y-143024433D01*
X124521725Y-142599433D01*
X124450891Y-142457766D01*
X124380058Y-142386933D01*
X124238391Y-142316100D01*
X123955058Y-142316100D01*
X123813391Y-142386933D01*
X123175891Y-143307766D02*
X123175891Y-141820266D01*
X122538391Y-143307766D02*
X122538391Y-142528600D01*
X122609225Y-142386933D01*
X122750891Y-142316100D01*
X122963391Y-142316100D01*
X123105058Y-142386933D01*
X123175891Y-142457766D01*
X121830058Y-143307766D02*
X121830058Y-142316100D01*
X121830058Y-141820266D02*
X121900891Y-141891100D01*
X121830058Y-141961933D01*
X121759225Y-141891100D01*
X121830058Y-141820266D01*
X121830058Y-141961933D01*
X121121725Y-142316100D02*
X121121725Y-143803600D01*
X121121725Y-142386933D02*
X120980058Y-142316100D01*
X120696725Y-142316100D01*
X120555058Y-142386933D01*
X120484225Y-142457766D01*
X120413391Y-142599433D01*
X120413391Y-143024433D01*
X120484225Y-143166100D01*
X120555058Y-143236933D01*
X120696725Y-143307766D01*
X120980058Y-143307766D01*
X121121725Y-143236933D01*
X119917558Y-142316100D02*
X119634225Y-143307766D01*
X119350891Y-142599433D01*
X119067558Y-143307766D01*
X118784225Y-142316100D01*
X118005058Y-143307766D02*
X118146725Y-143236933D01*
X118217558Y-143166100D01*
X118288391Y-143024433D01*
X118288391Y-142599433D01*
X118217558Y-142457766D01*
X118146725Y-142386933D01*
X118005058Y-142316100D01*
X117792558Y-142316100D01*
X117650891Y-142386933D01*
X117580058Y-142457766D01*
X117509225Y-142599433D01*
X117509225Y-143024433D01*
X117580058Y-143166100D01*
X117650891Y-143236933D01*
X117792558Y-143307766D01*
X118005058Y-143307766D01*
X116659225Y-143307766D02*
X116800891Y-143236933D01*
X116871725Y-143166100D01*
X116942558Y-143024433D01*
X116942558Y-142599433D01*
X116871725Y-142457766D01*
X116800891Y-142386933D01*
X116659225Y-142316100D01*
X116446725Y-142316100D01*
X116305058Y-142386933D01*
X116234225Y-142457766D01*
X116163391Y-142599433D01*
X116163391Y-143024433D01*
X116234225Y-143166100D01*
X116305058Y-143236933D01*
X116446725Y-143307766D01*
X116659225Y-143307766D01*
X114888391Y-143307766D02*
X114888391Y-141820266D01*
X114888391Y-143236933D02*
X115030058Y-143307766D01*
X115313391Y-143307766D01*
X115455058Y-143236933D01*
X115525891Y-143166100D01*
X115596725Y-143024433D01*
X115596725Y-142599433D01*
X115525891Y-142457766D01*
X115455058Y-142386933D01*
X115313391Y-142316100D01*
X115030058Y-142316100D01*
X114888391Y-142386933D01*
X113188391Y-143307766D02*
X112409225Y-142316100D01*
X113188391Y-142316100D02*
X112409225Y-143307766D01*
X110071725Y-143307766D02*
X110071725Y-141820266D01*
X110071725Y-143236933D02*
X110213391Y-143307766D01*
X110496725Y-143307766D01*
X110638391Y-143236933D01*
X110709225Y-143166100D01*
X110780058Y-143024433D01*
X110780058Y-142599433D01*
X110709225Y-142457766D01*
X110638391Y-142386933D01*
X110496725Y-142316100D01*
X110213391Y-142316100D01*
X110071725Y-142386933D01*
X108796725Y-143236933D02*
X108938391Y-143307766D01*
X109221725Y-143307766D01*
X109363391Y-143236933D01*
X109434225Y-143095266D01*
X109434225Y-142528600D01*
X109363391Y-142386933D01*
X109221725Y-142316100D01*
X108938391Y-142316100D01*
X108796725Y-142386933D01*
X108725891Y-142528600D01*
X108725891Y-142670266D01*
X109434225Y-142811933D01*
X108230058Y-142316100D02*
X107875891Y-143307766D01*
X107521725Y-142316100D01*
X106388391Y-143236933D02*
X106530058Y-143307766D01*
X106813391Y-143307766D01*
X106955058Y-143236933D01*
X107025891Y-143095266D01*
X107025891Y-142528600D01*
X106955058Y-142386933D01*
X106813391Y-142316100D01*
X106530058Y-142316100D01*
X106388391Y-142386933D01*
X106317558Y-142528600D01*
X106317558Y-142670266D01*
X107025891Y-142811933D01*
X105892558Y-142316100D02*
X105325891Y-142316100D01*
X105680058Y-141820266D02*
X105680058Y-143095266D01*
X105609225Y-143236933D01*
X105467558Y-143307766D01*
X105325891Y-143307766D01*
X104830058Y-143307766D02*
X104830058Y-141820266D01*
X104192558Y-143307766D02*
X104192558Y-142528600D01*
X104263391Y-142386933D01*
X104405058Y-142316100D01*
X104617558Y-142316100D01*
X104759225Y-142386933D01*
X104830058Y-142457766D01*
X103200891Y-141820266D02*
X103059225Y-141820266D01*
X102917558Y-141891100D01*
X102846725Y-141961933D01*
X102775891Y-142103600D01*
X102705058Y-142386933D01*
X102705058Y-142741100D01*
X102775891Y-143024433D01*
X102846725Y-143166100D01*
X102917558Y-143236933D01*
X103059225Y-143307766D01*
X103200891Y-143307766D01*
X103342558Y-143236933D01*
X103413391Y-143166100D01*
X103484225Y-143024433D01*
X103555058Y-142741100D01*
X103555058Y-142386933D01*
X103484225Y-142103600D01*
X103413391Y-141961933D01*
X103342558Y-141891100D01*
X103200891Y-141820266D01*
D12*
X105217082Y-74871992D02*
X105217082Y-74234492D01*
X105065296Y-74234492D01*
X104974225Y-74264850D01*
X104913510Y-74325564D01*
X104883153Y-74386278D01*
X104852796Y-74507707D01*
X104852796Y-74598778D01*
X104883153Y-74720207D01*
X104913510Y-74780921D01*
X104974225Y-74841635D01*
X105065296Y-74871992D01*
X105217082Y-74871992D01*
X104609939Y-74295207D02*
X104579582Y-74264850D01*
X104518867Y-74234492D01*
X104367082Y-74234492D01*
X104306367Y-74264850D01*
X104276010Y-74295207D01*
X104245653Y-74355921D01*
X104245653Y-74416635D01*
X104276010Y-74507707D01*
X104640296Y-74871992D01*
X104245653Y-74871992D01*
X115613689Y-84698064D02*
X115826189Y-84698064D01*
X115826189Y-85031992D02*
X115826189Y-84394492D01*
X115522617Y-84394492D01*
X114976189Y-84394492D02*
X115279760Y-84394492D01*
X115310117Y-84698064D01*
X115279760Y-84667707D01*
X115219046Y-84637350D01*
X115067260Y-84637350D01*
X115006546Y-84667707D01*
X114976189Y-84698064D01*
X114945832Y-84758778D01*
X114945832Y-84910564D01*
X114976189Y-84971278D01*
X115006546Y-85001635D01*
X115067260Y-85031992D01*
X115219046Y-85031992D01*
X115279760Y-85001635D01*
X115310117Y-84971278D01*
X105581367Y-76804850D02*
X105642082Y-76774492D01*
X105733153Y-76774492D01*
X105824225Y-76804850D01*
X105884939Y-76865564D01*
X105915296Y-76926278D01*
X105945653Y-77047707D01*
X105945653Y-77138778D01*
X105915296Y-77260207D01*
X105884939Y-77320921D01*
X105824225Y-77381635D01*
X105733153Y-77411992D01*
X105672439Y-77411992D01*
X105581367Y-77381635D01*
X105551010Y-77351278D01*
X105551010Y-77138778D01*
X105672439Y-77138778D01*
X105277796Y-77411992D02*
X105277796Y-76774492D01*
X104913510Y-77411992D01*
X104913510Y-76774492D01*
X104609939Y-77411992D02*
X104609939Y-76774492D01*
X104458153Y-76774492D01*
X104367082Y-76804850D01*
X104306367Y-76865564D01*
X104276010Y-76926278D01*
X104245653Y-77047707D01*
X104245653Y-77138778D01*
X104276010Y-77260207D01*
X104306367Y-77320921D01*
X104367082Y-77381635D01*
X104458153Y-77411992D01*
X104609939Y-77411992D01*
X105004582Y-97398064D02*
X104913510Y-97428421D01*
X104883153Y-97458778D01*
X104852796Y-97519492D01*
X104852796Y-97610564D01*
X104883153Y-97671278D01*
X104913510Y-97701635D01*
X104974225Y-97731992D01*
X105217082Y-97731992D01*
X105217082Y-97094492D01*
X105004582Y-97094492D01*
X104943867Y-97124850D01*
X104913510Y-97155207D01*
X104883153Y-97215921D01*
X104883153Y-97276635D01*
X104913510Y-97337350D01*
X104943867Y-97367707D01*
X105004582Y-97398064D01*
X105217082Y-97398064D01*
X104306367Y-97306992D02*
X104306367Y-97731992D01*
X104458153Y-97064135D02*
X104609939Y-97519492D01*
X104215296Y-97519492D01*
D11*
X193588808Y-143307766D02*
X193588808Y-141820266D01*
X193588808Y-143236933D02*
X193730475Y-143307766D01*
X194013808Y-143307766D01*
X194155475Y-143236933D01*
X194226308Y-143166100D01*
X194297141Y-143024433D01*
X194297141Y-142599433D01*
X194226308Y-142457766D01*
X194155475Y-142386933D01*
X194013808Y-142316100D01*
X193730475Y-142316100D01*
X193588808Y-142386933D01*
X192242975Y-142316100D02*
X192242975Y-143307766D01*
X192880475Y-142316100D02*
X192880475Y-143095266D01*
X192809641Y-143236933D01*
X192667975Y-143307766D01*
X192455475Y-143307766D01*
X192313808Y-143236933D01*
X192242975Y-143166100D01*
X191534641Y-143307766D02*
X191534641Y-142316100D01*
X191534641Y-142457766D02*
X191463808Y-142386933D01*
X191322141Y-142316100D01*
X191109641Y-142316100D01*
X190967975Y-142386933D01*
X190897141Y-142528600D01*
X190897141Y-143307766D01*
X190897141Y-142528600D02*
X190826308Y-142386933D01*
X190684641Y-142316100D01*
X190472141Y-142316100D01*
X190330475Y-142386933D01*
X190259641Y-142528600D01*
X190259641Y-143307766D01*
X189551308Y-143307766D02*
X189551308Y-141820266D01*
X189551308Y-142386933D02*
X189409641Y-142316100D01*
X189126308Y-142316100D01*
X188984641Y-142386933D01*
X188913808Y-142457766D01*
X188842975Y-142599433D01*
X188842975Y-143024433D01*
X188913808Y-143166100D01*
X188984641Y-143236933D01*
X189126308Y-143307766D01*
X189409641Y-143307766D01*
X189551308Y-143236933D01*
X188205475Y-142316100D02*
X188205475Y-143803600D01*
X188205475Y-142386933D02*
X188063808Y-142316100D01*
X187780475Y-142316100D01*
X187638808Y-142386933D01*
X187567975Y-142457766D01*
X187497141Y-142599433D01*
X187497141Y-143024433D01*
X187567975Y-143166100D01*
X187638808Y-143236933D01*
X187780475Y-143307766D01*
X188063808Y-143307766D01*
X188205475Y-143236933D01*
X186222141Y-143307766D02*
X186222141Y-142528600D01*
X186292975Y-142386933D01*
X186434641Y-142316100D01*
X186717975Y-142316100D01*
X186859641Y-142386933D01*
X186222141Y-143236933D02*
X186363808Y-143307766D01*
X186717975Y-143307766D01*
X186859641Y-143236933D01*
X186930475Y-143095266D01*
X186930475Y-142953600D01*
X186859641Y-142811933D01*
X186717975Y-142741100D01*
X186363808Y-142741100D01*
X186222141Y-142670266D01*
X184876308Y-143307766D02*
X184876308Y-141820266D01*
X184876308Y-143236933D02*
X185017975Y-143307766D01*
X185301308Y-143307766D01*
X185442975Y-143236933D01*
X185513808Y-143166100D01*
X185584641Y-143024433D01*
X185584641Y-142599433D01*
X185513808Y-142457766D01*
X185442975Y-142386933D01*
X185301308Y-142316100D01*
X185017975Y-142316100D01*
X184876308Y-142386933D01*
X183034641Y-142741100D02*
X181901308Y-142741100D01*
X180059641Y-143307766D02*
X180059641Y-141820266D01*
X179422141Y-143307766D02*
X179422141Y-142528600D01*
X179492975Y-142386933D01*
X179634641Y-142316100D01*
X179847141Y-142316100D01*
X179988808Y-142386933D01*
X180059641Y-142457766D01*
X178501308Y-143307766D02*
X178642975Y-143236933D01*
X178713808Y-143166100D01*
X178784641Y-143024433D01*
X178784641Y-142599433D01*
X178713808Y-142457766D01*
X178642975Y-142386933D01*
X178501308Y-142316100D01*
X178288808Y-142316100D01*
X178147141Y-142386933D01*
X178076308Y-142457766D01*
X178005475Y-142599433D01*
X178005475Y-143024433D01*
X178076308Y-143166100D01*
X178147141Y-143236933D01*
X178288808Y-143307766D01*
X178501308Y-143307766D01*
X177580475Y-142316100D02*
X177013808Y-142316100D01*
X177367975Y-141820266D02*
X177367975Y-143095266D01*
X177297141Y-143236933D01*
X177155475Y-143307766D01*
X177013808Y-143307766D01*
X176588808Y-143236933D02*
X176447141Y-143307766D01*
X176163808Y-143307766D01*
X176022141Y-143236933D01*
X175951308Y-143095266D01*
X175951308Y-143024433D01*
X176022141Y-142882766D01*
X176163808Y-142811933D01*
X176376308Y-142811933D01*
X176517975Y-142741100D01*
X176588808Y-142599433D01*
X176588808Y-142528600D01*
X176517975Y-142386933D01*
X176376308Y-142316100D01*
X176163808Y-142316100D01*
X176022141Y-142386933D01*
X175455475Y-142316100D02*
X175172141Y-143307766D01*
X174888808Y-142599433D01*
X174605475Y-143307766D01*
X174322141Y-142316100D01*
X173117975Y-143307766D02*
X173117975Y-142528600D01*
X173188808Y-142386933D01*
X173330475Y-142316100D01*
X173613808Y-142316100D01*
X173755475Y-142386933D01*
X173117975Y-143236933D02*
X173259641Y-143307766D01*
X173613808Y-143307766D01*
X173755475Y-143236933D01*
X173826308Y-143095266D01*
X173826308Y-142953600D01*
X173755475Y-142811933D01*
X173613808Y-142741100D01*
X173259641Y-142741100D01*
X173117975Y-142670266D01*
X172409641Y-142316100D02*
X172409641Y-143803600D01*
X172409641Y-142386933D02*
X172267975Y-142316100D01*
X171984641Y-142316100D01*
X171842975Y-142386933D01*
X171772141Y-142457766D01*
X171701308Y-142599433D01*
X171701308Y-143024433D01*
X171772141Y-143166100D01*
X171842975Y-143236933D01*
X171984641Y-143307766D01*
X172267975Y-143307766D01*
X172409641Y-143236933D01*
X169930475Y-142741100D02*
X168797141Y-142741100D01*
X166955475Y-143307766D02*
X166955475Y-142316100D01*
X166955475Y-142599433D02*
X166884641Y-142457766D01*
X166813808Y-142386933D01*
X166672141Y-142316100D01*
X166530475Y-142316100D01*
X165397141Y-142316100D02*
X165397141Y-143520266D01*
X165467975Y-143661933D01*
X165538808Y-143732766D01*
X165680475Y-143803600D01*
X165892975Y-143803600D01*
X166034641Y-143732766D01*
X165397141Y-143236933D02*
X165538808Y-143307766D01*
X165822141Y-143307766D01*
X165963808Y-143236933D01*
X166034641Y-143166100D01*
X166105475Y-143024433D01*
X166105475Y-142599433D01*
X166034641Y-142457766D01*
X165963808Y-142386933D01*
X165822141Y-142316100D01*
X165538808Y-142316100D01*
X165397141Y-142386933D01*
X164688808Y-143307766D02*
X164688808Y-141820266D01*
X164688808Y-142386933D02*
X164547141Y-142316100D01*
X164263808Y-142316100D01*
X164122141Y-142386933D01*
X164051308Y-142457766D01*
X163980475Y-142599433D01*
X163980475Y-143024433D01*
X164051308Y-143166100D01*
X164122141Y-143236933D01*
X164263808Y-143307766D01*
X164547141Y-143307766D01*
X164688808Y-143236933D01*
D12*
X115613689Y-82158064D02*
X115826189Y-82158064D01*
X115826189Y-82491992D02*
X115826189Y-81854492D01*
X115522617Y-81854492D01*
X115006546Y-82066992D02*
X115006546Y-82491992D01*
X115158332Y-81824135D02*
X115310117Y-82279492D01*
X114915475Y-82279492D01*
D13*
%TO.C,S1*%
X130893004Y-68558361D02*
X130750147Y-68605980D01*
X130512052Y-68605980D01*
X130416814Y-68558361D01*
X130369195Y-68510742D01*
X130321576Y-68415504D01*
X130321576Y-68320266D01*
X130369195Y-68225028D01*
X130416814Y-68177409D01*
X130512052Y-68129790D01*
X130702528Y-68082171D01*
X130797766Y-68034552D01*
X130845385Y-67986933D01*
X130893004Y-67891695D01*
X130893004Y-67796457D01*
X130845385Y-67701219D01*
X130797766Y-67653600D01*
X130702528Y-67605980D01*
X130464433Y-67605980D01*
X130321576Y-67653600D01*
X129369195Y-68605980D02*
X129940623Y-68605980D01*
X129654909Y-68605980D02*
X129654909Y-67605980D01*
X129750147Y-67748838D01*
X129845385Y-67844076D01*
X129940623Y-67891695D01*
D14*
%TO.C,D10*%
X159259474Y-111161623D02*
X158694741Y-111161623D01*
X158694741Y-111296084D01*
X158721633Y-111376760D01*
X158775417Y-111430544D01*
X158829201Y-111457436D01*
X158936769Y-111484328D01*
X159017446Y-111484328D01*
X159125014Y-111457436D01*
X159178798Y-111430544D01*
X159232582Y-111376760D01*
X159259474Y-111296084D01*
X159259474Y-111161623D01*
X159259474Y-111726356D02*
X158694741Y-111726356D01*
X158694741Y-112102845D02*
X158694741Y-112210413D01*
X158721633Y-112264197D01*
X158775417Y-112317981D01*
X158882985Y-112344873D01*
X159071230Y-112344873D01*
X159178798Y-112317981D01*
X159232582Y-112264197D01*
X159259474Y-112210413D01*
X159259474Y-112102845D01*
X159232582Y-112049061D01*
X159178798Y-111995277D01*
X159071230Y-111968385D01*
X158882985Y-111968385D01*
X158775417Y-111995277D01*
X158721633Y-112049061D01*
X158694741Y-112102845D01*
X159259474Y-112586902D02*
X158694741Y-112586902D01*
X158694741Y-112721362D01*
X158721633Y-112802038D01*
X158775417Y-112855822D01*
X158829201Y-112882714D01*
X158936769Y-112909606D01*
X159017446Y-112909606D01*
X159125014Y-112882714D01*
X159178798Y-112855822D01*
X159232582Y-112802038D01*
X159259474Y-112721362D01*
X159259474Y-112586902D01*
X158963661Y-113151635D02*
X158963661Y-113339879D01*
X159259474Y-113420555D02*
X159259474Y-113151635D01*
X158694741Y-113151635D01*
X158694741Y-113420555D01*
X159259474Y-113662584D02*
X158694741Y-113662584D01*
X158694741Y-113797044D01*
X158721633Y-113877720D01*
X158775417Y-113931504D01*
X158829201Y-113958396D01*
X158936769Y-113985288D01*
X159017446Y-113985288D01*
X159125014Y-113958396D01*
X159178798Y-113931504D01*
X159232582Y-113877720D01*
X159259474Y-113797044D01*
X159259474Y-113662584D01*
X158694741Y-114334885D02*
X158694741Y-114442453D01*
X158721633Y-114496237D01*
X158775417Y-114550021D01*
X158882985Y-114576913D01*
X159071230Y-114576913D01*
X159178798Y-114550021D01*
X159232582Y-114496237D01*
X159259474Y-114442453D01*
X159259474Y-114334885D01*
X159232582Y-114281101D01*
X159178798Y-114227317D01*
X159071230Y-114200425D01*
X158882985Y-114200425D01*
X158775417Y-114227317D01*
X158721633Y-114281101D01*
X158694741Y-114334885D01*
X159044338Y-114818942D02*
X159044338Y-115249215D01*
X159259474Y-115813948D02*
X159259474Y-115491243D01*
X159259474Y-115652595D02*
X158694741Y-115652595D01*
X158775417Y-115598811D01*
X158829201Y-115545027D01*
X158856093Y-115491243D01*
X159259474Y-116055976D02*
X158694741Y-116055976D01*
X159259474Y-116378681D01*
X158694741Y-116378681D01*
X158882985Y-116889629D02*
X159259474Y-116889629D01*
X158667849Y-116755169D02*
X159071230Y-116620709D01*
X159071230Y-116970306D01*
X159259474Y-117481254D02*
X159259474Y-117158550D01*
X159259474Y-117319902D02*
X158694741Y-117319902D01*
X158775417Y-117266118D01*
X158829201Y-117212334D01*
X158856093Y-117158550D01*
X158882985Y-117965311D02*
X159259474Y-117965311D01*
X158667849Y-117830851D02*
X159071230Y-117696391D01*
X159071230Y-118045987D01*
X158936769Y-118341800D02*
X158909877Y-118288016D01*
X158882985Y-118261124D01*
X158829201Y-118234232D01*
X158802309Y-118234232D01*
X158748525Y-118261124D01*
X158721633Y-118288016D01*
X158694741Y-118341800D01*
X158694741Y-118449368D01*
X158721633Y-118503152D01*
X158748525Y-118530044D01*
X158802309Y-118556936D01*
X158829201Y-118556936D01*
X158882985Y-118530044D01*
X158909877Y-118503152D01*
X158936769Y-118449368D01*
X158936769Y-118341800D01*
X158963661Y-118288016D01*
X158990553Y-118261124D01*
X159044338Y-118234232D01*
X159151906Y-118234232D01*
X159205690Y-118261124D01*
X159232582Y-118288016D01*
X159259474Y-118341800D01*
X159259474Y-118449368D01*
X159232582Y-118503152D01*
X159205690Y-118530044D01*
X159151906Y-118556936D01*
X159044338Y-118556936D01*
X158990553Y-118530044D01*
X158963661Y-118503152D01*
X158936769Y-118449368D01*
D15*
%TO.C,LED7*%
X156630147Y-99944880D02*
X157106338Y-99944880D01*
X157106338Y-98944880D01*
X156296814Y-99421071D02*
X155963480Y-99421071D01*
X155820623Y-99944880D02*
X156296814Y-99944880D01*
X156296814Y-98944880D01*
X155820623Y-98944880D01*
X155392052Y-99944880D02*
X155392052Y-98944880D01*
X155153957Y-98944880D01*
X155011100Y-98992500D01*
X154915861Y-99087738D01*
X154868242Y-99182976D01*
X154820623Y-99373452D01*
X154820623Y-99516309D01*
X154868242Y-99706785D01*
X154915861Y-99802023D01*
X155011100Y-99897261D01*
X155153957Y-99944880D01*
X155392052Y-99944880D01*
X154487290Y-98944880D02*
X153820623Y-98944880D01*
X154249195Y-99944880D01*
X152265385Y-99907380D02*
X152836814Y-99907380D01*
X152551100Y-99907380D02*
X152551100Y-98907380D01*
X152646338Y-99050238D01*
X152741576Y-99145476D01*
X152836814Y-99193095D01*
D13*
%TO.C,S15*%
X169469195Y-125708361D02*
X169326338Y-125755980D01*
X169088242Y-125755980D01*
X168993004Y-125708361D01*
X168945385Y-125660742D01*
X168897766Y-125565504D01*
X168897766Y-125470266D01*
X168945385Y-125375028D01*
X168993004Y-125327409D01*
X169088242Y-125279790D01*
X169278719Y-125232171D01*
X169373957Y-125184552D01*
X169421576Y-125136933D01*
X169469195Y-125041695D01*
X169469195Y-124946457D01*
X169421576Y-124851219D01*
X169373957Y-124803600D01*
X169278719Y-124755980D01*
X169040623Y-124755980D01*
X168897766Y-124803600D01*
X167945385Y-125755980D02*
X168516814Y-125755980D01*
X168231100Y-125755980D02*
X168231100Y-124755980D01*
X168326338Y-124898838D01*
X168421576Y-124994076D01*
X168516814Y-125041695D01*
X167040623Y-124755980D02*
X167516814Y-124755980D01*
X167564433Y-125232171D01*
X167516814Y-125184552D01*
X167421576Y-125136933D01*
X167183480Y-125136933D01*
X167088242Y-125184552D01*
X167040623Y-125232171D01*
X166993004Y-125327409D01*
X166993004Y-125565504D01*
X167040623Y-125660742D01*
X167088242Y-125708361D01*
X167183480Y-125755980D01*
X167421576Y-125755980D01*
X167516814Y-125708361D01*
X167564433Y-125660742D01*
%TO.C,S8*%
X188043004Y-87608361D02*
X187900147Y-87655980D01*
X187662052Y-87655980D01*
X187566814Y-87608361D01*
X187519195Y-87560742D01*
X187471576Y-87465504D01*
X187471576Y-87370266D01*
X187519195Y-87275028D01*
X187566814Y-87227409D01*
X187662052Y-87179790D01*
X187852528Y-87132171D01*
X187947766Y-87084552D01*
X187995385Y-87036933D01*
X188043004Y-86941695D01*
X188043004Y-86846457D01*
X187995385Y-86751219D01*
X187947766Y-86703600D01*
X187852528Y-86655980D01*
X187614433Y-86655980D01*
X187471576Y-86703600D01*
X186900147Y-87084552D02*
X186995385Y-87036933D01*
X187043004Y-86989314D01*
X187090623Y-86894076D01*
X187090623Y-86846457D01*
X187043004Y-86751219D01*
X186995385Y-86703600D01*
X186900147Y-86655980D01*
X186709671Y-86655980D01*
X186614433Y-86703600D01*
X186566814Y-86751219D01*
X186519195Y-86846457D01*
X186519195Y-86894076D01*
X186566814Y-86989314D01*
X186614433Y-87036933D01*
X186709671Y-87084552D01*
X186900147Y-87084552D01*
X186995385Y-87132171D01*
X187043004Y-87179790D01*
X187090623Y-87275028D01*
X187090623Y-87465504D01*
X187043004Y-87560742D01*
X186995385Y-87608361D01*
X186900147Y-87655980D01*
X186709671Y-87655980D01*
X186614433Y-87608361D01*
X186566814Y-87560742D01*
X186519195Y-87465504D01*
X186519195Y-87275028D01*
X186566814Y-87179790D01*
X186614433Y-87132171D01*
X186709671Y-87084552D01*
%TO.C,S2*%
X149943004Y-68558361D02*
X149800147Y-68605980D01*
X149562052Y-68605980D01*
X149466814Y-68558361D01*
X149419195Y-68510742D01*
X149371576Y-68415504D01*
X149371576Y-68320266D01*
X149419195Y-68225028D01*
X149466814Y-68177409D01*
X149562052Y-68129790D01*
X149752528Y-68082171D01*
X149847766Y-68034552D01*
X149895385Y-67986933D01*
X149943004Y-67891695D01*
X149943004Y-67796457D01*
X149895385Y-67701219D01*
X149847766Y-67653600D01*
X149752528Y-67605980D01*
X149514433Y-67605980D01*
X149371576Y-67653600D01*
X148990623Y-67701219D02*
X148943004Y-67653600D01*
X148847766Y-67605980D01*
X148609671Y-67605980D01*
X148514433Y-67653600D01*
X148466814Y-67701219D01*
X148419195Y-67796457D01*
X148419195Y-67891695D01*
X148466814Y-68034552D01*
X149038242Y-68605980D01*
X148419195Y-68605980D01*
D14*
%TO.C,D8*%
X189019476Y-86869474D02*
X189019476Y-86304741D01*
X188885015Y-86304741D01*
X188804339Y-86331633D01*
X188750555Y-86385417D01*
X188723663Y-86439201D01*
X188696771Y-86546769D01*
X188696771Y-86627446D01*
X188723663Y-86735014D01*
X188750555Y-86788798D01*
X188804339Y-86842582D01*
X188885015Y-86869474D01*
X189019476Y-86869474D01*
X188454743Y-86869474D02*
X188454743Y-86304741D01*
X188078254Y-86304741D02*
X187970686Y-86304741D01*
X187916902Y-86331633D01*
X187863118Y-86385417D01*
X187836226Y-86492985D01*
X187836226Y-86681230D01*
X187863118Y-86788798D01*
X187916902Y-86842582D01*
X187970686Y-86869474D01*
X188078254Y-86869474D01*
X188132038Y-86842582D01*
X188185822Y-86788798D01*
X188212714Y-86681230D01*
X188212714Y-86492985D01*
X188185822Y-86385417D01*
X188132038Y-86331633D01*
X188078254Y-86304741D01*
X187594197Y-86869474D02*
X187594197Y-86304741D01*
X187459737Y-86304741D01*
X187379061Y-86331633D01*
X187325277Y-86385417D01*
X187298385Y-86439201D01*
X187271493Y-86546769D01*
X187271493Y-86627446D01*
X187298385Y-86735014D01*
X187325277Y-86788798D01*
X187379061Y-86842582D01*
X187459737Y-86869474D01*
X187594197Y-86869474D01*
X187029464Y-86573661D02*
X186841220Y-86573661D01*
X186760544Y-86869474D02*
X187029464Y-86869474D01*
X187029464Y-86304741D01*
X186760544Y-86304741D01*
X186518515Y-86869474D02*
X186518515Y-86304741D01*
X186384055Y-86304741D01*
X186303379Y-86331633D01*
X186249595Y-86385417D01*
X186222703Y-86439201D01*
X186195811Y-86546769D01*
X186195811Y-86627446D01*
X186222703Y-86735014D01*
X186249595Y-86788798D01*
X186303379Y-86842582D01*
X186384055Y-86869474D01*
X186518515Y-86869474D01*
X185846214Y-86304741D02*
X185738646Y-86304741D01*
X185684862Y-86331633D01*
X185631078Y-86385417D01*
X185604186Y-86492985D01*
X185604186Y-86681230D01*
X185631078Y-86788798D01*
X185684862Y-86842582D01*
X185738646Y-86869474D01*
X185846214Y-86869474D01*
X185899998Y-86842582D01*
X185953782Y-86788798D01*
X185980674Y-86681230D01*
X185980674Y-86492985D01*
X185953782Y-86385417D01*
X185899998Y-86331633D01*
X185846214Y-86304741D01*
X185362157Y-86654338D02*
X184931884Y-86654338D01*
X184367151Y-86869474D02*
X184689856Y-86869474D01*
X184528504Y-86869474D02*
X184528504Y-86304741D01*
X184582288Y-86385417D01*
X184636072Y-86439201D01*
X184689856Y-86466093D01*
X184125123Y-86869474D02*
X184125123Y-86304741D01*
X183802418Y-86869474D01*
X183802418Y-86304741D01*
X183291470Y-86492985D02*
X183291470Y-86869474D01*
X183425930Y-86277849D02*
X183560390Y-86681230D01*
X183210793Y-86681230D01*
X182699845Y-86869474D02*
X183022549Y-86869474D01*
X182861197Y-86869474D02*
X182861197Y-86304741D01*
X182914981Y-86385417D01*
X182968765Y-86439201D01*
X183022549Y-86466093D01*
X182215788Y-86492985D02*
X182215788Y-86869474D01*
X182350248Y-86277849D02*
X182484708Y-86681230D01*
X182135112Y-86681230D01*
X181839299Y-86546769D02*
X181893083Y-86519877D01*
X181919975Y-86492985D01*
X181946867Y-86439201D01*
X181946867Y-86412309D01*
X181919975Y-86358525D01*
X181893083Y-86331633D01*
X181839299Y-86304741D01*
X181731731Y-86304741D01*
X181677947Y-86331633D01*
X181651055Y-86358525D01*
X181624163Y-86412309D01*
X181624163Y-86439201D01*
X181651055Y-86492985D01*
X181677947Y-86519877D01*
X181731731Y-86546769D01*
X181839299Y-86546769D01*
X181893083Y-86573661D01*
X181919975Y-86600553D01*
X181946867Y-86654338D01*
X181946867Y-86761906D01*
X181919975Y-86815690D01*
X181893083Y-86842582D01*
X181839299Y-86869474D01*
X181731731Y-86869474D01*
X181677947Y-86842582D01*
X181651055Y-86815690D01*
X181624163Y-86761906D01*
X181624163Y-86654338D01*
X181651055Y-86600553D01*
X181677947Y-86573661D01*
X181731731Y-86546769D01*
%TO.C,D6*%
X159085574Y-92111623D02*
X158520841Y-92111623D01*
X158520841Y-92246084D01*
X158547733Y-92326760D01*
X158601517Y-92380544D01*
X158655301Y-92407436D01*
X158762869Y-92434328D01*
X158843546Y-92434328D01*
X158951114Y-92407436D01*
X159004898Y-92380544D01*
X159058682Y-92326760D01*
X159085574Y-92246084D01*
X159085574Y-92111623D01*
X159085574Y-92676356D02*
X158520841Y-92676356D01*
X158520841Y-93052845D02*
X158520841Y-93160413D01*
X158547733Y-93214197D01*
X158601517Y-93267981D01*
X158709085Y-93294873D01*
X158897330Y-93294873D01*
X159004898Y-93267981D01*
X159058682Y-93214197D01*
X159085574Y-93160413D01*
X159085574Y-93052845D01*
X159058682Y-92999061D01*
X159004898Y-92945277D01*
X158897330Y-92918385D01*
X158709085Y-92918385D01*
X158601517Y-92945277D01*
X158547733Y-92999061D01*
X158520841Y-93052845D01*
X159085574Y-93536902D02*
X158520841Y-93536902D01*
X158520841Y-93671362D01*
X158547733Y-93752038D01*
X158601517Y-93805822D01*
X158655301Y-93832714D01*
X158762869Y-93859606D01*
X158843546Y-93859606D01*
X158951114Y-93832714D01*
X159004898Y-93805822D01*
X159058682Y-93752038D01*
X159085574Y-93671362D01*
X159085574Y-93536902D01*
X158789761Y-94101635D02*
X158789761Y-94289879D01*
X159085574Y-94370555D02*
X159085574Y-94101635D01*
X158520841Y-94101635D01*
X158520841Y-94370555D01*
X159085574Y-94612584D02*
X158520841Y-94612584D01*
X158520841Y-94747044D01*
X158547733Y-94827720D01*
X158601517Y-94881504D01*
X158655301Y-94908396D01*
X158762869Y-94935288D01*
X158843546Y-94935288D01*
X158951114Y-94908396D01*
X159004898Y-94881504D01*
X159058682Y-94827720D01*
X159085574Y-94747044D01*
X159085574Y-94612584D01*
X158520841Y-95284885D02*
X158520841Y-95392453D01*
X158547733Y-95446237D01*
X158601517Y-95500021D01*
X158709085Y-95526913D01*
X158897330Y-95526913D01*
X159004898Y-95500021D01*
X159058682Y-95446237D01*
X159085574Y-95392453D01*
X159085574Y-95284885D01*
X159058682Y-95231101D01*
X159004898Y-95177317D01*
X158897330Y-95150425D01*
X158709085Y-95150425D01*
X158601517Y-95177317D01*
X158547733Y-95231101D01*
X158520841Y-95284885D01*
X158870438Y-95768942D02*
X158870438Y-96199215D01*
X159085574Y-96763948D02*
X159085574Y-96441243D01*
X159085574Y-96602595D02*
X158520841Y-96602595D01*
X158601517Y-96548811D01*
X158655301Y-96495027D01*
X158682193Y-96441243D01*
X159085574Y-97005976D02*
X158520841Y-97005976D01*
X159085574Y-97328681D01*
X158520841Y-97328681D01*
X158709085Y-97839629D02*
X159085574Y-97839629D01*
X158493949Y-97705169D02*
X158897330Y-97570709D01*
X158897330Y-97920306D01*
X159085574Y-98431254D02*
X159085574Y-98108550D01*
X159085574Y-98269902D02*
X158520841Y-98269902D01*
X158601517Y-98216118D01*
X158655301Y-98162334D01*
X158682193Y-98108550D01*
X158709085Y-98915311D02*
X159085574Y-98915311D01*
X158493949Y-98780851D02*
X158897330Y-98646391D01*
X158897330Y-98995987D01*
X158762869Y-99291800D02*
X158735977Y-99238016D01*
X158709085Y-99211124D01*
X158655301Y-99184232D01*
X158628409Y-99184232D01*
X158574625Y-99211124D01*
X158547733Y-99238016D01*
X158520841Y-99291800D01*
X158520841Y-99399368D01*
X158547733Y-99453152D01*
X158574625Y-99480044D01*
X158628409Y-99506936D01*
X158655301Y-99506936D01*
X158709085Y-99480044D01*
X158735977Y-99453152D01*
X158762869Y-99399368D01*
X158762869Y-99291800D01*
X158789761Y-99238016D01*
X158816653Y-99211124D01*
X158870438Y-99184232D01*
X158978006Y-99184232D01*
X159031790Y-99211124D01*
X159058682Y-99238016D01*
X159085574Y-99291800D01*
X159085574Y-99399368D01*
X159058682Y-99453152D01*
X159031790Y-99480044D01*
X158978006Y-99506936D01*
X158870438Y-99506936D01*
X158816653Y-99480044D01*
X158789761Y-99453152D01*
X158762869Y-99399368D01*
D15*
%TO.C,LED4*%
X181810147Y-82569880D02*
X182286338Y-82569880D01*
X182286338Y-81569880D01*
X181476814Y-82046071D02*
X181143480Y-82046071D01*
X181000623Y-82569880D02*
X181476814Y-82569880D01*
X181476814Y-81569880D01*
X181000623Y-81569880D01*
X180572052Y-82569880D02*
X180572052Y-81569880D01*
X180333957Y-81569880D01*
X180191100Y-81617500D01*
X180095861Y-81712738D01*
X180048242Y-81807976D01*
X180000623Y-81998452D01*
X180000623Y-82141309D01*
X180048242Y-82331785D01*
X180095861Y-82427023D01*
X180191100Y-82522261D01*
X180333957Y-82569880D01*
X180572052Y-82569880D01*
X179143480Y-81903214D02*
X179143480Y-82569880D01*
X179381576Y-81522261D02*
X179619671Y-82236547D01*
X179000623Y-82236547D01*
X183365385Y-82607380D02*
X183936814Y-82607380D01*
X183651100Y-82607380D02*
X183651100Y-81607380D01*
X183746338Y-81750238D01*
X183841576Y-81845476D01*
X183936814Y-81893095D01*
D13*
%TO.C,S4*%
X188043004Y-68558361D02*
X187900147Y-68605980D01*
X187662052Y-68605980D01*
X187566814Y-68558361D01*
X187519195Y-68510742D01*
X187471576Y-68415504D01*
X187471576Y-68320266D01*
X187519195Y-68225028D01*
X187566814Y-68177409D01*
X187662052Y-68129790D01*
X187852528Y-68082171D01*
X187947766Y-68034552D01*
X187995385Y-67986933D01*
X188043004Y-67891695D01*
X188043004Y-67796457D01*
X187995385Y-67701219D01*
X187947766Y-67653600D01*
X187852528Y-67605980D01*
X187614433Y-67605980D01*
X187471576Y-67653600D01*
X186614433Y-67939314D02*
X186614433Y-68605980D01*
X186852528Y-67558361D02*
X187090623Y-68272647D01*
X186471576Y-68272647D01*
%TO.C,S5*%
X130893004Y-87608361D02*
X130750147Y-87655980D01*
X130512052Y-87655980D01*
X130416814Y-87608361D01*
X130369195Y-87560742D01*
X130321576Y-87465504D01*
X130321576Y-87370266D01*
X130369195Y-87275028D01*
X130416814Y-87227409D01*
X130512052Y-87179790D01*
X130702528Y-87132171D01*
X130797766Y-87084552D01*
X130845385Y-87036933D01*
X130893004Y-86941695D01*
X130893004Y-86846457D01*
X130845385Y-86751219D01*
X130797766Y-86703600D01*
X130702528Y-86655980D01*
X130464433Y-86655980D01*
X130321576Y-86703600D01*
X129416814Y-86655980D02*
X129893004Y-86655980D01*
X129940623Y-87132171D01*
X129893004Y-87084552D01*
X129797766Y-87036933D01*
X129559671Y-87036933D01*
X129464433Y-87084552D01*
X129416814Y-87132171D01*
X129369195Y-87227409D01*
X129369195Y-87465504D01*
X129416814Y-87560742D01*
X129464433Y-87608361D01*
X129559671Y-87655980D01*
X129797766Y-87655980D01*
X129893004Y-87608361D01*
X129940623Y-87560742D01*
D14*
%TO.C,D4*%
X189019476Y-67819474D02*
X189019476Y-67254741D01*
X188885015Y-67254741D01*
X188804339Y-67281633D01*
X188750555Y-67335417D01*
X188723663Y-67389201D01*
X188696771Y-67496769D01*
X188696771Y-67577446D01*
X188723663Y-67685014D01*
X188750555Y-67738798D01*
X188804339Y-67792582D01*
X188885015Y-67819474D01*
X189019476Y-67819474D01*
X188454743Y-67819474D02*
X188454743Y-67254741D01*
X188078254Y-67254741D02*
X187970686Y-67254741D01*
X187916902Y-67281633D01*
X187863118Y-67335417D01*
X187836226Y-67442985D01*
X187836226Y-67631230D01*
X187863118Y-67738798D01*
X187916902Y-67792582D01*
X187970686Y-67819474D01*
X188078254Y-67819474D01*
X188132038Y-67792582D01*
X188185822Y-67738798D01*
X188212714Y-67631230D01*
X188212714Y-67442985D01*
X188185822Y-67335417D01*
X188132038Y-67281633D01*
X188078254Y-67254741D01*
X187594197Y-67819474D02*
X187594197Y-67254741D01*
X187459737Y-67254741D01*
X187379061Y-67281633D01*
X187325277Y-67335417D01*
X187298385Y-67389201D01*
X187271493Y-67496769D01*
X187271493Y-67577446D01*
X187298385Y-67685014D01*
X187325277Y-67738798D01*
X187379061Y-67792582D01*
X187459737Y-67819474D01*
X187594197Y-67819474D01*
X187029464Y-67523661D02*
X186841220Y-67523661D01*
X186760544Y-67819474D02*
X187029464Y-67819474D01*
X187029464Y-67254741D01*
X186760544Y-67254741D01*
X186518515Y-67819474D02*
X186518515Y-67254741D01*
X186384055Y-67254741D01*
X186303379Y-67281633D01*
X186249595Y-67335417D01*
X186222703Y-67389201D01*
X186195811Y-67496769D01*
X186195811Y-67577446D01*
X186222703Y-67685014D01*
X186249595Y-67738798D01*
X186303379Y-67792582D01*
X186384055Y-67819474D01*
X186518515Y-67819474D01*
X185846214Y-67254741D02*
X185738646Y-67254741D01*
X185684862Y-67281633D01*
X185631078Y-67335417D01*
X185604186Y-67442985D01*
X185604186Y-67631230D01*
X185631078Y-67738798D01*
X185684862Y-67792582D01*
X185738646Y-67819474D01*
X185846214Y-67819474D01*
X185899998Y-67792582D01*
X185953782Y-67738798D01*
X185980674Y-67631230D01*
X185980674Y-67442985D01*
X185953782Y-67335417D01*
X185899998Y-67281633D01*
X185846214Y-67254741D01*
X185362157Y-67604338D02*
X184931884Y-67604338D01*
X184367151Y-67819474D02*
X184689856Y-67819474D01*
X184528504Y-67819474D02*
X184528504Y-67254741D01*
X184582288Y-67335417D01*
X184636072Y-67389201D01*
X184689856Y-67416093D01*
X184125123Y-67819474D02*
X184125123Y-67254741D01*
X183802418Y-67819474D01*
X183802418Y-67254741D01*
X183291470Y-67442985D02*
X183291470Y-67819474D01*
X183425930Y-67227849D02*
X183560390Y-67631230D01*
X183210793Y-67631230D01*
X182699845Y-67819474D02*
X183022549Y-67819474D01*
X182861197Y-67819474D02*
X182861197Y-67254741D01*
X182914981Y-67335417D01*
X182968765Y-67389201D01*
X183022549Y-67416093D01*
X182215788Y-67442985D02*
X182215788Y-67819474D01*
X182350248Y-67227849D02*
X182484708Y-67631230D01*
X182135112Y-67631230D01*
X181839299Y-67496769D02*
X181893083Y-67469877D01*
X181919975Y-67442985D01*
X181946867Y-67389201D01*
X181946867Y-67362309D01*
X181919975Y-67308525D01*
X181893083Y-67281633D01*
X181839299Y-67254741D01*
X181731731Y-67254741D01*
X181677947Y-67281633D01*
X181651055Y-67308525D01*
X181624163Y-67362309D01*
X181624163Y-67389201D01*
X181651055Y-67442985D01*
X181677947Y-67469877D01*
X181731731Y-67496769D01*
X181839299Y-67496769D01*
X181893083Y-67523661D01*
X181919975Y-67550553D01*
X181946867Y-67604338D01*
X181946867Y-67711906D01*
X181919975Y-67765690D01*
X181893083Y-67792582D01*
X181839299Y-67819474D01*
X181731731Y-67819474D01*
X181677947Y-67792582D01*
X181651055Y-67765690D01*
X181624163Y-67711906D01*
X181624163Y-67604338D01*
X181651055Y-67550553D01*
X181677947Y-67523661D01*
X181731731Y-67496769D01*
D15*
%TO.C,LED12*%
X182286338Y-120669880D02*
X182762528Y-120669880D01*
X182762528Y-119669880D01*
X181953004Y-120146071D02*
X181619671Y-120146071D01*
X181476814Y-120669880D02*
X181953004Y-120669880D01*
X181953004Y-119669880D01*
X181476814Y-119669880D01*
X181048242Y-120669880D02*
X181048242Y-119669880D01*
X180810147Y-119669880D01*
X180667290Y-119717500D01*
X180572052Y-119812738D01*
X180524433Y-119907976D01*
X180476814Y-120098452D01*
X180476814Y-120241309D01*
X180524433Y-120431785D01*
X180572052Y-120527023D01*
X180667290Y-120622261D01*
X180810147Y-120669880D01*
X181048242Y-120669880D01*
X179524433Y-120669880D02*
X180095861Y-120669880D01*
X179810147Y-120669880D02*
X179810147Y-119669880D01*
X179905385Y-119812738D01*
X180000623Y-119907976D01*
X180095861Y-119955595D01*
X179143480Y-119765119D02*
X179095861Y-119717500D01*
X179000623Y-119669880D01*
X178762528Y-119669880D01*
X178667290Y-119717500D01*
X178619671Y-119765119D01*
X178572052Y-119860357D01*
X178572052Y-119955595D01*
X178619671Y-120098452D01*
X179191100Y-120669880D01*
X178572052Y-120669880D01*
X183365385Y-120707380D02*
X183936814Y-120707380D01*
X183651100Y-120707380D02*
X183651100Y-119707380D01*
X183746338Y-119850238D01*
X183841576Y-119945476D01*
X183936814Y-119993095D01*
%TO.C,LED3*%
X162760147Y-82569880D02*
X163236338Y-82569880D01*
X163236338Y-81569880D01*
X162426814Y-82046071D02*
X162093480Y-82046071D01*
X161950623Y-82569880D02*
X162426814Y-82569880D01*
X162426814Y-81569880D01*
X161950623Y-81569880D01*
X161522052Y-82569880D02*
X161522052Y-81569880D01*
X161283957Y-81569880D01*
X161141100Y-81617500D01*
X161045861Y-81712738D01*
X160998242Y-81807976D01*
X160950623Y-81998452D01*
X160950623Y-82141309D01*
X160998242Y-82331785D01*
X161045861Y-82427023D01*
X161141100Y-82522261D01*
X161283957Y-82569880D01*
X161522052Y-82569880D01*
X160617290Y-81569880D02*
X159998242Y-81569880D01*
X160331576Y-81950833D01*
X160188719Y-81950833D01*
X160093480Y-81998452D01*
X160045861Y-82046071D01*
X159998242Y-82141309D01*
X159998242Y-82379404D01*
X160045861Y-82474642D01*
X160093480Y-82522261D01*
X160188719Y-82569880D01*
X160474433Y-82569880D01*
X160569671Y-82522261D01*
X160617290Y-82474642D01*
X164315385Y-82607380D02*
X164886814Y-82607380D01*
X164601100Y-82607380D02*
X164601100Y-81607380D01*
X164696338Y-81750238D01*
X164791576Y-81845476D01*
X164886814Y-81893095D01*
D13*
%TO.C,S14*%
X150419195Y-125708361D02*
X150276338Y-125755980D01*
X150038242Y-125755980D01*
X149943004Y-125708361D01*
X149895385Y-125660742D01*
X149847766Y-125565504D01*
X149847766Y-125470266D01*
X149895385Y-125375028D01*
X149943004Y-125327409D01*
X150038242Y-125279790D01*
X150228719Y-125232171D01*
X150323957Y-125184552D01*
X150371576Y-125136933D01*
X150419195Y-125041695D01*
X150419195Y-124946457D01*
X150371576Y-124851219D01*
X150323957Y-124803600D01*
X150228719Y-124755980D01*
X149990623Y-124755980D01*
X149847766Y-124803600D01*
X148895385Y-125755980D02*
X149466814Y-125755980D01*
X149181100Y-125755980D02*
X149181100Y-124755980D01*
X149276338Y-124898838D01*
X149371576Y-124994076D01*
X149466814Y-125041695D01*
X148038242Y-125089314D02*
X148038242Y-125755980D01*
X148276338Y-124708361D02*
X148514433Y-125422647D01*
X147895385Y-125422647D01*
%TO.C,S11*%
X169469195Y-106658361D02*
X169326338Y-106705980D01*
X169088242Y-106705980D01*
X168993004Y-106658361D01*
X168945385Y-106610742D01*
X168897766Y-106515504D01*
X168897766Y-106420266D01*
X168945385Y-106325028D01*
X168993004Y-106277409D01*
X169088242Y-106229790D01*
X169278719Y-106182171D01*
X169373957Y-106134552D01*
X169421576Y-106086933D01*
X169469195Y-105991695D01*
X169469195Y-105896457D01*
X169421576Y-105801219D01*
X169373957Y-105753600D01*
X169278719Y-105705980D01*
X169040623Y-105705980D01*
X168897766Y-105753600D01*
X167945385Y-106705980D02*
X168516814Y-106705980D01*
X168231100Y-106705980D02*
X168231100Y-105705980D01*
X168326338Y-105848838D01*
X168421576Y-105944076D01*
X168516814Y-105991695D01*
X166993004Y-106705980D02*
X167564433Y-106705980D01*
X167278719Y-106705980D02*
X167278719Y-105705980D01*
X167373957Y-105848838D01*
X167469195Y-105944076D01*
X167564433Y-105991695D01*
D15*
%TO.C,LED16*%
X138056338Y-138044880D02*
X138532528Y-138044880D01*
X138532528Y-137044880D01*
X137723004Y-137521071D02*
X137389671Y-137521071D01*
X137246814Y-138044880D02*
X137723004Y-138044880D01*
X137723004Y-137044880D01*
X137246814Y-137044880D01*
X136818242Y-138044880D02*
X136818242Y-137044880D01*
X136580147Y-137044880D01*
X136437290Y-137092500D01*
X136342052Y-137187738D01*
X136294433Y-137282976D01*
X136246814Y-137473452D01*
X136246814Y-137616309D01*
X136294433Y-137806785D01*
X136342052Y-137902023D01*
X136437290Y-137997261D01*
X136580147Y-138044880D01*
X136818242Y-138044880D01*
X135294433Y-138044880D02*
X135865861Y-138044880D01*
X135580147Y-138044880D02*
X135580147Y-137044880D01*
X135675385Y-137187738D01*
X135770623Y-137282976D01*
X135865861Y-137330595D01*
X134437290Y-137044880D02*
X134627766Y-137044880D01*
X134723004Y-137092500D01*
X134770623Y-137140119D01*
X134865861Y-137282976D01*
X134913480Y-137473452D01*
X134913480Y-137854404D01*
X134865861Y-137949642D01*
X134818242Y-137997261D01*
X134723004Y-138044880D01*
X134532528Y-138044880D01*
X134437290Y-137997261D01*
X134389671Y-137949642D01*
X134342052Y-137854404D01*
X134342052Y-137616309D01*
X134389671Y-137521071D01*
X134437290Y-137473452D01*
X134532528Y-137425833D01*
X134723004Y-137425833D01*
X134818242Y-137473452D01*
X134865861Y-137521071D01*
X134913480Y-137616309D01*
X133215385Y-138007380D02*
X133786814Y-138007380D01*
X133501100Y-138007380D02*
X133501100Y-137007380D01*
X133596338Y-137150238D01*
X133691576Y-137245476D01*
X133786814Y-137293095D01*
D13*
%TO.C,S7*%
X168993004Y-87608361D02*
X168850147Y-87655980D01*
X168612052Y-87655980D01*
X168516814Y-87608361D01*
X168469195Y-87560742D01*
X168421576Y-87465504D01*
X168421576Y-87370266D01*
X168469195Y-87275028D01*
X168516814Y-87227409D01*
X168612052Y-87179790D01*
X168802528Y-87132171D01*
X168897766Y-87084552D01*
X168945385Y-87036933D01*
X168993004Y-86941695D01*
X168993004Y-86846457D01*
X168945385Y-86751219D01*
X168897766Y-86703600D01*
X168802528Y-86655980D01*
X168564433Y-86655980D01*
X168421576Y-86703600D01*
X168088242Y-86655980D02*
X167421576Y-86655980D01*
X167850147Y-87655980D01*
%TO.C,S6*%
X149943004Y-87608361D02*
X149800147Y-87655980D01*
X149562052Y-87655980D01*
X149466814Y-87608361D01*
X149419195Y-87560742D01*
X149371576Y-87465504D01*
X149371576Y-87370266D01*
X149419195Y-87275028D01*
X149466814Y-87227409D01*
X149562052Y-87179790D01*
X149752528Y-87132171D01*
X149847766Y-87084552D01*
X149895385Y-87036933D01*
X149943004Y-86941695D01*
X149943004Y-86846457D01*
X149895385Y-86751219D01*
X149847766Y-86703600D01*
X149752528Y-86655980D01*
X149514433Y-86655980D01*
X149371576Y-86703600D01*
X148514433Y-86655980D02*
X148704909Y-86655980D01*
X148800147Y-86703600D01*
X148847766Y-86751219D01*
X148943004Y-86894076D01*
X148990623Y-87084552D01*
X148990623Y-87465504D01*
X148943004Y-87560742D01*
X148895385Y-87608361D01*
X148800147Y-87655980D01*
X148609671Y-87655980D01*
X148514433Y-87608361D01*
X148466814Y-87560742D01*
X148419195Y-87465504D01*
X148419195Y-87227409D01*
X148466814Y-87132171D01*
X148514433Y-87084552D01*
X148609671Y-87036933D01*
X148800147Y-87036933D01*
X148895385Y-87084552D01*
X148943004Y-87132171D01*
X148990623Y-87227409D01*
D14*
%TO.C,D9*%
X140035574Y-111161623D02*
X139470841Y-111161623D01*
X139470841Y-111296084D01*
X139497733Y-111376760D01*
X139551517Y-111430544D01*
X139605301Y-111457436D01*
X139712869Y-111484328D01*
X139793546Y-111484328D01*
X139901114Y-111457436D01*
X139954898Y-111430544D01*
X140008682Y-111376760D01*
X140035574Y-111296084D01*
X140035574Y-111161623D01*
X140035574Y-111726356D02*
X139470841Y-111726356D01*
X139470841Y-112102845D02*
X139470841Y-112210413D01*
X139497733Y-112264197D01*
X139551517Y-112317981D01*
X139659085Y-112344873D01*
X139847330Y-112344873D01*
X139954898Y-112317981D01*
X140008682Y-112264197D01*
X140035574Y-112210413D01*
X140035574Y-112102845D01*
X140008682Y-112049061D01*
X139954898Y-111995277D01*
X139847330Y-111968385D01*
X139659085Y-111968385D01*
X139551517Y-111995277D01*
X139497733Y-112049061D01*
X139470841Y-112102845D01*
X140035574Y-112586902D02*
X139470841Y-112586902D01*
X139470841Y-112721362D01*
X139497733Y-112802038D01*
X139551517Y-112855822D01*
X139605301Y-112882714D01*
X139712869Y-112909606D01*
X139793546Y-112909606D01*
X139901114Y-112882714D01*
X139954898Y-112855822D01*
X140008682Y-112802038D01*
X140035574Y-112721362D01*
X140035574Y-112586902D01*
X139739761Y-113151635D02*
X139739761Y-113339879D01*
X140035574Y-113420555D02*
X140035574Y-113151635D01*
X139470841Y-113151635D01*
X139470841Y-113420555D01*
X140035574Y-113662584D02*
X139470841Y-113662584D01*
X139470841Y-113797044D01*
X139497733Y-113877720D01*
X139551517Y-113931504D01*
X139605301Y-113958396D01*
X139712869Y-113985288D01*
X139793546Y-113985288D01*
X139901114Y-113958396D01*
X139954898Y-113931504D01*
X140008682Y-113877720D01*
X140035574Y-113797044D01*
X140035574Y-113662584D01*
X139470841Y-114334885D02*
X139470841Y-114442453D01*
X139497733Y-114496237D01*
X139551517Y-114550021D01*
X139659085Y-114576913D01*
X139847330Y-114576913D01*
X139954898Y-114550021D01*
X140008682Y-114496237D01*
X140035574Y-114442453D01*
X140035574Y-114334885D01*
X140008682Y-114281101D01*
X139954898Y-114227317D01*
X139847330Y-114200425D01*
X139659085Y-114200425D01*
X139551517Y-114227317D01*
X139497733Y-114281101D01*
X139470841Y-114334885D01*
X139820438Y-114818942D02*
X139820438Y-115249215D01*
X140035574Y-115813948D02*
X140035574Y-115491243D01*
X140035574Y-115652595D02*
X139470841Y-115652595D01*
X139551517Y-115598811D01*
X139605301Y-115545027D01*
X139632193Y-115491243D01*
X140035574Y-116055976D02*
X139470841Y-116055976D01*
X140035574Y-116378681D01*
X139470841Y-116378681D01*
X139659085Y-116889629D02*
X140035574Y-116889629D01*
X139443949Y-116755169D02*
X139847330Y-116620709D01*
X139847330Y-116970306D01*
X140035574Y-117481254D02*
X140035574Y-117158550D01*
X140035574Y-117319902D02*
X139470841Y-117319902D01*
X139551517Y-117266118D01*
X139605301Y-117212334D01*
X139632193Y-117158550D01*
X139659085Y-117965311D02*
X140035574Y-117965311D01*
X139443949Y-117830851D02*
X139847330Y-117696391D01*
X139847330Y-118045987D01*
X139712869Y-118341800D02*
X139685977Y-118288016D01*
X139659085Y-118261124D01*
X139605301Y-118234232D01*
X139578409Y-118234232D01*
X139524625Y-118261124D01*
X139497733Y-118288016D01*
X139470841Y-118341800D01*
X139470841Y-118449368D01*
X139497733Y-118503152D01*
X139524625Y-118530044D01*
X139578409Y-118556936D01*
X139605301Y-118556936D01*
X139659085Y-118530044D01*
X139685977Y-118503152D01*
X139712869Y-118449368D01*
X139712869Y-118341800D01*
X139739761Y-118288016D01*
X139766653Y-118261124D01*
X139820438Y-118234232D01*
X139928006Y-118234232D01*
X139981790Y-118261124D01*
X140008682Y-118288016D01*
X140035574Y-118341800D01*
X140035574Y-118449368D01*
X140008682Y-118503152D01*
X139981790Y-118530044D01*
X139928006Y-118556936D01*
X139820438Y-118556936D01*
X139766653Y-118530044D01*
X139739761Y-118503152D01*
X139712869Y-118449368D01*
%TO.C,D11*%
X178135574Y-111161623D02*
X177570841Y-111161623D01*
X177570841Y-111296084D01*
X177597733Y-111376760D01*
X177651517Y-111430544D01*
X177705301Y-111457436D01*
X177812869Y-111484328D01*
X177893546Y-111484328D01*
X178001114Y-111457436D01*
X178054898Y-111430544D01*
X178108682Y-111376760D01*
X178135574Y-111296084D01*
X178135574Y-111161623D01*
X178135574Y-111726356D02*
X177570841Y-111726356D01*
X177570841Y-112102845D02*
X177570841Y-112210413D01*
X177597733Y-112264197D01*
X177651517Y-112317981D01*
X177759085Y-112344873D01*
X177947330Y-112344873D01*
X178054898Y-112317981D01*
X178108682Y-112264197D01*
X178135574Y-112210413D01*
X178135574Y-112102845D01*
X178108682Y-112049061D01*
X178054898Y-111995277D01*
X177947330Y-111968385D01*
X177759085Y-111968385D01*
X177651517Y-111995277D01*
X177597733Y-112049061D01*
X177570841Y-112102845D01*
X178135574Y-112586902D02*
X177570841Y-112586902D01*
X177570841Y-112721362D01*
X177597733Y-112802038D01*
X177651517Y-112855822D01*
X177705301Y-112882714D01*
X177812869Y-112909606D01*
X177893546Y-112909606D01*
X178001114Y-112882714D01*
X178054898Y-112855822D01*
X178108682Y-112802038D01*
X178135574Y-112721362D01*
X178135574Y-112586902D01*
X177839761Y-113151635D02*
X177839761Y-113339879D01*
X178135574Y-113420555D02*
X178135574Y-113151635D01*
X177570841Y-113151635D01*
X177570841Y-113420555D01*
X178135574Y-113662584D02*
X177570841Y-113662584D01*
X177570841Y-113797044D01*
X177597733Y-113877720D01*
X177651517Y-113931504D01*
X177705301Y-113958396D01*
X177812869Y-113985288D01*
X177893546Y-113985288D01*
X178001114Y-113958396D01*
X178054898Y-113931504D01*
X178108682Y-113877720D01*
X178135574Y-113797044D01*
X178135574Y-113662584D01*
X177570841Y-114334885D02*
X177570841Y-114442453D01*
X177597733Y-114496237D01*
X177651517Y-114550021D01*
X177759085Y-114576913D01*
X177947330Y-114576913D01*
X178054898Y-114550021D01*
X178108682Y-114496237D01*
X178135574Y-114442453D01*
X178135574Y-114334885D01*
X178108682Y-114281101D01*
X178054898Y-114227317D01*
X177947330Y-114200425D01*
X177759085Y-114200425D01*
X177651517Y-114227317D01*
X177597733Y-114281101D01*
X177570841Y-114334885D01*
X177920438Y-114818942D02*
X177920438Y-115249215D01*
X178135574Y-115813948D02*
X178135574Y-115491243D01*
X178135574Y-115652595D02*
X177570841Y-115652595D01*
X177651517Y-115598811D01*
X177705301Y-115545027D01*
X177732193Y-115491243D01*
X178135574Y-116055976D02*
X177570841Y-116055976D01*
X178135574Y-116378681D01*
X177570841Y-116378681D01*
X177759085Y-116889629D02*
X178135574Y-116889629D01*
X177543949Y-116755169D02*
X177947330Y-116620709D01*
X177947330Y-116970306D01*
X178135574Y-117481254D02*
X178135574Y-117158550D01*
X178135574Y-117319902D02*
X177570841Y-117319902D01*
X177651517Y-117266118D01*
X177705301Y-117212334D01*
X177732193Y-117158550D01*
X177759085Y-117965311D02*
X178135574Y-117965311D01*
X177543949Y-117830851D02*
X177947330Y-117696391D01*
X177947330Y-118045987D01*
X177812869Y-118341800D02*
X177785977Y-118288016D01*
X177759085Y-118261124D01*
X177705301Y-118234232D01*
X177678409Y-118234232D01*
X177624625Y-118261124D01*
X177597733Y-118288016D01*
X177570841Y-118341800D01*
X177570841Y-118449368D01*
X177597733Y-118503152D01*
X177624625Y-118530044D01*
X177678409Y-118556936D01*
X177705301Y-118556936D01*
X177759085Y-118530044D01*
X177785977Y-118503152D01*
X177812869Y-118449368D01*
X177812869Y-118341800D01*
X177839761Y-118288016D01*
X177866653Y-118261124D01*
X177920438Y-118234232D01*
X178028006Y-118234232D01*
X178081790Y-118261124D01*
X178108682Y-118288016D01*
X178135574Y-118341800D01*
X178135574Y-118449368D01*
X178108682Y-118503152D01*
X178081790Y-118530044D01*
X178028006Y-118556936D01*
X177920438Y-118556936D01*
X177866653Y-118530044D01*
X177839761Y-118503152D01*
X177812869Y-118449368D01*
D15*
%TO.C,LED10*%
X144186338Y-120669880D02*
X144662528Y-120669880D01*
X144662528Y-119669880D01*
X143853004Y-120146071D02*
X143519671Y-120146071D01*
X143376814Y-120669880D02*
X143853004Y-120669880D01*
X143853004Y-119669880D01*
X143376814Y-119669880D01*
X142948242Y-120669880D02*
X142948242Y-119669880D01*
X142710147Y-119669880D01*
X142567290Y-119717500D01*
X142472052Y-119812738D01*
X142424433Y-119907976D01*
X142376814Y-120098452D01*
X142376814Y-120241309D01*
X142424433Y-120431785D01*
X142472052Y-120527023D01*
X142567290Y-120622261D01*
X142710147Y-120669880D01*
X142948242Y-120669880D01*
X141424433Y-120669880D02*
X141995861Y-120669880D01*
X141710147Y-120669880D02*
X141710147Y-119669880D01*
X141805385Y-119812738D01*
X141900623Y-119907976D01*
X141995861Y-119955595D01*
X140805385Y-119669880D02*
X140710147Y-119669880D01*
X140614909Y-119717500D01*
X140567290Y-119765119D01*
X140519671Y-119860357D01*
X140472052Y-120050833D01*
X140472052Y-120288928D01*
X140519671Y-120479404D01*
X140567290Y-120574642D01*
X140614909Y-120622261D01*
X140710147Y-120669880D01*
X140805385Y-120669880D01*
X140900623Y-120622261D01*
X140948242Y-120574642D01*
X140995861Y-120479404D01*
X141043480Y-120288928D01*
X141043480Y-120050833D01*
X140995861Y-119860357D01*
X140948242Y-119765119D01*
X140900623Y-119717500D01*
X140805385Y-119669880D01*
X145265385Y-120707380D02*
X145836814Y-120707380D01*
X145551100Y-120707380D02*
X145551100Y-119707380D01*
X145646338Y-119850238D01*
X145741576Y-119945476D01*
X145836814Y-119993095D01*
D14*
%TO.C,D13*%
X140035574Y-130211623D02*
X139470841Y-130211623D01*
X139470841Y-130346084D01*
X139497733Y-130426760D01*
X139551517Y-130480544D01*
X139605301Y-130507436D01*
X139712869Y-130534328D01*
X139793546Y-130534328D01*
X139901114Y-130507436D01*
X139954898Y-130480544D01*
X140008682Y-130426760D01*
X140035574Y-130346084D01*
X140035574Y-130211623D01*
X140035574Y-130776356D02*
X139470841Y-130776356D01*
X139470841Y-131152845D02*
X139470841Y-131260413D01*
X139497733Y-131314197D01*
X139551517Y-131367981D01*
X139659085Y-131394873D01*
X139847330Y-131394873D01*
X139954898Y-131367981D01*
X140008682Y-131314197D01*
X140035574Y-131260413D01*
X140035574Y-131152845D01*
X140008682Y-131099061D01*
X139954898Y-131045277D01*
X139847330Y-131018385D01*
X139659085Y-131018385D01*
X139551517Y-131045277D01*
X139497733Y-131099061D01*
X139470841Y-131152845D01*
X140035574Y-131636902D02*
X139470841Y-131636902D01*
X139470841Y-131771362D01*
X139497733Y-131852038D01*
X139551517Y-131905822D01*
X139605301Y-131932714D01*
X139712869Y-131959606D01*
X139793546Y-131959606D01*
X139901114Y-131932714D01*
X139954898Y-131905822D01*
X140008682Y-131852038D01*
X140035574Y-131771362D01*
X140035574Y-131636902D01*
X139739761Y-132201635D02*
X139739761Y-132389879D01*
X140035574Y-132470555D02*
X140035574Y-132201635D01*
X139470841Y-132201635D01*
X139470841Y-132470555D01*
X140035574Y-132712584D02*
X139470841Y-132712584D01*
X139470841Y-132847044D01*
X139497733Y-132927720D01*
X139551517Y-132981504D01*
X139605301Y-133008396D01*
X139712869Y-133035288D01*
X139793546Y-133035288D01*
X139901114Y-133008396D01*
X139954898Y-132981504D01*
X140008682Y-132927720D01*
X140035574Y-132847044D01*
X140035574Y-132712584D01*
X139470841Y-133384885D02*
X139470841Y-133492453D01*
X139497733Y-133546237D01*
X139551517Y-133600021D01*
X139659085Y-133626913D01*
X139847330Y-133626913D01*
X139954898Y-133600021D01*
X140008682Y-133546237D01*
X140035574Y-133492453D01*
X140035574Y-133384885D01*
X140008682Y-133331101D01*
X139954898Y-133277317D01*
X139847330Y-133250425D01*
X139659085Y-133250425D01*
X139551517Y-133277317D01*
X139497733Y-133331101D01*
X139470841Y-133384885D01*
X139820438Y-133868942D02*
X139820438Y-134299215D01*
X140035574Y-134863948D02*
X140035574Y-134541243D01*
X140035574Y-134702595D02*
X139470841Y-134702595D01*
X139551517Y-134648811D01*
X139605301Y-134595027D01*
X139632193Y-134541243D01*
X140035574Y-135105976D02*
X139470841Y-135105976D01*
X140035574Y-135428681D01*
X139470841Y-135428681D01*
X139659085Y-135939629D02*
X140035574Y-135939629D01*
X139443949Y-135805169D02*
X139847330Y-135670709D01*
X139847330Y-136020306D01*
X140035574Y-136531254D02*
X140035574Y-136208550D01*
X140035574Y-136369902D02*
X139470841Y-136369902D01*
X139551517Y-136316118D01*
X139605301Y-136262334D01*
X139632193Y-136208550D01*
X139659085Y-137015311D02*
X140035574Y-137015311D01*
X139443949Y-136880851D02*
X139847330Y-136746391D01*
X139847330Y-137095987D01*
X139712869Y-137391800D02*
X139685977Y-137338016D01*
X139659085Y-137311124D01*
X139605301Y-137284232D01*
X139578409Y-137284232D01*
X139524625Y-137311124D01*
X139497733Y-137338016D01*
X139470841Y-137391800D01*
X139470841Y-137499368D01*
X139497733Y-137553152D01*
X139524625Y-137580044D01*
X139578409Y-137606936D01*
X139605301Y-137606936D01*
X139659085Y-137580044D01*
X139685977Y-137553152D01*
X139712869Y-137499368D01*
X139712869Y-137391800D01*
X139739761Y-137338016D01*
X139766653Y-137311124D01*
X139820438Y-137284232D01*
X139928006Y-137284232D01*
X139981790Y-137311124D01*
X140008682Y-137338016D01*
X140035574Y-137391800D01*
X140035574Y-137499368D01*
X140008682Y-137553152D01*
X139981790Y-137580044D01*
X139928006Y-137606936D01*
X139820438Y-137606936D01*
X139766653Y-137580044D01*
X139739761Y-137553152D01*
X139712869Y-137499368D01*
D15*
%TO.C,LED2*%
X143710147Y-82569880D02*
X144186338Y-82569880D01*
X144186338Y-81569880D01*
X143376814Y-82046071D02*
X143043480Y-82046071D01*
X142900623Y-82569880D02*
X143376814Y-82569880D01*
X143376814Y-81569880D01*
X142900623Y-81569880D01*
X142472052Y-82569880D02*
X142472052Y-81569880D01*
X142233957Y-81569880D01*
X142091100Y-81617500D01*
X141995861Y-81712738D01*
X141948242Y-81807976D01*
X141900623Y-81998452D01*
X141900623Y-82141309D01*
X141948242Y-82331785D01*
X141995861Y-82427023D01*
X142091100Y-82522261D01*
X142233957Y-82569880D01*
X142472052Y-82569880D01*
X141519671Y-81665119D02*
X141472052Y-81617500D01*
X141376814Y-81569880D01*
X141138719Y-81569880D01*
X141043480Y-81617500D01*
X140995861Y-81665119D01*
X140948242Y-81760357D01*
X140948242Y-81855595D01*
X140995861Y-81998452D01*
X141567290Y-82569880D01*
X140948242Y-82569880D01*
X145265385Y-82607380D02*
X145836814Y-82607380D01*
X145551100Y-82607380D02*
X145551100Y-81607380D01*
X145646338Y-81750238D01*
X145741576Y-81845476D01*
X145836814Y-81893095D01*
D13*
%TO.C,S12*%
X188519195Y-106658361D02*
X188376338Y-106705980D01*
X188138242Y-106705980D01*
X188043004Y-106658361D01*
X187995385Y-106610742D01*
X187947766Y-106515504D01*
X187947766Y-106420266D01*
X187995385Y-106325028D01*
X188043004Y-106277409D01*
X188138242Y-106229790D01*
X188328719Y-106182171D01*
X188423957Y-106134552D01*
X188471576Y-106086933D01*
X188519195Y-105991695D01*
X188519195Y-105896457D01*
X188471576Y-105801219D01*
X188423957Y-105753600D01*
X188328719Y-105705980D01*
X188090623Y-105705980D01*
X187947766Y-105753600D01*
X186995385Y-106705980D02*
X187566814Y-106705980D01*
X187281100Y-106705980D02*
X187281100Y-105705980D01*
X187376338Y-105848838D01*
X187471576Y-105944076D01*
X187566814Y-105991695D01*
X186614433Y-105801219D02*
X186566814Y-105753600D01*
X186471576Y-105705980D01*
X186233480Y-105705980D01*
X186138242Y-105753600D01*
X186090623Y-105801219D01*
X186043004Y-105896457D01*
X186043004Y-105991695D01*
X186090623Y-106134552D01*
X186662052Y-106705980D01*
X186043004Y-106705980D01*
D14*
%TO.C,D20*%
X119889474Y-130211623D02*
X119324741Y-130211623D01*
X119324741Y-130346084D01*
X119351633Y-130426760D01*
X119405417Y-130480544D01*
X119459201Y-130507436D01*
X119566769Y-130534328D01*
X119647446Y-130534328D01*
X119755014Y-130507436D01*
X119808798Y-130480544D01*
X119862582Y-130426760D01*
X119889474Y-130346084D01*
X119889474Y-130211623D01*
X119889474Y-130776356D02*
X119324741Y-130776356D01*
X119324741Y-131152845D02*
X119324741Y-131260413D01*
X119351633Y-131314197D01*
X119405417Y-131367981D01*
X119512985Y-131394873D01*
X119701230Y-131394873D01*
X119808798Y-131367981D01*
X119862582Y-131314197D01*
X119889474Y-131260413D01*
X119889474Y-131152845D01*
X119862582Y-131099061D01*
X119808798Y-131045277D01*
X119701230Y-131018385D01*
X119512985Y-131018385D01*
X119405417Y-131045277D01*
X119351633Y-131099061D01*
X119324741Y-131152845D01*
X119889474Y-131636902D02*
X119324741Y-131636902D01*
X119324741Y-131771362D01*
X119351633Y-131852038D01*
X119405417Y-131905822D01*
X119459201Y-131932714D01*
X119566769Y-131959606D01*
X119647446Y-131959606D01*
X119755014Y-131932714D01*
X119808798Y-131905822D01*
X119862582Y-131852038D01*
X119889474Y-131771362D01*
X119889474Y-131636902D01*
X119593661Y-132201635D02*
X119593661Y-132389879D01*
X119889474Y-132470555D02*
X119889474Y-132201635D01*
X119324741Y-132201635D01*
X119324741Y-132470555D01*
X119889474Y-132712584D02*
X119324741Y-132712584D01*
X119324741Y-132847044D01*
X119351633Y-132927720D01*
X119405417Y-132981504D01*
X119459201Y-133008396D01*
X119566769Y-133035288D01*
X119647446Y-133035288D01*
X119755014Y-133008396D01*
X119808798Y-132981504D01*
X119862582Y-132927720D01*
X119889474Y-132847044D01*
X119889474Y-132712584D01*
X119324741Y-133384885D02*
X119324741Y-133492453D01*
X119351633Y-133546237D01*
X119405417Y-133600021D01*
X119512985Y-133626913D01*
X119701230Y-133626913D01*
X119808798Y-133600021D01*
X119862582Y-133546237D01*
X119889474Y-133492453D01*
X119889474Y-133384885D01*
X119862582Y-133331101D01*
X119808798Y-133277317D01*
X119701230Y-133250425D01*
X119512985Y-133250425D01*
X119405417Y-133277317D01*
X119351633Y-133331101D01*
X119324741Y-133384885D01*
X119674338Y-133868942D02*
X119674338Y-134299215D01*
X119889474Y-134863948D02*
X119889474Y-134541243D01*
X119889474Y-134702595D02*
X119324741Y-134702595D01*
X119405417Y-134648811D01*
X119459201Y-134595027D01*
X119486093Y-134541243D01*
X119889474Y-135105976D02*
X119324741Y-135105976D01*
X119889474Y-135428681D01*
X119324741Y-135428681D01*
X119512985Y-135939629D02*
X119889474Y-135939629D01*
X119297849Y-135805169D02*
X119701230Y-135670709D01*
X119701230Y-136020306D01*
X119889474Y-136531254D02*
X119889474Y-136208550D01*
X119889474Y-136369902D02*
X119324741Y-136369902D01*
X119405417Y-136316118D01*
X119459201Y-136262334D01*
X119486093Y-136208550D01*
X119512985Y-137015311D02*
X119889474Y-137015311D01*
X119297849Y-136880851D02*
X119701230Y-136746391D01*
X119701230Y-137095987D01*
X119566769Y-137391800D02*
X119539877Y-137338016D01*
X119512985Y-137311124D01*
X119459201Y-137284232D01*
X119432309Y-137284232D01*
X119378525Y-137311124D01*
X119351633Y-137338016D01*
X119324741Y-137391800D01*
X119324741Y-137499368D01*
X119351633Y-137553152D01*
X119378525Y-137580044D01*
X119432309Y-137606936D01*
X119459201Y-137606936D01*
X119512985Y-137580044D01*
X119539877Y-137553152D01*
X119566769Y-137499368D01*
X119566769Y-137391800D01*
X119593661Y-137338016D01*
X119620553Y-137311124D01*
X119674338Y-137284232D01*
X119781906Y-137284232D01*
X119835690Y-137311124D01*
X119862582Y-137338016D01*
X119889474Y-137391800D01*
X119889474Y-137499368D01*
X119862582Y-137553152D01*
X119835690Y-137580044D01*
X119781906Y-137606936D01*
X119674338Y-137606936D01*
X119620553Y-137580044D01*
X119593661Y-137553152D01*
X119566769Y-137499368D01*
D15*
%TO.C,LED13*%
X195206338Y-138044880D02*
X195682528Y-138044880D01*
X195682528Y-137044880D01*
X194873004Y-137521071D02*
X194539671Y-137521071D01*
X194396814Y-138044880D02*
X194873004Y-138044880D01*
X194873004Y-137044880D01*
X194396814Y-137044880D01*
X193968242Y-138044880D02*
X193968242Y-137044880D01*
X193730147Y-137044880D01*
X193587290Y-137092500D01*
X193492052Y-137187738D01*
X193444433Y-137282976D01*
X193396814Y-137473452D01*
X193396814Y-137616309D01*
X193444433Y-137806785D01*
X193492052Y-137902023D01*
X193587290Y-137997261D01*
X193730147Y-138044880D01*
X193968242Y-138044880D01*
X192444433Y-138044880D02*
X193015861Y-138044880D01*
X192730147Y-138044880D02*
X192730147Y-137044880D01*
X192825385Y-137187738D01*
X192920623Y-137282976D01*
X193015861Y-137330595D01*
X192111100Y-137044880D02*
X191492052Y-137044880D01*
X191825385Y-137425833D01*
X191682528Y-137425833D01*
X191587290Y-137473452D01*
X191539671Y-137521071D01*
X191492052Y-137616309D01*
X191492052Y-137854404D01*
X191539671Y-137949642D01*
X191587290Y-137997261D01*
X191682528Y-138044880D01*
X191968242Y-138044880D01*
X192063480Y-137997261D01*
X192111100Y-137949642D01*
X190365385Y-138007380D02*
X190936814Y-138007380D01*
X190651100Y-138007380D02*
X190651100Y-137007380D01*
X190746338Y-137150238D01*
X190841576Y-137245476D01*
X190936814Y-137293095D01*
D14*
%TO.C,D7*%
X178135574Y-92111623D02*
X177570841Y-92111623D01*
X177570841Y-92246084D01*
X177597733Y-92326760D01*
X177651517Y-92380544D01*
X177705301Y-92407436D01*
X177812869Y-92434328D01*
X177893546Y-92434328D01*
X178001114Y-92407436D01*
X178054898Y-92380544D01*
X178108682Y-92326760D01*
X178135574Y-92246084D01*
X178135574Y-92111623D01*
X178135574Y-92676356D02*
X177570841Y-92676356D01*
X177570841Y-93052845D02*
X177570841Y-93160413D01*
X177597733Y-93214197D01*
X177651517Y-93267981D01*
X177759085Y-93294873D01*
X177947330Y-93294873D01*
X178054898Y-93267981D01*
X178108682Y-93214197D01*
X178135574Y-93160413D01*
X178135574Y-93052845D01*
X178108682Y-92999061D01*
X178054898Y-92945277D01*
X177947330Y-92918385D01*
X177759085Y-92918385D01*
X177651517Y-92945277D01*
X177597733Y-92999061D01*
X177570841Y-93052845D01*
X178135574Y-93536902D02*
X177570841Y-93536902D01*
X177570841Y-93671362D01*
X177597733Y-93752038D01*
X177651517Y-93805822D01*
X177705301Y-93832714D01*
X177812869Y-93859606D01*
X177893546Y-93859606D01*
X178001114Y-93832714D01*
X178054898Y-93805822D01*
X178108682Y-93752038D01*
X178135574Y-93671362D01*
X178135574Y-93536902D01*
X177839761Y-94101635D02*
X177839761Y-94289879D01*
X178135574Y-94370555D02*
X178135574Y-94101635D01*
X177570841Y-94101635D01*
X177570841Y-94370555D01*
X178135574Y-94612584D02*
X177570841Y-94612584D01*
X177570841Y-94747044D01*
X177597733Y-94827720D01*
X177651517Y-94881504D01*
X177705301Y-94908396D01*
X177812869Y-94935288D01*
X177893546Y-94935288D01*
X178001114Y-94908396D01*
X178054898Y-94881504D01*
X178108682Y-94827720D01*
X178135574Y-94747044D01*
X178135574Y-94612584D01*
X177570841Y-95284885D02*
X177570841Y-95392453D01*
X177597733Y-95446237D01*
X177651517Y-95500021D01*
X177759085Y-95526913D01*
X177947330Y-95526913D01*
X178054898Y-95500021D01*
X178108682Y-95446237D01*
X178135574Y-95392453D01*
X178135574Y-95284885D01*
X178108682Y-95231101D01*
X178054898Y-95177317D01*
X177947330Y-95150425D01*
X177759085Y-95150425D01*
X177651517Y-95177317D01*
X177597733Y-95231101D01*
X177570841Y-95284885D01*
X177920438Y-95768942D02*
X177920438Y-96199215D01*
X178135574Y-96763948D02*
X178135574Y-96441243D01*
X178135574Y-96602595D02*
X177570841Y-96602595D01*
X177651517Y-96548811D01*
X177705301Y-96495027D01*
X177732193Y-96441243D01*
X178135574Y-97005976D02*
X177570841Y-97005976D01*
X178135574Y-97328681D01*
X177570841Y-97328681D01*
X177759085Y-97839629D02*
X178135574Y-97839629D01*
X177543949Y-97705169D02*
X177947330Y-97570709D01*
X177947330Y-97920306D01*
X178135574Y-98431254D02*
X178135574Y-98108550D01*
X178135574Y-98269902D02*
X177570841Y-98269902D01*
X177651517Y-98216118D01*
X177705301Y-98162334D01*
X177732193Y-98108550D01*
X177759085Y-98915311D02*
X178135574Y-98915311D01*
X177543949Y-98780851D02*
X177947330Y-98646391D01*
X177947330Y-98995987D01*
X177812869Y-99291800D02*
X177785977Y-99238016D01*
X177759085Y-99211124D01*
X177705301Y-99184232D01*
X177678409Y-99184232D01*
X177624625Y-99211124D01*
X177597733Y-99238016D01*
X177570841Y-99291800D01*
X177570841Y-99399368D01*
X177597733Y-99453152D01*
X177624625Y-99480044D01*
X177678409Y-99506936D01*
X177705301Y-99506936D01*
X177759085Y-99480044D01*
X177785977Y-99453152D01*
X177812869Y-99399368D01*
X177812869Y-99291800D01*
X177839761Y-99238016D01*
X177866653Y-99211124D01*
X177920438Y-99184232D01*
X178028006Y-99184232D01*
X178081790Y-99211124D01*
X178108682Y-99238016D01*
X178135574Y-99291800D01*
X178135574Y-99399368D01*
X178108682Y-99453152D01*
X178081790Y-99480044D01*
X178028006Y-99506936D01*
X177920438Y-99506936D01*
X177866653Y-99480044D01*
X177839761Y-99453152D01*
X177812869Y-99399368D01*
D15*
%TO.C,LED5*%
X194730147Y-99944880D02*
X195206338Y-99944880D01*
X195206338Y-98944880D01*
X194396814Y-99421071D02*
X194063480Y-99421071D01*
X193920623Y-99944880D02*
X194396814Y-99944880D01*
X194396814Y-98944880D01*
X193920623Y-98944880D01*
X193492052Y-99944880D02*
X193492052Y-98944880D01*
X193253957Y-98944880D01*
X193111100Y-98992500D01*
X193015861Y-99087738D01*
X192968242Y-99182976D01*
X192920623Y-99373452D01*
X192920623Y-99516309D01*
X192968242Y-99706785D01*
X193015861Y-99802023D01*
X193111100Y-99897261D01*
X193253957Y-99944880D01*
X193492052Y-99944880D01*
X192015861Y-98944880D02*
X192492052Y-98944880D01*
X192539671Y-99421071D01*
X192492052Y-99373452D01*
X192396814Y-99325833D01*
X192158719Y-99325833D01*
X192063480Y-99373452D01*
X192015861Y-99421071D01*
X191968242Y-99516309D01*
X191968242Y-99754404D01*
X192015861Y-99849642D01*
X192063480Y-99897261D01*
X192158719Y-99944880D01*
X192396814Y-99944880D01*
X192492052Y-99897261D01*
X192539671Y-99849642D01*
X190365385Y-99907380D02*
X190936814Y-99907380D01*
X190651100Y-99907380D02*
X190651100Y-98907380D01*
X190746338Y-99050238D01*
X190841576Y-99145476D01*
X190936814Y-99193095D01*
D13*
%TO.C,S3*%
X168993004Y-68558361D02*
X168850147Y-68605980D01*
X168612052Y-68605980D01*
X168516814Y-68558361D01*
X168469195Y-68510742D01*
X168421576Y-68415504D01*
X168421576Y-68320266D01*
X168469195Y-68225028D01*
X168516814Y-68177409D01*
X168612052Y-68129790D01*
X168802528Y-68082171D01*
X168897766Y-68034552D01*
X168945385Y-67986933D01*
X168993004Y-67891695D01*
X168993004Y-67796457D01*
X168945385Y-67701219D01*
X168897766Y-67653600D01*
X168802528Y-67605980D01*
X168564433Y-67605980D01*
X168421576Y-67653600D01*
X168088242Y-67605980D02*
X167469195Y-67605980D01*
X167802528Y-67986933D01*
X167659671Y-67986933D01*
X167564433Y-68034552D01*
X167516814Y-68082171D01*
X167469195Y-68177409D01*
X167469195Y-68415504D01*
X167516814Y-68510742D01*
X167564433Y-68558361D01*
X167659671Y-68605980D01*
X167945385Y-68605980D01*
X168040623Y-68558361D01*
X168088242Y-68510742D01*
D14*
%TO.C,D5*%
X140035574Y-92111623D02*
X139470841Y-92111623D01*
X139470841Y-92246084D01*
X139497733Y-92326760D01*
X139551517Y-92380544D01*
X139605301Y-92407436D01*
X139712869Y-92434328D01*
X139793546Y-92434328D01*
X139901114Y-92407436D01*
X139954898Y-92380544D01*
X140008682Y-92326760D01*
X140035574Y-92246084D01*
X140035574Y-92111623D01*
X140035574Y-92676356D02*
X139470841Y-92676356D01*
X139470841Y-93052845D02*
X139470841Y-93160413D01*
X139497733Y-93214197D01*
X139551517Y-93267981D01*
X139659085Y-93294873D01*
X139847330Y-93294873D01*
X139954898Y-93267981D01*
X140008682Y-93214197D01*
X140035574Y-93160413D01*
X140035574Y-93052845D01*
X140008682Y-92999061D01*
X139954898Y-92945277D01*
X139847330Y-92918385D01*
X139659085Y-92918385D01*
X139551517Y-92945277D01*
X139497733Y-92999061D01*
X139470841Y-93052845D01*
X140035574Y-93536902D02*
X139470841Y-93536902D01*
X139470841Y-93671362D01*
X139497733Y-93752038D01*
X139551517Y-93805822D01*
X139605301Y-93832714D01*
X139712869Y-93859606D01*
X139793546Y-93859606D01*
X139901114Y-93832714D01*
X139954898Y-93805822D01*
X140008682Y-93752038D01*
X140035574Y-93671362D01*
X140035574Y-93536902D01*
X139739761Y-94101635D02*
X139739761Y-94289879D01*
X140035574Y-94370555D02*
X140035574Y-94101635D01*
X139470841Y-94101635D01*
X139470841Y-94370555D01*
X140035574Y-94612584D02*
X139470841Y-94612584D01*
X139470841Y-94747044D01*
X139497733Y-94827720D01*
X139551517Y-94881504D01*
X139605301Y-94908396D01*
X139712869Y-94935288D01*
X139793546Y-94935288D01*
X139901114Y-94908396D01*
X139954898Y-94881504D01*
X140008682Y-94827720D01*
X140035574Y-94747044D01*
X140035574Y-94612584D01*
X139470841Y-95284885D02*
X139470841Y-95392453D01*
X139497733Y-95446237D01*
X139551517Y-95500021D01*
X139659085Y-95526913D01*
X139847330Y-95526913D01*
X139954898Y-95500021D01*
X140008682Y-95446237D01*
X140035574Y-95392453D01*
X140035574Y-95284885D01*
X140008682Y-95231101D01*
X139954898Y-95177317D01*
X139847330Y-95150425D01*
X139659085Y-95150425D01*
X139551517Y-95177317D01*
X139497733Y-95231101D01*
X139470841Y-95284885D01*
X139820438Y-95768942D02*
X139820438Y-96199215D01*
X140035574Y-96763948D02*
X140035574Y-96441243D01*
X140035574Y-96602595D02*
X139470841Y-96602595D01*
X139551517Y-96548811D01*
X139605301Y-96495027D01*
X139632193Y-96441243D01*
X140035574Y-97005976D02*
X139470841Y-97005976D01*
X140035574Y-97328681D01*
X139470841Y-97328681D01*
X139659085Y-97839629D02*
X140035574Y-97839629D01*
X139443949Y-97705169D02*
X139847330Y-97570709D01*
X139847330Y-97920306D01*
X140035574Y-98431254D02*
X140035574Y-98108550D01*
X140035574Y-98269902D02*
X139470841Y-98269902D01*
X139551517Y-98216118D01*
X139605301Y-98162334D01*
X139632193Y-98108550D01*
X139659085Y-98915311D02*
X140035574Y-98915311D01*
X139443949Y-98780851D02*
X139847330Y-98646391D01*
X139847330Y-98995987D01*
X139712869Y-99291800D02*
X139685977Y-99238016D01*
X139659085Y-99211124D01*
X139605301Y-99184232D01*
X139578409Y-99184232D01*
X139524625Y-99211124D01*
X139497733Y-99238016D01*
X139470841Y-99291800D01*
X139470841Y-99399368D01*
X139497733Y-99453152D01*
X139524625Y-99480044D01*
X139578409Y-99506936D01*
X139605301Y-99506936D01*
X139659085Y-99480044D01*
X139685977Y-99453152D01*
X139712869Y-99399368D01*
X139712869Y-99291800D01*
X139739761Y-99238016D01*
X139766653Y-99211124D01*
X139820438Y-99184232D01*
X139928006Y-99184232D01*
X139981790Y-99211124D01*
X140008682Y-99238016D01*
X140035574Y-99291800D01*
X140035574Y-99399368D01*
X140008682Y-99453152D01*
X139981790Y-99480044D01*
X139928006Y-99506936D01*
X139820438Y-99506936D01*
X139766653Y-99480044D01*
X139739761Y-99453152D01*
X139712869Y-99399368D01*
%TO.C,D16*%
X189019476Y-124969474D02*
X189019476Y-124404741D01*
X188885015Y-124404741D01*
X188804339Y-124431633D01*
X188750555Y-124485417D01*
X188723663Y-124539201D01*
X188696771Y-124646769D01*
X188696771Y-124727446D01*
X188723663Y-124835014D01*
X188750555Y-124888798D01*
X188804339Y-124942582D01*
X188885015Y-124969474D01*
X189019476Y-124969474D01*
X188454743Y-124969474D02*
X188454743Y-124404741D01*
X188078254Y-124404741D02*
X187970686Y-124404741D01*
X187916902Y-124431633D01*
X187863118Y-124485417D01*
X187836226Y-124592985D01*
X187836226Y-124781230D01*
X187863118Y-124888798D01*
X187916902Y-124942582D01*
X187970686Y-124969474D01*
X188078254Y-124969474D01*
X188132038Y-124942582D01*
X188185822Y-124888798D01*
X188212714Y-124781230D01*
X188212714Y-124592985D01*
X188185822Y-124485417D01*
X188132038Y-124431633D01*
X188078254Y-124404741D01*
X187594197Y-124969474D02*
X187594197Y-124404741D01*
X187459737Y-124404741D01*
X187379061Y-124431633D01*
X187325277Y-124485417D01*
X187298385Y-124539201D01*
X187271493Y-124646769D01*
X187271493Y-124727446D01*
X187298385Y-124835014D01*
X187325277Y-124888798D01*
X187379061Y-124942582D01*
X187459737Y-124969474D01*
X187594197Y-124969474D01*
X187029464Y-124673661D02*
X186841220Y-124673661D01*
X186760544Y-124969474D02*
X187029464Y-124969474D01*
X187029464Y-124404741D01*
X186760544Y-124404741D01*
X186518515Y-124969474D02*
X186518515Y-124404741D01*
X186384055Y-124404741D01*
X186303379Y-124431633D01*
X186249595Y-124485417D01*
X186222703Y-124539201D01*
X186195811Y-124646769D01*
X186195811Y-124727446D01*
X186222703Y-124835014D01*
X186249595Y-124888798D01*
X186303379Y-124942582D01*
X186384055Y-124969474D01*
X186518515Y-124969474D01*
X185846214Y-124404741D02*
X185738646Y-124404741D01*
X185684862Y-124431633D01*
X185631078Y-124485417D01*
X185604186Y-124592985D01*
X185604186Y-124781230D01*
X185631078Y-124888798D01*
X185684862Y-124942582D01*
X185738646Y-124969474D01*
X185846214Y-124969474D01*
X185899998Y-124942582D01*
X185953782Y-124888798D01*
X185980674Y-124781230D01*
X185980674Y-124592985D01*
X185953782Y-124485417D01*
X185899998Y-124431633D01*
X185846214Y-124404741D01*
X185362157Y-124754338D02*
X184931884Y-124754338D01*
X184367151Y-124969474D02*
X184689856Y-124969474D01*
X184528504Y-124969474D02*
X184528504Y-124404741D01*
X184582288Y-124485417D01*
X184636072Y-124539201D01*
X184689856Y-124566093D01*
X184125123Y-124969474D02*
X184125123Y-124404741D01*
X183802418Y-124969474D01*
X183802418Y-124404741D01*
X183291470Y-124592985D02*
X183291470Y-124969474D01*
X183425930Y-124377849D02*
X183560390Y-124781230D01*
X183210793Y-124781230D01*
X182699845Y-124969474D02*
X183022549Y-124969474D01*
X182861197Y-124969474D02*
X182861197Y-124404741D01*
X182914981Y-124485417D01*
X182968765Y-124539201D01*
X183022549Y-124566093D01*
X182215788Y-124592985D02*
X182215788Y-124969474D01*
X182350248Y-124377849D02*
X182484708Y-124781230D01*
X182135112Y-124781230D01*
X181839299Y-124646769D02*
X181893083Y-124619877D01*
X181919975Y-124592985D01*
X181946867Y-124539201D01*
X181946867Y-124512309D01*
X181919975Y-124458525D01*
X181893083Y-124431633D01*
X181839299Y-124404741D01*
X181731731Y-124404741D01*
X181677947Y-124431633D01*
X181651055Y-124458525D01*
X181624163Y-124512309D01*
X181624163Y-124539201D01*
X181651055Y-124592985D01*
X181677947Y-124619877D01*
X181731731Y-124646769D01*
X181839299Y-124646769D01*
X181893083Y-124673661D01*
X181919975Y-124700553D01*
X181946867Y-124754338D01*
X181946867Y-124861906D01*
X181919975Y-124915690D01*
X181893083Y-124942582D01*
X181839299Y-124969474D01*
X181731731Y-124969474D01*
X181677947Y-124942582D01*
X181651055Y-124915690D01*
X181624163Y-124861906D01*
X181624163Y-124754338D01*
X181651055Y-124700553D01*
X181677947Y-124673661D01*
X181731731Y-124646769D01*
%TO.C,D14*%
X159085574Y-130211623D02*
X158520841Y-130211623D01*
X158520841Y-130346084D01*
X158547733Y-130426760D01*
X158601517Y-130480544D01*
X158655301Y-130507436D01*
X158762869Y-130534328D01*
X158843546Y-130534328D01*
X158951114Y-130507436D01*
X159004898Y-130480544D01*
X159058682Y-130426760D01*
X159085574Y-130346084D01*
X159085574Y-130211623D01*
X159085574Y-130776356D02*
X158520841Y-130776356D01*
X158520841Y-131152845D02*
X158520841Y-131260413D01*
X158547733Y-131314197D01*
X158601517Y-131367981D01*
X158709085Y-131394873D01*
X158897330Y-131394873D01*
X159004898Y-131367981D01*
X159058682Y-131314197D01*
X159085574Y-131260413D01*
X159085574Y-131152845D01*
X159058682Y-131099061D01*
X159004898Y-131045277D01*
X158897330Y-131018385D01*
X158709085Y-131018385D01*
X158601517Y-131045277D01*
X158547733Y-131099061D01*
X158520841Y-131152845D01*
X159085574Y-131636902D02*
X158520841Y-131636902D01*
X158520841Y-131771362D01*
X158547733Y-131852038D01*
X158601517Y-131905822D01*
X158655301Y-131932714D01*
X158762869Y-131959606D01*
X158843546Y-131959606D01*
X158951114Y-131932714D01*
X159004898Y-131905822D01*
X159058682Y-131852038D01*
X159085574Y-131771362D01*
X159085574Y-131636902D01*
X158789761Y-132201635D02*
X158789761Y-132389879D01*
X159085574Y-132470555D02*
X159085574Y-132201635D01*
X158520841Y-132201635D01*
X158520841Y-132470555D01*
X159085574Y-132712584D02*
X158520841Y-132712584D01*
X158520841Y-132847044D01*
X158547733Y-132927720D01*
X158601517Y-132981504D01*
X158655301Y-133008396D01*
X158762869Y-133035288D01*
X158843546Y-133035288D01*
X158951114Y-133008396D01*
X159004898Y-132981504D01*
X159058682Y-132927720D01*
X159085574Y-132847044D01*
X159085574Y-132712584D01*
X158520841Y-133384885D02*
X158520841Y-133492453D01*
X158547733Y-133546237D01*
X158601517Y-133600021D01*
X158709085Y-133626913D01*
X158897330Y-133626913D01*
X159004898Y-133600021D01*
X159058682Y-133546237D01*
X159085574Y-133492453D01*
X159085574Y-133384885D01*
X159058682Y-133331101D01*
X159004898Y-133277317D01*
X158897330Y-133250425D01*
X158709085Y-133250425D01*
X158601517Y-133277317D01*
X158547733Y-133331101D01*
X158520841Y-133384885D01*
X158870438Y-133868942D02*
X158870438Y-134299215D01*
X159085574Y-134863948D02*
X159085574Y-134541243D01*
X159085574Y-134702595D02*
X158520841Y-134702595D01*
X158601517Y-134648811D01*
X158655301Y-134595027D01*
X158682193Y-134541243D01*
X159085574Y-135105976D02*
X158520841Y-135105976D01*
X159085574Y-135428681D01*
X158520841Y-135428681D01*
X158709085Y-135939629D02*
X159085574Y-135939629D01*
X158493949Y-135805169D02*
X158897330Y-135670709D01*
X158897330Y-136020306D01*
X159085574Y-136531254D02*
X159085574Y-136208550D01*
X159085574Y-136369902D02*
X158520841Y-136369902D01*
X158601517Y-136316118D01*
X158655301Y-136262334D01*
X158682193Y-136208550D01*
X158709085Y-137015311D02*
X159085574Y-137015311D01*
X158493949Y-136880851D02*
X158897330Y-136746391D01*
X158897330Y-137095987D01*
X158762869Y-137391800D02*
X158735977Y-137338016D01*
X158709085Y-137311124D01*
X158655301Y-137284232D01*
X158628409Y-137284232D01*
X158574625Y-137311124D01*
X158547733Y-137338016D01*
X158520841Y-137391800D01*
X158520841Y-137499368D01*
X158547733Y-137553152D01*
X158574625Y-137580044D01*
X158628409Y-137606936D01*
X158655301Y-137606936D01*
X158709085Y-137580044D01*
X158735977Y-137553152D01*
X158762869Y-137499368D01*
X158762869Y-137391800D01*
X158789761Y-137338016D01*
X158816653Y-137311124D01*
X158870438Y-137284232D01*
X158978006Y-137284232D01*
X159031790Y-137311124D01*
X159058682Y-137338016D01*
X159085574Y-137391800D01*
X159085574Y-137499368D01*
X159058682Y-137553152D01*
X159031790Y-137580044D01*
X158978006Y-137606936D01*
X158870438Y-137606936D01*
X158816653Y-137580044D01*
X158789761Y-137553152D01*
X158762869Y-137499368D01*
%TO.C,D3*%
X178135574Y-73061623D02*
X177570841Y-73061623D01*
X177570841Y-73196084D01*
X177597733Y-73276760D01*
X177651517Y-73330544D01*
X177705301Y-73357436D01*
X177812869Y-73384328D01*
X177893546Y-73384328D01*
X178001114Y-73357436D01*
X178054898Y-73330544D01*
X178108682Y-73276760D01*
X178135574Y-73196084D01*
X178135574Y-73061623D01*
X178135574Y-73626356D02*
X177570841Y-73626356D01*
X177570841Y-74002845D02*
X177570841Y-74110413D01*
X177597733Y-74164197D01*
X177651517Y-74217981D01*
X177759085Y-74244873D01*
X177947330Y-74244873D01*
X178054898Y-74217981D01*
X178108682Y-74164197D01*
X178135574Y-74110413D01*
X178135574Y-74002845D01*
X178108682Y-73949061D01*
X178054898Y-73895277D01*
X177947330Y-73868385D01*
X177759085Y-73868385D01*
X177651517Y-73895277D01*
X177597733Y-73949061D01*
X177570841Y-74002845D01*
X178135574Y-74486902D02*
X177570841Y-74486902D01*
X177570841Y-74621362D01*
X177597733Y-74702038D01*
X177651517Y-74755822D01*
X177705301Y-74782714D01*
X177812869Y-74809606D01*
X177893546Y-74809606D01*
X178001114Y-74782714D01*
X178054898Y-74755822D01*
X178108682Y-74702038D01*
X178135574Y-74621362D01*
X178135574Y-74486902D01*
X177839761Y-75051635D02*
X177839761Y-75239879D01*
X178135574Y-75320555D02*
X178135574Y-75051635D01*
X177570841Y-75051635D01*
X177570841Y-75320555D01*
X178135574Y-75562584D02*
X177570841Y-75562584D01*
X177570841Y-75697044D01*
X177597733Y-75777720D01*
X177651517Y-75831504D01*
X177705301Y-75858396D01*
X177812869Y-75885288D01*
X177893546Y-75885288D01*
X178001114Y-75858396D01*
X178054898Y-75831504D01*
X178108682Y-75777720D01*
X178135574Y-75697044D01*
X178135574Y-75562584D01*
X177570841Y-76234885D02*
X177570841Y-76342453D01*
X177597733Y-76396237D01*
X177651517Y-76450021D01*
X177759085Y-76476913D01*
X177947330Y-76476913D01*
X178054898Y-76450021D01*
X178108682Y-76396237D01*
X178135574Y-76342453D01*
X178135574Y-76234885D01*
X178108682Y-76181101D01*
X178054898Y-76127317D01*
X177947330Y-76100425D01*
X177759085Y-76100425D01*
X177651517Y-76127317D01*
X177597733Y-76181101D01*
X177570841Y-76234885D01*
X177920438Y-76718942D02*
X177920438Y-77149215D01*
X178135574Y-77713948D02*
X178135574Y-77391243D01*
X178135574Y-77552595D02*
X177570841Y-77552595D01*
X177651517Y-77498811D01*
X177705301Y-77445027D01*
X177732193Y-77391243D01*
X178135574Y-77955976D02*
X177570841Y-77955976D01*
X178135574Y-78278681D01*
X177570841Y-78278681D01*
X177759085Y-78789629D02*
X178135574Y-78789629D01*
X177543949Y-78655169D02*
X177947330Y-78520709D01*
X177947330Y-78870306D01*
X178135574Y-79381254D02*
X178135574Y-79058550D01*
X178135574Y-79219902D02*
X177570841Y-79219902D01*
X177651517Y-79166118D01*
X177705301Y-79112334D01*
X177732193Y-79058550D01*
X177759085Y-79865311D02*
X178135574Y-79865311D01*
X177543949Y-79730851D02*
X177947330Y-79596391D01*
X177947330Y-79945987D01*
X177812869Y-80241800D02*
X177785977Y-80188016D01*
X177759085Y-80161124D01*
X177705301Y-80134232D01*
X177678409Y-80134232D01*
X177624625Y-80161124D01*
X177597733Y-80188016D01*
X177570841Y-80241800D01*
X177570841Y-80349368D01*
X177597733Y-80403152D01*
X177624625Y-80430044D01*
X177678409Y-80456936D01*
X177705301Y-80456936D01*
X177759085Y-80430044D01*
X177785977Y-80403152D01*
X177812869Y-80349368D01*
X177812869Y-80241800D01*
X177839761Y-80188016D01*
X177866653Y-80161124D01*
X177920438Y-80134232D01*
X178028006Y-80134232D01*
X178081790Y-80161124D01*
X178108682Y-80188016D01*
X178135574Y-80241800D01*
X178135574Y-80349368D01*
X178108682Y-80403152D01*
X178081790Y-80430044D01*
X178028006Y-80456936D01*
X177920438Y-80456936D01*
X177866653Y-80430044D01*
X177839761Y-80403152D01*
X177812869Y-80349368D01*
%TO.C,D15*%
X178135574Y-130211623D02*
X177570841Y-130211623D01*
X177570841Y-130346084D01*
X177597733Y-130426760D01*
X177651517Y-130480544D01*
X177705301Y-130507436D01*
X177812869Y-130534328D01*
X177893546Y-130534328D01*
X178001114Y-130507436D01*
X178054898Y-130480544D01*
X178108682Y-130426760D01*
X178135574Y-130346084D01*
X178135574Y-130211623D01*
X178135574Y-130776356D02*
X177570841Y-130776356D01*
X177570841Y-131152845D02*
X177570841Y-131260413D01*
X177597733Y-131314197D01*
X177651517Y-131367981D01*
X177759085Y-131394873D01*
X177947330Y-131394873D01*
X178054898Y-131367981D01*
X178108682Y-131314197D01*
X178135574Y-131260413D01*
X178135574Y-131152845D01*
X178108682Y-131099061D01*
X178054898Y-131045277D01*
X177947330Y-131018385D01*
X177759085Y-131018385D01*
X177651517Y-131045277D01*
X177597733Y-131099061D01*
X177570841Y-131152845D01*
X178135574Y-131636902D02*
X177570841Y-131636902D01*
X177570841Y-131771362D01*
X177597733Y-131852038D01*
X177651517Y-131905822D01*
X177705301Y-131932714D01*
X177812869Y-131959606D01*
X177893546Y-131959606D01*
X178001114Y-131932714D01*
X178054898Y-131905822D01*
X178108682Y-131852038D01*
X178135574Y-131771362D01*
X178135574Y-131636902D01*
X177839761Y-132201635D02*
X177839761Y-132389879D01*
X178135574Y-132470555D02*
X178135574Y-132201635D01*
X177570841Y-132201635D01*
X177570841Y-132470555D01*
X178135574Y-132712584D02*
X177570841Y-132712584D01*
X177570841Y-132847044D01*
X177597733Y-132927720D01*
X177651517Y-132981504D01*
X177705301Y-133008396D01*
X177812869Y-133035288D01*
X177893546Y-133035288D01*
X178001114Y-133008396D01*
X178054898Y-132981504D01*
X178108682Y-132927720D01*
X178135574Y-132847044D01*
X178135574Y-132712584D01*
X177570841Y-133384885D02*
X177570841Y-133492453D01*
X177597733Y-133546237D01*
X177651517Y-133600021D01*
X177759085Y-133626913D01*
X177947330Y-133626913D01*
X178054898Y-133600021D01*
X178108682Y-133546237D01*
X178135574Y-133492453D01*
X178135574Y-133384885D01*
X178108682Y-133331101D01*
X178054898Y-133277317D01*
X177947330Y-133250425D01*
X177759085Y-133250425D01*
X177651517Y-133277317D01*
X177597733Y-133331101D01*
X177570841Y-133384885D01*
X177920438Y-133868942D02*
X177920438Y-134299215D01*
X178135574Y-134863948D02*
X178135574Y-134541243D01*
X178135574Y-134702595D02*
X177570841Y-134702595D01*
X177651517Y-134648811D01*
X177705301Y-134595027D01*
X177732193Y-134541243D01*
X178135574Y-135105976D02*
X177570841Y-135105976D01*
X178135574Y-135428681D01*
X177570841Y-135428681D01*
X177759085Y-135939629D02*
X178135574Y-135939629D01*
X177543949Y-135805169D02*
X177947330Y-135670709D01*
X177947330Y-136020306D01*
X178135574Y-136531254D02*
X178135574Y-136208550D01*
X178135574Y-136369902D02*
X177570841Y-136369902D01*
X177651517Y-136316118D01*
X177705301Y-136262334D01*
X177732193Y-136208550D01*
X177759085Y-137015311D02*
X178135574Y-137015311D01*
X177543949Y-136880851D02*
X177947330Y-136746391D01*
X177947330Y-137095987D01*
X177812869Y-137391800D02*
X177785977Y-137338016D01*
X177759085Y-137311124D01*
X177705301Y-137284232D01*
X177678409Y-137284232D01*
X177624625Y-137311124D01*
X177597733Y-137338016D01*
X177570841Y-137391800D01*
X177570841Y-137499368D01*
X177597733Y-137553152D01*
X177624625Y-137580044D01*
X177678409Y-137606936D01*
X177705301Y-137606936D01*
X177759085Y-137580044D01*
X177785977Y-137553152D01*
X177812869Y-137499368D01*
X177812869Y-137391800D01*
X177839761Y-137338016D01*
X177866653Y-137311124D01*
X177920438Y-137284232D01*
X178028006Y-137284232D01*
X178081790Y-137311124D01*
X178108682Y-137338016D01*
X178135574Y-137391800D01*
X178135574Y-137499368D01*
X178108682Y-137553152D01*
X178081790Y-137580044D01*
X178028006Y-137606936D01*
X177920438Y-137606936D01*
X177866653Y-137580044D01*
X177839761Y-137553152D01*
X177812869Y-137499368D01*
D15*
%TO.C,LED6*%
X175680147Y-99944880D02*
X176156338Y-99944880D01*
X176156338Y-98944880D01*
X175346814Y-99421071D02*
X175013480Y-99421071D01*
X174870623Y-99944880D02*
X175346814Y-99944880D01*
X175346814Y-98944880D01*
X174870623Y-98944880D01*
X174442052Y-99944880D02*
X174442052Y-98944880D01*
X174203957Y-98944880D01*
X174061100Y-98992500D01*
X173965861Y-99087738D01*
X173918242Y-99182976D01*
X173870623Y-99373452D01*
X173870623Y-99516309D01*
X173918242Y-99706785D01*
X173965861Y-99802023D01*
X174061100Y-99897261D01*
X174203957Y-99944880D01*
X174442052Y-99944880D01*
X173013480Y-98944880D02*
X173203957Y-98944880D01*
X173299195Y-98992500D01*
X173346814Y-99040119D01*
X173442052Y-99182976D01*
X173489671Y-99373452D01*
X173489671Y-99754404D01*
X173442052Y-99849642D01*
X173394433Y-99897261D01*
X173299195Y-99944880D01*
X173108719Y-99944880D01*
X173013480Y-99897261D01*
X172965861Y-99849642D01*
X172918242Y-99754404D01*
X172918242Y-99516309D01*
X172965861Y-99421071D01*
X173013480Y-99373452D01*
X173108719Y-99325833D01*
X173299195Y-99325833D01*
X173394433Y-99373452D01*
X173442052Y-99421071D01*
X173489671Y-99516309D01*
X171315385Y-99907380D02*
X171886814Y-99907380D01*
X171601100Y-99907380D02*
X171601100Y-98907380D01*
X171696338Y-99050238D01*
X171791576Y-99145476D01*
X171886814Y-99193095D01*
%TO.C,LED1*%
X124660147Y-82569880D02*
X125136338Y-82569880D01*
X125136338Y-81569880D01*
X124326814Y-82046071D02*
X123993480Y-82046071D01*
X123850623Y-82569880D02*
X124326814Y-82569880D01*
X124326814Y-81569880D01*
X123850623Y-81569880D01*
X123422052Y-82569880D02*
X123422052Y-81569880D01*
X123183957Y-81569880D01*
X123041100Y-81617500D01*
X122945861Y-81712738D01*
X122898242Y-81807976D01*
X122850623Y-81998452D01*
X122850623Y-82141309D01*
X122898242Y-82331785D01*
X122945861Y-82427023D01*
X123041100Y-82522261D01*
X123183957Y-82569880D01*
X123422052Y-82569880D01*
X121898242Y-82569880D02*
X122469671Y-82569880D01*
X122183957Y-82569880D02*
X122183957Y-81569880D01*
X122279195Y-81712738D01*
X122374433Y-81807976D01*
X122469671Y-81855595D01*
X126215385Y-82607380D02*
X126786814Y-82607380D01*
X126501100Y-82607380D02*
X126501100Y-81607380D01*
X126596338Y-81750238D01*
X126691576Y-81845476D01*
X126786814Y-81893095D01*
D13*
%TO.C,S13*%
X131369195Y-125711961D02*
X131226338Y-125759580D01*
X130988242Y-125759580D01*
X130893004Y-125711961D01*
X130845385Y-125664342D01*
X130797766Y-125569104D01*
X130797766Y-125473866D01*
X130845385Y-125378628D01*
X130893004Y-125331009D01*
X130988242Y-125283390D01*
X131178719Y-125235771D01*
X131273957Y-125188152D01*
X131321576Y-125140533D01*
X131369195Y-125045295D01*
X131369195Y-124950057D01*
X131321576Y-124854819D01*
X131273957Y-124807200D01*
X131178719Y-124759580D01*
X130940623Y-124759580D01*
X130797766Y-124807200D01*
X129845385Y-125759580D02*
X130416814Y-125759580D01*
X130131100Y-125759580D02*
X130131100Y-124759580D01*
X130226338Y-124902438D01*
X130321576Y-124997676D01*
X130416814Y-125045295D01*
X129512052Y-124759580D02*
X128893004Y-124759580D01*
X129226338Y-125140533D01*
X129083480Y-125140533D01*
X128988242Y-125188152D01*
X128940623Y-125235771D01*
X128893004Y-125331009D01*
X128893004Y-125569104D01*
X128940623Y-125664342D01*
X128988242Y-125711961D01*
X129083480Y-125759580D01*
X129369195Y-125759580D01*
X129464433Y-125711961D01*
X129512052Y-125664342D01*
D15*
%TO.C,LED9*%
X124660147Y-120669880D02*
X125136338Y-120669880D01*
X125136338Y-119669880D01*
X124326814Y-120146071D02*
X123993480Y-120146071D01*
X123850623Y-120669880D02*
X124326814Y-120669880D01*
X124326814Y-119669880D01*
X123850623Y-119669880D01*
X123422052Y-120669880D02*
X123422052Y-119669880D01*
X123183957Y-119669880D01*
X123041100Y-119717500D01*
X122945861Y-119812738D01*
X122898242Y-119907976D01*
X122850623Y-120098452D01*
X122850623Y-120241309D01*
X122898242Y-120431785D01*
X122945861Y-120527023D01*
X123041100Y-120622261D01*
X123183957Y-120669880D01*
X123422052Y-120669880D01*
X122374433Y-120669880D02*
X122183957Y-120669880D01*
X122088719Y-120622261D01*
X122041100Y-120574642D01*
X121945861Y-120431785D01*
X121898242Y-120241309D01*
X121898242Y-119860357D01*
X121945861Y-119765119D01*
X121993480Y-119717500D01*
X122088719Y-119669880D01*
X122279195Y-119669880D01*
X122374433Y-119717500D01*
X122422052Y-119765119D01*
X122469671Y-119860357D01*
X122469671Y-120098452D01*
X122422052Y-120193690D01*
X122374433Y-120241309D01*
X122279195Y-120288928D01*
X122088719Y-120288928D01*
X121993480Y-120241309D01*
X121945861Y-120193690D01*
X121898242Y-120098452D01*
X126215385Y-120707380D02*
X126786814Y-120707380D01*
X126501100Y-120707380D02*
X126501100Y-119707380D01*
X126596338Y-119850238D01*
X126691576Y-119945476D01*
X126786814Y-119993095D01*
D13*
%TO.C,S9*%
X130893004Y-106658361D02*
X130750147Y-106705980D01*
X130512052Y-106705980D01*
X130416814Y-106658361D01*
X130369195Y-106610742D01*
X130321576Y-106515504D01*
X130321576Y-106420266D01*
X130369195Y-106325028D01*
X130416814Y-106277409D01*
X130512052Y-106229790D01*
X130702528Y-106182171D01*
X130797766Y-106134552D01*
X130845385Y-106086933D01*
X130893004Y-105991695D01*
X130893004Y-105896457D01*
X130845385Y-105801219D01*
X130797766Y-105753600D01*
X130702528Y-105705980D01*
X130464433Y-105705980D01*
X130321576Y-105753600D01*
X129845385Y-106705980D02*
X129654909Y-106705980D01*
X129559671Y-106658361D01*
X129512052Y-106610742D01*
X129416814Y-106467885D01*
X129369195Y-106277409D01*
X129369195Y-105896457D01*
X129416814Y-105801219D01*
X129464433Y-105753600D01*
X129559671Y-105705980D01*
X129750147Y-105705980D01*
X129845385Y-105753600D01*
X129893004Y-105801219D01*
X129940623Y-105896457D01*
X129940623Y-106134552D01*
X129893004Y-106229790D01*
X129845385Y-106277409D01*
X129750147Y-106325028D01*
X129559671Y-106325028D01*
X129464433Y-106277409D01*
X129416814Y-106229790D01*
X129369195Y-106134552D01*
D15*
%TO.C,LED11*%
X163236338Y-120669880D02*
X163712528Y-120669880D01*
X163712528Y-119669880D01*
X162903004Y-120146071D02*
X162569671Y-120146071D01*
X162426814Y-120669880D02*
X162903004Y-120669880D01*
X162903004Y-119669880D01*
X162426814Y-119669880D01*
X161998242Y-120669880D02*
X161998242Y-119669880D01*
X161760147Y-119669880D01*
X161617290Y-119717500D01*
X161522052Y-119812738D01*
X161474433Y-119907976D01*
X161426814Y-120098452D01*
X161426814Y-120241309D01*
X161474433Y-120431785D01*
X161522052Y-120527023D01*
X161617290Y-120622261D01*
X161760147Y-120669880D01*
X161998242Y-120669880D01*
X160474433Y-120669880D02*
X161045861Y-120669880D01*
X160760147Y-120669880D02*
X160760147Y-119669880D01*
X160855385Y-119812738D01*
X160950623Y-119907976D01*
X161045861Y-119955595D01*
X159522052Y-120669880D02*
X160093480Y-120669880D01*
X159807766Y-120669880D02*
X159807766Y-119669880D01*
X159903004Y-119812738D01*
X159998242Y-119907976D01*
X160093480Y-119955595D01*
X164315385Y-120707380D02*
X164886814Y-120707380D01*
X164601100Y-120707380D02*
X164601100Y-119707380D01*
X164696338Y-119850238D01*
X164791576Y-119945476D01*
X164886814Y-119993095D01*
D14*
%TO.C,D1*%
X140035574Y-73061623D02*
X139470841Y-73061623D01*
X139470841Y-73196084D01*
X139497733Y-73276760D01*
X139551517Y-73330544D01*
X139605301Y-73357436D01*
X139712869Y-73384328D01*
X139793546Y-73384328D01*
X139901114Y-73357436D01*
X139954898Y-73330544D01*
X140008682Y-73276760D01*
X140035574Y-73196084D01*
X140035574Y-73061623D01*
X140035574Y-73626356D02*
X139470841Y-73626356D01*
X139470841Y-74002845D02*
X139470841Y-74110413D01*
X139497733Y-74164197D01*
X139551517Y-74217981D01*
X139659085Y-74244873D01*
X139847330Y-74244873D01*
X139954898Y-74217981D01*
X140008682Y-74164197D01*
X140035574Y-74110413D01*
X140035574Y-74002845D01*
X140008682Y-73949061D01*
X139954898Y-73895277D01*
X139847330Y-73868385D01*
X139659085Y-73868385D01*
X139551517Y-73895277D01*
X139497733Y-73949061D01*
X139470841Y-74002845D01*
X140035574Y-74486902D02*
X139470841Y-74486902D01*
X139470841Y-74621362D01*
X139497733Y-74702038D01*
X139551517Y-74755822D01*
X139605301Y-74782714D01*
X139712869Y-74809606D01*
X139793546Y-74809606D01*
X139901114Y-74782714D01*
X139954898Y-74755822D01*
X140008682Y-74702038D01*
X140035574Y-74621362D01*
X140035574Y-74486902D01*
X139739761Y-75051635D02*
X139739761Y-75239879D01*
X140035574Y-75320555D02*
X140035574Y-75051635D01*
X139470841Y-75051635D01*
X139470841Y-75320555D01*
X140035574Y-75562584D02*
X139470841Y-75562584D01*
X139470841Y-75697044D01*
X139497733Y-75777720D01*
X139551517Y-75831504D01*
X139605301Y-75858396D01*
X139712869Y-75885288D01*
X139793546Y-75885288D01*
X139901114Y-75858396D01*
X139954898Y-75831504D01*
X140008682Y-75777720D01*
X140035574Y-75697044D01*
X140035574Y-75562584D01*
X139470841Y-76234885D02*
X139470841Y-76342453D01*
X139497733Y-76396237D01*
X139551517Y-76450021D01*
X139659085Y-76476913D01*
X139847330Y-76476913D01*
X139954898Y-76450021D01*
X140008682Y-76396237D01*
X140035574Y-76342453D01*
X140035574Y-76234885D01*
X140008682Y-76181101D01*
X139954898Y-76127317D01*
X139847330Y-76100425D01*
X139659085Y-76100425D01*
X139551517Y-76127317D01*
X139497733Y-76181101D01*
X139470841Y-76234885D01*
X139820438Y-76718942D02*
X139820438Y-77149215D01*
X140035574Y-77713948D02*
X140035574Y-77391243D01*
X140035574Y-77552595D02*
X139470841Y-77552595D01*
X139551517Y-77498811D01*
X139605301Y-77445027D01*
X139632193Y-77391243D01*
X140035574Y-77955976D02*
X139470841Y-77955976D01*
X140035574Y-78278681D01*
X139470841Y-78278681D01*
X139659085Y-78789629D02*
X140035574Y-78789629D01*
X139443949Y-78655169D02*
X139847330Y-78520709D01*
X139847330Y-78870306D01*
X140035574Y-79381254D02*
X140035574Y-79058550D01*
X140035574Y-79219902D02*
X139470841Y-79219902D01*
X139551517Y-79166118D01*
X139605301Y-79112334D01*
X139632193Y-79058550D01*
X139659085Y-79865311D02*
X140035574Y-79865311D01*
X139443949Y-79730851D02*
X139847330Y-79596391D01*
X139847330Y-79945987D01*
X139712869Y-80241800D02*
X139685977Y-80188016D01*
X139659085Y-80161124D01*
X139605301Y-80134232D01*
X139578409Y-80134232D01*
X139524625Y-80161124D01*
X139497733Y-80188016D01*
X139470841Y-80241800D01*
X139470841Y-80349368D01*
X139497733Y-80403152D01*
X139524625Y-80430044D01*
X139578409Y-80456936D01*
X139605301Y-80456936D01*
X139659085Y-80430044D01*
X139685977Y-80403152D01*
X139712869Y-80349368D01*
X139712869Y-80241800D01*
X139739761Y-80188016D01*
X139766653Y-80161124D01*
X139820438Y-80134232D01*
X139928006Y-80134232D01*
X139981790Y-80161124D01*
X140008682Y-80188016D01*
X140035574Y-80241800D01*
X140035574Y-80349368D01*
X140008682Y-80403152D01*
X139981790Y-80430044D01*
X139928006Y-80456936D01*
X139820438Y-80456936D01*
X139766653Y-80430044D01*
X139739761Y-80403152D01*
X139712869Y-80349368D01*
D13*
%TO.C,S16*%
X188519195Y-125711961D02*
X188376338Y-125759580D01*
X188138242Y-125759580D01*
X188043004Y-125711961D01*
X187995385Y-125664342D01*
X187947766Y-125569104D01*
X187947766Y-125473866D01*
X187995385Y-125378628D01*
X188043004Y-125331009D01*
X188138242Y-125283390D01*
X188328719Y-125235771D01*
X188423957Y-125188152D01*
X188471576Y-125140533D01*
X188519195Y-125045295D01*
X188519195Y-124950057D01*
X188471576Y-124854819D01*
X188423957Y-124807200D01*
X188328719Y-124759580D01*
X188090623Y-124759580D01*
X187947766Y-124807200D01*
X186995385Y-125759580D02*
X187566814Y-125759580D01*
X187281100Y-125759580D02*
X187281100Y-124759580D01*
X187376338Y-124902438D01*
X187471576Y-124997676D01*
X187566814Y-125045295D01*
X186138242Y-124759580D02*
X186328719Y-124759580D01*
X186423957Y-124807200D01*
X186471576Y-124854819D01*
X186566814Y-124997676D01*
X186614433Y-125188152D01*
X186614433Y-125569104D01*
X186566814Y-125664342D01*
X186519195Y-125711961D01*
X186423957Y-125759580D01*
X186233480Y-125759580D01*
X186138242Y-125711961D01*
X186090623Y-125664342D01*
X186043004Y-125569104D01*
X186043004Y-125331009D01*
X186090623Y-125235771D01*
X186138242Y-125188152D01*
X186233480Y-125140533D01*
X186423957Y-125140533D01*
X186519195Y-125188152D01*
X186566814Y-125235771D01*
X186614433Y-125331009D01*
D15*
%TO.C,LED15*%
X157106338Y-138044880D02*
X157582528Y-138044880D01*
X157582528Y-137044880D01*
X156773004Y-137521071D02*
X156439671Y-137521071D01*
X156296814Y-138044880D02*
X156773004Y-138044880D01*
X156773004Y-137044880D01*
X156296814Y-137044880D01*
X155868242Y-138044880D02*
X155868242Y-137044880D01*
X155630147Y-137044880D01*
X155487290Y-137092500D01*
X155392052Y-137187738D01*
X155344433Y-137282976D01*
X155296814Y-137473452D01*
X155296814Y-137616309D01*
X155344433Y-137806785D01*
X155392052Y-137902023D01*
X155487290Y-137997261D01*
X155630147Y-138044880D01*
X155868242Y-138044880D01*
X154344433Y-138044880D02*
X154915861Y-138044880D01*
X154630147Y-138044880D02*
X154630147Y-137044880D01*
X154725385Y-137187738D01*
X154820623Y-137282976D01*
X154915861Y-137330595D01*
X153439671Y-137044880D02*
X153915861Y-137044880D01*
X153963480Y-137521071D01*
X153915861Y-137473452D01*
X153820623Y-137425833D01*
X153582528Y-137425833D01*
X153487290Y-137473452D01*
X153439671Y-137521071D01*
X153392052Y-137616309D01*
X153392052Y-137854404D01*
X153439671Y-137949642D01*
X153487290Y-137997261D01*
X153582528Y-138044880D01*
X153820623Y-138044880D01*
X153915861Y-137997261D01*
X153963480Y-137949642D01*
X152265385Y-138007380D02*
X152836814Y-138007380D01*
X152551100Y-138007380D02*
X152551100Y-137007380D01*
X152646338Y-137150238D01*
X152741576Y-137245476D01*
X152836814Y-137293095D01*
D14*
%TO.C,D12*%
X189019476Y-105919474D02*
X189019476Y-105354741D01*
X188885015Y-105354741D01*
X188804339Y-105381633D01*
X188750555Y-105435417D01*
X188723663Y-105489201D01*
X188696771Y-105596769D01*
X188696771Y-105677446D01*
X188723663Y-105785014D01*
X188750555Y-105838798D01*
X188804339Y-105892582D01*
X188885015Y-105919474D01*
X189019476Y-105919474D01*
X188454743Y-105919474D02*
X188454743Y-105354741D01*
X188078254Y-105354741D02*
X187970686Y-105354741D01*
X187916902Y-105381633D01*
X187863118Y-105435417D01*
X187836226Y-105542985D01*
X187836226Y-105731230D01*
X187863118Y-105838798D01*
X187916902Y-105892582D01*
X187970686Y-105919474D01*
X188078254Y-105919474D01*
X188132038Y-105892582D01*
X188185822Y-105838798D01*
X188212714Y-105731230D01*
X188212714Y-105542985D01*
X188185822Y-105435417D01*
X188132038Y-105381633D01*
X188078254Y-105354741D01*
X187594197Y-105919474D02*
X187594197Y-105354741D01*
X187459737Y-105354741D01*
X187379061Y-105381633D01*
X187325277Y-105435417D01*
X187298385Y-105489201D01*
X187271493Y-105596769D01*
X187271493Y-105677446D01*
X187298385Y-105785014D01*
X187325277Y-105838798D01*
X187379061Y-105892582D01*
X187459737Y-105919474D01*
X187594197Y-105919474D01*
X187029464Y-105623661D02*
X186841220Y-105623661D01*
X186760544Y-105919474D02*
X187029464Y-105919474D01*
X187029464Y-105354741D01*
X186760544Y-105354741D01*
X186518515Y-105919474D02*
X186518515Y-105354741D01*
X186384055Y-105354741D01*
X186303379Y-105381633D01*
X186249595Y-105435417D01*
X186222703Y-105489201D01*
X186195811Y-105596769D01*
X186195811Y-105677446D01*
X186222703Y-105785014D01*
X186249595Y-105838798D01*
X186303379Y-105892582D01*
X186384055Y-105919474D01*
X186518515Y-105919474D01*
X185846214Y-105354741D02*
X185738646Y-105354741D01*
X185684862Y-105381633D01*
X185631078Y-105435417D01*
X185604186Y-105542985D01*
X185604186Y-105731230D01*
X185631078Y-105838798D01*
X185684862Y-105892582D01*
X185738646Y-105919474D01*
X185846214Y-105919474D01*
X185899998Y-105892582D01*
X185953782Y-105838798D01*
X185980674Y-105731230D01*
X185980674Y-105542985D01*
X185953782Y-105435417D01*
X185899998Y-105381633D01*
X185846214Y-105354741D01*
X185362157Y-105704338D02*
X184931884Y-105704338D01*
X184367151Y-105919474D02*
X184689856Y-105919474D01*
X184528504Y-105919474D02*
X184528504Y-105354741D01*
X184582288Y-105435417D01*
X184636072Y-105489201D01*
X184689856Y-105516093D01*
X184125123Y-105919474D02*
X184125123Y-105354741D01*
X183802418Y-105919474D01*
X183802418Y-105354741D01*
X183291470Y-105542985D02*
X183291470Y-105919474D01*
X183425930Y-105327849D02*
X183560390Y-105731230D01*
X183210793Y-105731230D01*
X182699845Y-105919474D02*
X183022549Y-105919474D01*
X182861197Y-105919474D02*
X182861197Y-105354741D01*
X182914981Y-105435417D01*
X182968765Y-105489201D01*
X183022549Y-105516093D01*
X182215788Y-105542985D02*
X182215788Y-105919474D01*
X182350248Y-105327849D02*
X182484708Y-105731230D01*
X182135112Y-105731230D01*
X181839299Y-105596769D02*
X181893083Y-105569877D01*
X181919975Y-105542985D01*
X181946867Y-105489201D01*
X181946867Y-105462309D01*
X181919975Y-105408525D01*
X181893083Y-105381633D01*
X181839299Y-105354741D01*
X181731731Y-105354741D01*
X181677947Y-105381633D01*
X181651055Y-105408525D01*
X181624163Y-105462309D01*
X181624163Y-105489201D01*
X181651055Y-105542985D01*
X181677947Y-105569877D01*
X181731731Y-105596769D01*
X181839299Y-105596769D01*
X181893083Y-105623661D01*
X181919975Y-105650553D01*
X181946867Y-105704338D01*
X181946867Y-105811906D01*
X181919975Y-105865690D01*
X181893083Y-105892582D01*
X181839299Y-105919474D01*
X181731731Y-105919474D01*
X181677947Y-105892582D01*
X181651055Y-105865690D01*
X181624163Y-105811906D01*
X181624163Y-105704338D01*
X181651055Y-105650553D01*
X181677947Y-105623661D01*
X181731731Y-105596769D01*
D15*
%TO.C,LED8*%
X137580147Y-99944880D02*
X138056338Y-99944880D01*
X138056338Y-98944880D01*
X137246814Y-99421071D02*
X136913480Y-99421071D01*
X136770623Y-99944880D02*
X137246814Y-99944880D01*
X137246814Y-98944880D01*
X136770623Y-98944880D01*
X136342052Y-99944880D02*
X136342052Y-98944880D01*
X136103957Y-98944880D01*
X135961100Y-98992500D01*
X135865861Y-99087738D01*
X135818242Y-99182976D01*
X135770623Y-99373452D01*
X135770623Y-99516309D01*
X135818242Y-99706785D01*
X135865861Y-99802023D01*
X135961100Y-99897261D01*
X136103957Y-99944880D01*
X136342052Y-99944880D01*
X135199195Y-99373452D02*
X135294433Y-99325833D01*
X135342052Y-99278214D01*
X135389671Y-99182976D01*
X135389671Y-99135357D01*
X135342052Y-99040119D01*
X135294433Y-98992500D01*
X135199195Y-98944880D01*
X135008719Y-98944880D01*
X134913480Y-98992500D01*
X134865861Y-99040119D01*
X134818242Y-99135357D01*
X134818242Y-99182976D01*
X134865861Y-99278214D01*
X134913480Y-99325833D01*
X135008719Y-99373452D01*
X135199195Y-99373452D01*
X135294433Y-99421071D01*
X135342052Y-99468690D01*
X135389671Y-99563928D01*
X135389671Y-99754404D01*
X135342052Y-99849642D01*
X135294433Y-99897261D01*
X135199195Y-99944880D01*
X135008719Y-99944880D01*
X134913480Y-99897261D01*
X134865861Y-99849642D01*
X134818242Y-99754404D01*
X134818242Y-99563928D01*
X134865861Y-99468690D01*
X134913480Y-99421071D01*
X135008719Y-99373452D01*
X133215385Y-99907380D02*
X133786814Y-99907380D01*
X133501100Y-99907380D02*
X133501100Y-98907380D01*
X133596338Y-99050238D01*
X133691576Y-99145476D01*
X133786814Y-99193095D01*
D14*
%TO.C,D2*%
X159085574Y-73061623D02*
X158520841Y-73061623D01*
X158520841Y-73196084D01*
X158547733Y-73276760D01*
X158601517Y-73330544D01*
X158655301Y-73357436D01*
X158762869Y-73384328D01*
X158843546Y-73384328D01*
X158951114Y-73357436D01*
X159004898Y-73330544D01*
X159058682Y-73276760D01*
X159085574Y-73196084D01*
X159085574Y-73061623D01*
X159085574Y-73626356D02*
X158520841Y-73626356D01*
X158520841Y-74002845D02*
X158520841Y-74110413D01*
X158547733Y-74164197D01*
X158601517Y-74217981D01*
X158709085Y-74244873D01*
X158897330Y-74244873D01*
X159004898Y-74217981D01*
X159058682Y-74164197D01*
X159085574Y-74110413D01*
X159085574Y-74002845D01*
X159058682Y-73949061D01*
X159004898Y-73895277D01*
X158897330Y-73868385D01*
X158709085Y-73868385D01*
X158601517Y-73895277D01*
X158547733Y-73949061D01*
X158520841Y-74002845D01*
X159085574Y-74486902D02*
X158520841Y-74486902D01*
X158520841Y-74621362D01*
X158547733Y-74702038D01*
X158601517Y-74755822D01*
X158655301Y-74782714D01*
X158762869Y-74809606D01*
X158843546Y-74809606D01*
X158951114Y-74782714D01*
X159004898Y-74755822D01*
X159058682Y-74702038D01*
X159085574Y-74621362D01*
X159085574Y-74486902D01*
X158789761Y-75051635D02*
X158789761Y-75239879D01*
X159085574Y-75320555D02*
X159085574Y-75051635D01*
X158520841Y-75051635D01*
X158520841Y-75320555D01*
X159085574Y-75562584D02*
X158520841Y-75562584D01*
X158520841Y-75697044D01*
X158547733Y-75777720D01*
X158601517Y-75831504D01*
X158655301Y-75858396D01*
X158762869Y-75885288D01*
X158843546Y-75885288D01*
X158951114Y-75858396D01*
X159004898Y-75831504D01*
X159058682Y-75777720D01*
X159085574Y-75697044D01*
X159085574Y-75562584D01*
X158520841Y-76234885D02*
X158520841Y-76342453D01*
X158547733Y-76396237D01*
X158601517Y-76450021D01*
X158709085Y-76476913D01*
X158897330Y-76476913D01*
X159004898Y-76450021D01*
X159058682Y-76396237D01*
X159085574Y-76342453D01*
X159085574Y-76234885D01*
X159058682Y-76181101D01*
X159004898Y-76127317D01*
X158897330Y-76100425D01*
X158709085Y-76100425D01*
X158601517Y-76127317D01*
X158547733Y-76181101D01*
X158520841Y-76234885D01*
X158870438Y-76718942D02*
X158870438Y-77149215D01*
X159085574Y-77713948D02*
X159085574Y-77391243D01*
X159085574Y-77552595D02*
X158520841Y-77552595D01*
X158601517Y-77498811D01*
X158655301Y-77445027D01*
X158682193Y-77391243D01*
X159085574Y-77955976D02*
X158520841Y-77955976D01*
X159085574Y-78278681D01*
X158520841Y-78278681D01*
X158709085Y-78789629D02*
X159085574Y-78789629D01*
X158493949Y-78655169D02*
X158897330Y-78520709D01*
X158897330Y-78870306D01*
X159085574Y-79381254D02*
X159085574Y-79058550D01*
X159085574Y-79219902D02*
X158520841Y-79219902D01*
X158601517Y-79166118D01*
X158655301Y-79112334D01*
X158682193Y-79058550D01*
X158709085Y-79865311D02*
X159085574Y-79865311D01*
X158493949Y-79730851D02*
X158897330Y-79596391D01*
X158897330Y-79945987D01*
X158762869Y-80241800D02*
X158735977Y-80188016D01*
X158709085Y-80161124D01*
X158655301Y-80134232D01*
X158628409Y-80134232D01*
X158574625Y-80161124D01*
X158547733Y-80188016D01*
X158520841Y-80241800D01*
X158520841Y-80349368D01*
X158547733Y-80403152D01*
X158574625Y-80430044D01*
X158628409Y-80456936D01*
X158655301Y-80456936D01*
X158709085Y-80430044D01*
X158735977Y-80403152D01*
X158762869Y-80349368D01*
X158762869Y-80241800D01*
X158789761Y-80188016D01*
X158816653Y-80161124D01*
X158870438Y-80134232D01*
X158978006Y-80134232D01*
X159031790Y-80161124D01*
X159058682Y-80188016D01*
X159085574Y-80241800D01*
X159085574Y-80349368D01*
X159058682Y-80403152D01*
X159031790Y-80430044D01*
X158978006Y-80456936D01*
X158870438Y-80456936D01*
X158816653Y-80430044D01*
X158789761Y-80403152D01*
X158762869Y-80349368D01*
D15*
%TO.C,LED14*%
X176156338Y-138044880D02*
X176632528Y-138044880D01*
X176632528Y-137044880D01*
X175823004Y-137521071D02*
X175489671Y-137521071D01*
X175346814Y-138044880D02*
X175823004Y-138044880D01*
X175823004Y-137044880D01*
X175346814Y-137044880D01*
X174918242Y-138044880D02*
X174918242Y-137044880D01*
X174680147Y-137044880D01*
X174537290Y-137092500D01*
X174442052Y-137187738D01*
X174394433Y-137282976D01*
X174346814Y-137473452D01*
X174346814Y-137616309D01*
X174394433Y-137806785D01*
X174442052Y-137902023D01*
X174537290Y-137997261D01*
X174680147Y-138044880D01*
X174918242Y-138044880D01*
X173394433Y-138044880D02*
X173965861Y-138044880D01*
X173680147Y-138044880D02*
X173680147Y-137044880D01*
X173775385Y-137187738D01*
X173870623Y-137282976D01*
X173965861Y-137330595D01*
X172537290Y-137378214D02*
X172537290Y-138044880D01*
X172775385Y-136997261D02*
X173013480Y-137711547D01*
X172394433Y-137711547D01*
X171315385Y-138007380D02*
X171886814Y-138007380D01*
X171601100Y-138007380D02*
X171601100Y-137007380D01*
X171696338Y-137150238D01*
X171791576Y-137245476D01*
X171886814Y-137293095D01*
D13*
%TO.C,S10*%
X150419195Y-106658361D02*
X150276338Y-106705980D01*
X150038242Y-106705980D01*
X149943004Y-106658361D01*
X149895385Y-106610742D01*
X149847766Y-106515504D01*
X149847766Y-106420266D01*
X149895385Y-106325028D01*
X149943004Y-106277409D01*
X150038242Y-106229790D01*
X150228719Y-106182171D01*
X150323957Y-106134552D01*
X150371576Y-106086933D01*
X150419195Y-105991695D01*
X150419195Y-105896457D01*
X150371576Y-105801219D01*
X150323957Y-105753600D01*
X150228719Y-105705980D01*
X149990623Y-105705980D01*
X149847766Y-105753600D01*
X148895385Y-106705980D02*
X149466814Y-106705980D01*
X149181100Y-106705980D02*
X149181100Y-105705980D01*
X149276338Y-105848838D01*
X149371576Y-105944076D01*
X149466814Y-105991695D01*
X148276338Y-105705980D02*
X148181100Y-105705980D01*
X148085861Y-105753600D01*
X148038242Y-105801219D01*
X147990623Y-105896457D01*
X147943004Y-106086933D01*
X147943004Y-106325028D01*
X147990623Y-106515504D01*
X148038242Y-106610742D01*
X148085861Y-106658361D01*
X148181100Y-106705980D01*
X148276338Y-106705980D01*
X148371576Y-106658361D01*
X148419195Y-106610742D01*
X148466814Y-106515504D01*
X148514433Y-106325028D01*
X148514433Y-106086933D01*
X148466814Y-105896457D01*
X148419195Y-105801219D01*
X148371576Y-105753600D01*
X148276338Y-105705980D01*
D15*
%TO.C,S1*%
X134811100Y-73503600D02*
X129451100Y-73503600D01*
X134811100Y-69503600D02*
X134811100Y-73503600D01*
X123905100Y-71681600D02*
X123905100Y-75393600D01*
D16*
X122751100Y-71173600D02*
X122751100Y-76253600D01*
D15*
X134811100Y-69503600D02*
X126191100Y-69503600D01*
X123913100Y-75393600D02*
X127541100Y-75393600D01*
X129431100Y-73503600D02*
G75*
G03*
X127541100Y-75393600I0J-1890000D01*
G01*
X126191100Y-69502600D02*
G75*
G03*
X123905100Y-71788600I0J-2286000D01*
G01*
D17*
%TO.C,D10*%
X158750000Y-115570000D02*
X158750000Y-115824000D01*
X158750000Y-110490000D02*
X158750000Y-110236000D01*
X157988000Y-115570000D02*
X158750000Y-115570000D01*
X158115000Y-114935000D02*
X159385000Y-114935000D01*
X159512000Y-110490000D02*
X158750000Y-110490000D01*
X159512000Y-115570000D02*
X159512000Y-110490000D01*
X157988000Y-110490000D02*
X157988000Y-115570000D01*
X158750000Y-115570000D02*
X159512000Y-115570000D01*
X158750000Y-110490000D02*
X157988000Y-110490000D01*
D16*
%TO.C,LED7*%
X152951100Y-102180000D02*
X145151100Y-102180000D01*
X152951100Y-100580000D02*
X152951100Y-102180000D01*
X145151100Y-98480000D02*
X152951100Y-98480000D01*
D15*
%TO.C,S15*%
X172911100Y-126653600D02*
X172911100Y-130653600D01*
X162013100Y-132543600D02*
X165641100Y-132543600D01*
D16*
X160851100Y-128323600D02*
X160851100Y-133403600D01*
D15*
X172911100Y-126653600D02*
X164291100Y-126653600D01*
X162005100Y-128831600D02*
X162005100Y-132543600D01*
X172911100Y-130653600D02*
X167551100Y-130653600D01*
X164291100Y-126652600D02*
G75*
G03*
X162005100Y-128938600I0J-2286000D01*
G01*
X167531100Y-130653600D02*
G75*
G03*
X165641100Y-132543600I0J-1890000D01*
G01*
D16*
%TO.C,S8*%
X179901100Y-90223600D02*
X179901100Y-95303600D01*
D15*
X191961100Y-88553600D02*
X183341100Y-88553600D01*
X191961100Y-92553600D02*
X186601100Y-92553600D01*
X191961100Y-88553600D02*
X191961100Y-92553600D01*
X181063100Y-94443600D02*
X184691100Y-94443600D01*
X181055100Y-90731600D02*
X181055100Y-94443600D01*
X183341100Y-88552600D02*
G75*
G03*
X181055100Y-90838600I0J-2286000D01*
G01*
X186581100Y-92553600D02*
G75*
G03*
X184691100Y-94443600I0J-1890000D01*
G01*
%TO.C,S2*%
X153861100Y-69503600D02*
X145241100Y-69503600D01*
X153861100Y-69503600D02*
X153861100Y-73503600D01*
X142955100Y-71681600D02*
X142955100Y-75393600D01*
X153861100Y-73503600D02*
X148501100Y-73503600D01*
X142963100Y-75393600D02*
X146591100Y-75393600D01*
D16*
X141801100Y-71173600D02*
X141801100Y-76253600D01*
D15*
X148481100Y-73503600D02*
G75*
G03*
X146591100Y-75393600I0J-1890000D01*
G01*
X145241100Y-69502600D02*
G75*
G03*
X142955100Y-71788600I0J-2286000D01*
G01*
D17*
%TO.C,D8*%
X189691100Y-87122000D02*
X189691100Y-86360000D01*
X189691100Y-86360000D02*
X189945100Y-86360000D01*
X189691100Y-85598000D02*
X184611100Y-85598000D01*
X184611100Y-86360000D02*
X184357100Y-86360000D01*
X185246100Y-85725000D02*
X185246100Y-86995000D01*
X184611100Y-86360000D02*
X184611100Y-87122000D01*
X189691100Y-86360000D02*
X189691100Y-85598000D01*
X184611100Y-85598000D02*
X184611100Y-86360000D01*
X184611100Y-87122000D02*
X189691100Y-87122000D01*
%TO.C,D6*%
X158576100Y-91440000D02*
X157814100Y-91440000D01*
X159338100Y-96520000D02*
X159338100Y-91440000D01*
X159338100Y-91440000D02*
X158576100Y-91440000D01*
X157941100Y-95885000D02*
X159211100Y-95885000D01*
X158576100Y-91440000D02*
X158576100Y-91186000D01*
X157814100Y-91440000D02*
X157814100Y-96520000D01*
X158576100Y-96520000D02*
X158576100Y-96774000D01*
X157814100Y-96520000D02*
X158576100Y-96520000D01*
X158576100Y-96520000D02*
X159338100Y-96520000D01*
D16*
%TO.C,LED4*%
X183251100Y-79430000D02*
X191051100Y-79430000D01*
X191051100Y-83130000D02*
X183251100Y-83130000D01*
X183251100Y-81030000D02*
X183251100Y-79430000D01*
D15*
%TO.C,S4*%
X191961100Y-69503600D02*
X183341100Y-69503600D01*
D16*
X179901100Y-71173600D02*
X179901100Y-76253600D01*
D15*
X191961100Y-73503600D02*
X186601100Y-73503600D01*
X191961100Y-69503600D02*
X191961100Y-73503600D01*
X181063100Y-75393600D02*
X184691100Y-75393600D01*
X181055100Y-71681600D02*
X181055100Y-75393600D01*
X186581100Y-73503600D02*
G75*
G03*
X184691100Y-75393600I0J-1890000D01*
G01*
X183341100Y-69502600D02*
G75*
G03*
X181055100Y-71788600I0J-2286000D01*
G01*
%TO.C,S5*%
X134811100Y-88553600D02*
X126191100Y-88553600D01*
X134811100Y-88553600D02*
X134811100Y-92553600D01*
D16*
X122751100Y-90223600D02*
X122751100Y-95303600D01*
D15*
X123905100Y-90731600D02*
X123905100Y-94443600D01*
X123913100Y-94443600D02*
X127541100Y-94443600D01*
X134811100Y-92553600D02*
X129451100Y-92553600D01*
X126191100Y-88552600D02*
G75*
G03*
X123905100Y-90838600I0J-2286000D01*
G01*
X129431100Y-92553600D02*
G75*
G03*
X127541100Y-94443600I0J-1890000D01*
G01*
D17*
%TO.C,D4*%
X189691100Y-67310000D02*
X189945100Y-67310000D01*
X189691100Y-67310000D02*
X189691100Y-66548000D01*
X189691100Y-66548000D02*
X184611100Y-66548000D01*
X184611100Y-67310000D02*
X184611100Y-68072000D01*
X184611100Y-66548000D02*
X184611100Y-67310000D01*
X189691100Y-68072000D02*
X189691100Y-67310000D01*
X185246100Y-66675000D02*
X185246100Y-67945000D01*
X184611100Y-68072000D02*
X189691100Y-68072000D01*
X184611100Y-67310000D02*
X184357100Y-67310000D01*
D16*
%TO.C,LED12*%
X183251100Y-119130000D02*
X183251100Y-117530000D01*
X183251100Y-117530000D02*
X191051100Y-117530000D01*
X191051100Y-121230000D02*
X183251100Y-121230000D01*
%TO.C,LED3*%
X164201100Y-81030000D02*
X164201100Y-79430000D01*
X172001100Y-83130000D02*
X164201100Y-83130000D01*
X164201100Y-79430000D02*
X172001100Y-79430000D01*
D15*
%TO.C,S14*%
X153861100Y-126653600D02*
X153861100Y-130653600D01*
X153861100Y-126653600D02*
X145241100Y-126653600D01*
X142955100Y-128831600D02*
X142955100Y-132543600D01*
X153861100Y-130653600D02*
X148501100Y-130653600D01*
D16*
X141801100Y-128323600D02*
X141801100Y-133403600D01*
D15*
X142963100Y-132543600D02*
X146591100Y-132543600D01*
X145241100Y-126652600D02*
G75*
G03*
X142955100Y-128938600I0J-2286000D01*
G01*
X148481100Y-130653600D02*
G75*
G03*
X146591100Y-132543600I0J-1890000D01*
G01*
%TO.C,S11*%
X172911100Y-111603600D02*
X167551100Y-111603600D01*
X162005100Y-109781600D02*
X162005100Y-113493600D01*
D16*
X160851100Y-109273600D02*
X160851100Y-114353600D01*
D15*
X172911100Y-107603600D02*
X172911100Y-111603600D01*
X172911100Y-107603600D02*
X164291100Y-107603600D01*
X162013100Y-113493600D02*
X165641100Y-113493600D01*
X164291100Y-107602600D02*
G75*
G03*
X162005100Y-109888600I0J-2286000D01*
G01*
X167531100Y-111603600D02*
G75*
G03*
X165641100Y-113493600I0J-1890000D01*
G01*
D16*
%TO.C,LED16*%
X126101100Y-136580000D02*
X133901100Y-136580000D01*
X133901100Y-140280000D02*
X126101100Y-140280000D01*
X133901100Y-138680000D02*
X133901100Y-140280000D01*
D15*
%TO.C,S7*%
X162005100Y-90731600D02*
X162005100Y-94443600D01*
X172911100Y-88553600D02*
X172911100Y-92553600D01*
X172911100Y-92553600D02*
X167551100Y-92553600D01*
D16*
X160851100Y-90223600D02*
X160851100Y-95303600D01*
D15*
X172911100Y-88553600D02*
X164291100Y-88553600D01*
X162013100Y-94443600D02*
X165641100Y-94443600D01*
X167531100Y-92553600D02*
G75*
G03*
X165641100Y-94443600I0J-1890000D01*
G01*
X164291100Y-88552600D02*
G75*
G03*
X162005100Y-90838600I0J-2286000D01*
G01*
%TO.C,S6*%
X153861100Y-88553600D02*
X153861100Y-92553600D01*
X153861100Y-92553600D02*
X148501100Y-92553600D01*
D16*
X141801100Y-90223600D02*
X141801100Y-95303600D01*
D15*
X153861100Y-88553600D02*
X145241100Y-88553600D01*
X142955100Y-90731600D02*
X142955100Y-94443600D01*
X142963100Y-94443600D02*
X146591100Y-94443600D01*
X148481100Y-92553600D02*
G75*
G03*
X146591100Y-94443600I0J-1890000D01*
G01*
X145241100Y-88552600D02*
G75*
G03*
X142955100Y-90838600I0J-2286000D01*
G01*
D17*
%TO.C,D9*%
X139526100Y-115570000D02*
X139526100Y-115824000D01*
X139526100Y-115570000D02*
X140288100Y-115570000D01*
X138764100Y-115570000D02*
X139526100Y-115570000D01*
X139526100Y-110490000D02*
X139526100Y-110236000D01*
X140288100Y-115570000D02*
X140288100Y-110490000D01*
X140288100Y-110490000D02*
X139526100Y-110490000D01*
X138891100Y-114935000D02*
X140161100Y-114935000D01*
X138764100Y-110490000D02*
X138764100Y-115570000D01*
X139526100Y-110490000D02*
X138764100Y-110490000D01*
%TO.C,D11*%
X178388100Y-115570000D02*
X178388100Y-110490000D01*
X177626100Y-115570000D02*
X177626100Y-115824000D01*
X177626100Y-110490000D02*
X177626100Y-110236000D01*
X177626100Y-115570000D02*
X178388100Y-115570000D01*
X178388100Y-110490000D02*
X177626100Y-110490000D01*
X176864100Y-110490000D02*
X176864100Y-115570000D01*
X176991100Y-114935000D02*
X178261100Y-114935000D01*
X177626100Y-110490000D02*
X176864100Y-110490000D01*
X176864100Y-115570000D02*
X177626100Y-115570000D01*
D16*
%TO.C,LED10*%
X145151100Y-117530000D02*
X152951100Y-117530000D01*
X152951100Y-121230000D02*
X145151100Y-121230000D01*
X145151100Y-119130000D02*
X145151100Y-117530000D01*
D17*
%TO.C,D13*%
X138764100Y-129540000D02*
X138764100Y-134620000D01*
X139526100Y-129540000D02*
X139526100Y-129286000D01*
X140288100Y-129540000D02*
X139526100Y-129540000D01*
X139526100Y-134620000D02*
X140288100Y-134620000D01*
X138764100Y-134620000D02*
X139526100Y-134620000D01*
X140288100Y-134620000D02*
X140288100Y-129540000D01*
X139526100Y-129540000D02*
X138764100Y-129540000D01*
X139526100Y-134620000D02*
X139526100Y-134874000D01*
X138891100Y-133985000D02*
X140161100Y-133985000D01*
D16*
%TO.C,LED2*%
X145151100Y-81030000D02*
X145151100Y-79430000D01*
X145151100Y-79430000D02*
X152951100Y-79430000D01*
X152951100Y-83130000D02*
X145151100Y-83130000D01*
D15*
%TO.C,S12*%
X181063100Y-113493600D02*
X184691100Y-113493600D01*
X191961100Y-107603600D02*
X191961100Y-111603600D01*
X191961100Y-111603600D02*
X186601100Y-111603600D01*
X191961100Y-107603600D02*
X183341100Y-107603600D01*
D16*
X179901100Y-109273600D02*
X179901100Y-114353600D01*
D15*
X181055100Y-109781600D02*
X181055100Y-113493600D01*
X186581100Y-111603600D02*
G75*
G03*
X184691100Y-113493600I0J-1890000D01*
G01*
X183341100Y-107602600D02*
G75*
G03*
X181055100Y-109888600I0J-2286000D01*
G01*
D17*
%TO.C,D20*%
X119380000Y-129540000D02*
X118618000Y-129540000D01*
X118618000Y-134620000D02*
X119380000Y-134620000D01*
X119380000Y-134620000D02*
X120142000Y-134620000D01*
X118745000Y-133985000D02*
X120015000Y-133985000D01*
X118618000Y-129540000D02*
X118618000Y-134620000D01*
X119380000Y-134620000D02*
X119380000Y-134874000D01*
X120142000Y-129540000D02*
X119380000Y-129540000D01*
X120142000Y-134620000D02*
X120142000Y-129540000D01*
X119380000Y-129540000D02*
X119380000Y-129286000D01*
D16*
%TO.C,LED13*%
X191051100Y-140280000D02*
X183251100Y-140280000D01*
X191051100Y-138680000D02*
X191051100Y-140280000D01*
X183251100Y-136580000D02*
X191051100Y-136580000D01*
D17*
%TO.C,D7*%
X176991100Y-95885000D02*
X178261100Y-95885000D01*
X177626100Y-96520000D02*
X177626100Y-96774000D01*
X177626100Y-91440000D02*
X176864100Y-91440000D01*
X178388100Y-96520000D02*
X178388100Y-91440000D01*
X176864100Y-91440000D02*
X176864100Y-96520000D01*
X178388100Y-91440000D02*
X177626100Y-91440000D01*
X177626100Y-96520000D02*
X178388100Y-96520000D01*
X176864100Y-96520000D02*
X177626100Y-96520000D01*
X177626100Y-91440000D02*
X177626100Y-91186000D01*
D16*
%TO.C,LED5*%
X183251100Y-98480000D02*
X191051100Y-98480000D01*
X191051100Y-102180000D02*
X183251100Y-102180000D01*
X191051100Y-100580000D02*
X191051100Y-102180000D01*
D15*
%TO.C,S3*%
X162005100Y-71681600D02*
X162005100Y-75393600D01*
X172911100Y-73503600D02*
X167551100Y-73503600D01*
X172911100Y-69503600D02*
X164291100Y-69503600D01*
X162013100Y-75393600D02*
X165641100Y-75393600D01*
X172911100Y-69503600D02*
X172911100Y-73503600D01*
D16*
X160851100Y-71173600D02*
X160851100Y-76253600D01*
D15*
X164291100Y-69502600D02*
G75*
G03*
X162005100Y-71788600I0J-2286000D01*
G01*
X167531100Y-73503600D02*
G75*
G03*
X165641100Y-75393600I0J-1890000D01*
G01*
D17*
%TO.C,D5*%
X140288100Y-96520000D02*
X140288100Y-91440000D01*
X139526100Y-91440000D02*
X139526100Y-91186000D01*
X140288100Y-91440000D02*
X139526100Y-91440000D01*
X139526100Y-91440000D02*
X138764100Y-91440000D01*
X139526100Y-96520000D02*
X139526100Y-96774000D01*
X138891100Y-95885000D02*
X140161100Y-95885000D01*
X138764100Y-96520000D02*
X139526100Y-96520000D01*
X139526100Y-96520000D02*
X140288100Y-96520000D01*
X138764100Y-91440000D02*
X138764100Y-96520000D01*
%TO.C,D16*%
X185246100Y-123825000D02*
X185246100Y-125095000D01*
X189691100Y-124460000D02*
X189691100Y-123698000D01*
X184611100Y-125222000D02*
X189691100Y-125222000D01*
X189691100Y-125222000D02*
X189691100Y-124460000D01*
X184611100Y-124460000D02*
X184357100Y-124460000D01*
X184611100Y-124460000D02*
X184611100Y-125222000D01*
X189691100Y-123698000D02*
X184611100Y-123698000D01*
X184611100Y-123698000D02*
X184611100Y-124460000D01*
X189691100Y-124460000D02*
X189945100Y-124460000D01*
%TO.C,D14*%
X158576100Y-134620000D02*
X158576100Y-134874000D01*
X157941100Y-133985000D02*
X159211100Y-133985000D01*
X158576100Y-134620000D02*
X159338100Y-134620000D01*
X159338100Y-134620000D02*
X159338100Y-129540000D01*
X158576100Y-129540000D02*
X157814100Y-129540000D01*
X158576100Y-129540000D02*
X158576100Y-129286000D01*
X159338100Y-129540000D02*
X158576100Y-129540000D01*
X157814100Y-134620000D02*
X158576100Y-134620000D01*
X157814100Y-129540000D02*
X157814100Y-134620000D01*
%TO.C,D3*%
X176864100Y-77470000D02*
X177626100Y-77470000D01*
X177626100Y-77470000D02*
X178388100Y-77470000D01*
X176991100Y-76835000D02*
X178261100Y-76835000D01*
X176864100Y-72390000D02*
X176864100Y-77470000D01*
X177626100Y-72390000D02*
X176864100Y-72390000D01*
X177626100Y-77470000D02*
X177626100Y-77724000D01*
X178388100Y-77470000D02*
X178388100Y-72390000D01*
X178388100Y-72390000D02*
X177626100Y-72390000D01*
X177626100Y-72390000D02*
X177626100Y-72136000D01*
%TO.C,D15*%
X177626100Y-134620000D02*
X177626100Y-134874000D01*
X176864100Y-134620000D02*
X177626100Y-134620000D01*
X178388100Y-129540000D02*
X177626100Y-129540000D01*
X177626100Y-129540000D02*
X176864100Y-129540000D01*
X176991100Y-133985000D02*
X178261100Y-133985000D01*
X177626100Y-129540000D02*
X177626100Y-129286000D01*
X177626100Y-134620000D02*
X178388100Y-134620000D01*
X176864100Y-129540000D02*
X176864100Y-134620000D01*
X178388100Y-134620000D02*
X178388100Y-129540000D01*
D16*
%TO.C,LED6*%
X172001100Y-100580000D02*
X172001100Y-102180000D01*
X172001100Y-102180000D02*
X164201100Y-102180000D01*
X164201100Y-98480000D02*
X172001100Y-98480000D01*
%TO.C,LED1*%
X126101100Y-79430000D02*
X133901100Y-79430000D01*
X126101100Y-81030000D02*
X126101100Y-79430000D01*
X133901100Y-83130000D02*
X126101100Y-83130000D01*
%TO.C,S13*%
X122751100Y-128327200D02*
X122751100Y-133407200D01*
D15*
X123913100Y-132547200D02*
X127541100Y-132547200D01*
X134811100Y-126657200D02*
X126191100Y-126657200D01*
X123905100Y-128835200D02*
X123905100Y-132547200D01*
X134811100Y-126657200D02*
X134811100Y-130657200D01*
X134811100Y-130657200D02*
X129451100Y-130657200D01*
X126191100Y-126656200D02*
G75*
G03*
X123905100Y-128942200I0J-2286000D01*
G01*
X129431100Y-130657200D02*
G75*
G03*
X127541100Y-132547200I0J-1890000D01*
G01*
D16*
%TO.C,LED9*%
X133901100Y-121230000D02*
X126101100Y-121230000D01*
X126101100Y-117530000D02*
X133901100Y-117530000D01*
X126101100Y-119130000D02*
X126101100Y-117530000D01*
D15*
%TO.C,S9*%
X134811100Y-107603600D02*
X126191100Y-107603600D01*
X123905100Y-109781600D02*
X123905100Y-113493600D01*
X134811100Y-111603600D02*
X129451100Y-111603600D01*
D16*
X122751100Y-109273600D02*
X122751100Y-114353600D01*
D15*
X134811100Y-107603600D02*
X134811100Y-111603600D01*
X123913100Y-113493600D02*
X127541100Y-113493600D01*
X129431100Y-111603600D02*
G75*
G03*
X127541100Y-113493600I0J-1890000D01*
G01*
X126191100Y-107602600D02*
G75*
G03*
X123905100Y-109888600I0J-2286000D01*
G01*
D16*
%TO.C,LED11*%
X164201100Y-119130000D02*
X164201100Y-117530000D01*
X172001100Y-121230000D02*
X164201100Y-121230000D01*
X164201100Y-117530000D02*
X172001100Y-117530000D01*
D17*
%TO.C,D1*%
X140288100Y-72390000D02*
X139526100Y-72390000D01*
X139526100Y-72390000D02*
X138764100Y-72390000D01*
X138764100Y-72390000D02*
X138764100Y-77470000D01*
X140288100Y-77470000D02*
X140288100Y-72390000D01*
X138764100Y-77470000D02*
X139526100Y-77470000D01*
X139526100Y-72390000D02*
X139526100Y-72136000D01*
X138891100Y-76835000D02*
X140161100Y-76835000D01*
X139526100Y-77470000D02*
X139526100Y-77724000D01*
X139526100Y-77470000D02*
X140288100Y-77470000D01*
D15*
%TO.C,S16*%
X191961100Y-126657200D02*
X191961100Y-130657200D01*
X191961100Y-130657200D02*
X186601100Y-130657200D01*
D16*
X179901100Y-128327200D02*
X179901100Y-133407200D01*
D15*
X181055100Y-128835200D02*
X181055100Y-132547200D01*
X181063100Y-132547200D02*
X184691100Y-132547200D01*
X191961100Y-126657200D02*
X183341100Y-126657200D01*
X186581100Y-130657200D02*
G75*
G03*
X184691100Y-132547200I0J-1890000D01*
G01*
X183341100Y-126656200D02*
G75*
G03*
X181055100Y-128942200I0J-2286000D01*
G01*
D16*
%TO.C,LED15*%
X152951100Y-140280000D02*
X145151100Y-140280000D01*
X145151100Y-136580000D02*
X152951100Y-136580000D01*
X152951100Y-138680000D02*
X152951100Y-140280000D01*
D17*
%TO.C,D12*%
X185246100Y-104775000D02*
X185246100Y-106045000D01*
X189691100Y-106172000D02*
X189691100Y-105410000D01*
X189691100Y-104648000D02*
X184611100Y-104648000D01*
X184611100Y-104648000D02*
X184611100Y-105410000D01*
X184611100Y-105410000D02*
X184357100Y-105410000D01*
X184611100Y-105410000D02*
X184611100Y-106172000D01*
X189691100Y-105410000D02*
X189691100Y-104648000D01*
X189691100Y-105410000D02*
X189945100Y-105410000D01*
X184611100Y-106172000D02*
X189691100Y-106172000D01*
D16*
%TO.C,LED8*%
X133901100Y-102180000D02*
X126101100Y-102180000D01*
X133901100Y-100580000D02*
X133901100Y-102180000D01*
X126101100Y-98480000D02*
X133901100Y-98480000D01*
D17*
%TO.C,D2*%
X158576100Y-77470000D02*
X158576100Y-77724000D01*
X159338100Y-72390000D02*
X158576100Y-72390000D01*
X159338100Y-77470000D02*
X159338100Y-72390000D01*
X158576100Y-72390000D02*
X158576100Y-72136000D01*
X157814100Y-72390000D02*
X157814100Y-77470000D01*
X158576100Y-72390000D02*
X157814100Y-72390000D01*
X157814100Y-77470000D02*
X158576100Y-77470000D01*
X158576100Y-77470000D02*
X159338100Y-77470000D01*
X157941100Y-76835000D02*
X159211100Y-76835000D01*
D16*
%TO.C,LED14*%
X172001100Y-140280000D02*
X164201100Y-140280000D01*
X172001100Y-138680000D02*
X172001100Y-140280000D01*
X164201100Y-136580000D02*
X172001100Y-136580000D01*
D15*
%TO.C,S10*%
X153861100Y-107603600D02*
X153861100Y-111603600D01*
X142955100Y-109781600D02*
X142955100Y-113493600D01*
X153861100Y-111603600D02*
X148501100Y-111603600D01*
X153861100Y-107603600D02*
X145241100Y-107603600D01*
D16*
X141801100Y-109273600D02*
X141801100Y-114353600D01*
D15*
X142963100Y-113493600D02*
X146591100Y-113493600D01*
X148481100Y-111603600D02*
G75*
G03*
X146591100Y-113493600I0J-1890000D01*
G01*
X145241100Y-107602600D02*
G75*
G03*
X142955100Y-109888600I0J-2286000D01*
G01*
%TD*%
%LPC*%
D18*
%TO.C,J1*%
X113940000Y-105080000D03*
D19*
X111400000Y-105080000D03*
X108860000Y-105080000D03*
X106320000Y-105080000D03*
%TD*%
D20*
%TO.C,S17*%
X106799900Y-118743000D03*
X113302300Y-118743000D03*
X106799900Y-123264200D03*
X113302300Y-123264200D03*
%TD*%
D21*
%TO.C,REF\u002A\u002A*%
X138576100Y-124828600D03*
%TD*%
%TO.C,REF\u002A\u002A*%
X178576100Y-124828600D03*
%TD*%
D20*
%TO.C,B1*%
X102431100Y-72053600D03*
X102431100Y-74593600D03*
X102431100Y-77133600D03*
X102431100Y-79673600D03*
X102431100Y-82213600D03*
X102431100Y-84753600D03*
X102431100Y-87293600D03*
X102431100Y-89833600D03*
X102431100Y-92373600D03*
X102431100Y-94913600D03*
X102431100Y-97453600D03*
X102431100Y-99993600D03*
X117671100Y-99993600D03*
X117671100Y-97453600D03*
X117671100Y-94913600D03*
X117671100Y-92373600D03*
X117671100Y-89833600D03*
X117671100Y-87293600D03*
X117671100Y-84753600D03*
X117671100Y-82213600D03*
X117671100Y-79673600D03*
X117671100Y-77133600D03*
X117671100Y-74593600D03*
X117671100Y-72053600D03*
%TD*%
D22*
%TO.C,RE_3_1*%
X106720000Y-140600000D03*
D23*
X111720000Y-140600000D03*
X109220000Y-140600000D03*
D24*
X103620000Y-133100000D03*
X114820000Y-133100000D03*
D23*
X111720000Y-126100000D03*
X106720000Y-126100000D03*
%TD*%
D21*
%TO.C,REF\u002A\u002A*%
X138576100Y-84828600D03*
%TD*%
%TO.C,REF\u002A\u002A*%
X178576100Y-84828600D03*
%TD*%
D25*
%TO.C,S1*%
X130001100Y-76253600D03*
D26*
X124921100Y-76253600D03*
X135081100Y-76253600D03*
D27*
X132541100Y-71173600D03*
X126191100Y-73713600D03*
D28*
X135001100Y-71173600D03*
X123801100Y-73713600D03*
%TD*%
D29*
%TO.C,D10*%
X158750000Y-109220000D03*
X158750000Y-116840000D03*
%TD*%
D30*
%TO.C,LED7*%
X146301100Y-99630000D03*
X146301100Y-101030000D03*
X151801100Y-101030000D03*
X151801100Y-99630000D03*
%TD*%
D25*
%TO.C,S15*%
X168101100Y-133403600D03*
D26*
X163021100Y-133403600D03*
X173181100Y-133403600D03*
D27*
X170641100Y-128323600D03*
X164291100Y-130863600D03*
D28*
X173101100Y-128323600D03*
X161901100Y-130863600D03*
%TD*%
D26*
%TO.C,S8*%
X192231100Y-95303600D03*
X182071100Y-95303600D03*
D25*
X187151100Y-95303600D03*
D27*
X189691100Y-90223600D03*
X183341100Y-92763600D03*
D28*
X192151100Y-90223600D03*
X180951100Y-92763600D03*
%TD*%
D25*
%TO.C,S2*%
X149051100Y-76253600D03*
D26*
X154131100Y-76253600D03*
X143971100Y-76253600D03*
D27*
X151591100Y-71173600D03*
X145241100Y-73713600D03*
D28*
X154051100Y-71173600D03*
X142851100Y-73713600D03*
%TD*%
D29*
%TO.C,D8*%
X190961100Y-86360000D03*
X183341100Y-86360000D03*
%TD*%
%TO.C,D6*%
X158576100Y-90170000D03*
X158576100Y-97790000D03*
%TD*%
D30*
%TO.C,LED4*%
X189901100Y-81980000D03*
X189901100Y-80580000D03*
X184401100Y-80580000D03*
X184401100Y-81980000D03*
%TD*%
D26*
%TO.C,S4*%
X182071100Y-76253600D03*
X192231100Y-76253600D03*
D25*
X187151100Y-76253600D03*
D27*
X189691100Y-71173600D03*
X183341100Y-73713600D03*
D28*
X192151100Y-71173600D03*
X180951100Y-73713600D03*
%TD*%
D26*
%TO.C,S5*%
X135081100Y-95303600D03*
D25*
X130001100Y-95303600D03*
D26*
X124921100Y-95303600D03*
D27*
X132541100Y-90223600D03*
X126191100Y-92763600D03*
D28*
X135001100Y-90223600D03*
X123801100Y-92763600D03*
%TD*%
D29*
%TO.C,D4*%
X190961100Y-67310000D03*
X183341100Y-67310000D03*
%TD*%
D30*
%TO.C,LED12*%
X189901100Y-120080000D03*
X189901100Y-118680000D03*
X184401100Y-118680000D03*
X184401100Y-120080000D03*
%TD*%
%TO.C,LED3*%
X170851100Y-81980000D03*
X170851100Y-80580000D03*
X165351100Y-80580000D03*
X165351100Y-81980000D03*
%TD*%
D26*
%TO.C,S14*%
X143971100Y-133403600D03*
X154131100Y-133403600D03*
D25*
X149051100Y-133403600D03*
D27*
X151591100Y-128323600D03*
X145241100Y-130863600D03*
D28*
X154051100Y-128323600D03*
X142851100Y-130863600D03*
%TD*%
D25*
%TO.C,S11*%
X168101100Y-114353600D03*
D26*
X163021100Y-114353600D03*
X173181100Y-114353600D03*
D27*
X170641100Y-109273600D03*
X164291100Y-111813600D03*
D28*
X173101100Y-109273600D03*
X161901100Y-111813600D03*
%TD*%
D30*
%TO.C,LED16*%
X127251100Y-137730000D03*
X127251100Y-139130000D03*
X132751100Y-139130000D03*
X132751100Y-137730000D03*
%TD*%
D25*
%TO.C,S7*%
X168101100Y-95303600D03*
D26*
X163021100Y-95303600D03*
X173181100Y-95303600D03*
D27*
X170641100Y-90223600D03*
X164291100Y-92763600D03*
D28*
X173101100Y-90223600D03*
X161901100Y-92763600D03*
%TD*%
D26*
%TO.C,S6*%
X154131100Y-95303600D03*
D25*
X149051100Y-95303600D03*
D26*
X143971100Y-95303600D03*
D27*
X151591100Y-90223600D03*
X145241100Y-92763600D03*
D28*
X154051100Y-90223600D03*
X142851100Y-92763600D03*
%TD*%
D29*
%TO.C,D9*%
X139526100Y-109220000D03*
X139526100Y-116840000D03*
%TD*%
%TO.C,D11*%
X177626100Y-109220000D03*
X177626100Y-116840000D03*
%TD*%
D30*
%TO.C,LED10*%
X151801100Y-120080000D03*
X151801100Y-118680000D03*
X146301100Y-118680000D03*
X146301100Y-120080000D03*
%TD*%
D29*
%TO.C,D13*%
X139526100Y-128270000D03*
X139526100Y-135890000D03*
%TD*%
D30*
%TO.C,LED2*%
X151801100Y-81980000D03*
X151801100Y-80580000D03*
X146301100Y-80580000D03*
X146301100Y-81980000D03*
%TD*%
D26*
%TO.C,S12*%
X182071100Y-114353600D03*
D25*
X187151100Y-114353600D03*
D26*
X192231100Y-114353600D03*
D27*
X189691100Y-109273600D03*
X183341100Y-111813600D03*
D28*
X192151100Y-109273600D03*
X180951100Y-111813600D03*
%TD*%
D29*
%TO.C,D20*%
X119380000Y-128270000D03*
X119380000Y-135890000D03*
%TD*%
D30*
%TO.C,LED13*%
X184401100Y-137730000D03*
X184401100Y-139130000D03*
X189901100Y-139130000D03*
X189901100Y-137730000D03*
%TD*%
D29*
%TO.C,D7*%
X177626100Y-90170000D03*
X177626100Y-97790000D03*
%TD*%
D30*
%TO.C,LED5*%
X184401100Y-99630000D03*
X184401100Y-101030000D03*
X189901100Y-101030000D03*
X189901100Y-99630000D03*
%TD*%
D25*
%TO.C,S3*%
X168101100Y-76253600D03*
D26*
X173181100Y-76253600D03*
X163021100Y-76253600D03*
D27*
X170641100Y-71173600D03*
X164291100Y-73713600D03*
D28*
X173101100Y-71173600D03*
X161901100Y-73713600D03*
%TD*%
D29*
%TO.C,D5*%
X139526100Y-90170000D03*
X139526100Y-97790000D03*
%TD*%
%TO.C,D16*%
X190961100Y-124460000D03*
X183341100Y-124460000D03*
%TD*%
%TO.C,D14*%
X158576100Y-128270000D03*
X158576100Y-135890000D03*
%TD*%
%TO.C,D3*%
X177626100Y-71120000D03*
X177626100Y-78740000D03*
%TD*%
%TO.C,D15*%
X177626100Y-128270000D03*
X177626100Y-135890000D03*
%TD*%
D30*
%TO.C,LED6*%
X165351100Y-99630000D03*
X165351100Y-101030000D03*
X170851100Y-101030000D03*
X170851100Y-99630000D03*
%TD*%
%TO.C,LED1*%
X132751100Y-81980000D03*
X132751100Y-80580000D03*
X127251100Y-80580000D03*
X127251100Y-81980000D03*
%TD*%
D25*
%TO.C,S13*%
X130001100Y-133407200D03*
D26*
X124921100Y-133407200D03*
X135081100Y-133407200D03*
D27*
X132541100Y-128327200D03*
X126191100Y-130867200D03*
D28*
X135001100Y-128327200D03*
X123801100Y-130867200D03*
%TD*%
D30*
%TO.C,LED9*%
X132751100Y-120080000D03*
X132751100Y-118680000D03*
X127251100Y-118680000D03*
X127251100Y-120080000D03*
%TD*%
D26*
%TO.C,S9*%
X124921100Y-114353600D03*
X135081100Y-114353600D03*
D25*
X130001100Y-114353600D03*
D27*
X132541100Y-109273600D03*
X126191100Y-111813600D03*
D28*
X135001100Y-109273600D03*
X123801100Y-111813600D03*
%TD*%
D30*
%TO.C,LED11*%
X170851100Y-120080000D03*
X170851100Y-118680000D03*
X165351100Y-118680000D03*
X165351100Y-120080000D03*
%TD*%
D29*
%TO.C,D1*%
X139526100Y-71120000D03*
X139526100Y-78740000D03*
%TD*%
D26*
%TO.C,S16*%
X182071100Y-133407200D03*
X192231100Y-133407200D03*
D25*
X187151100Y-133407200D03*
D27*
X189691100Y-128327200D03*
X183341100Y-130867200D03*
D28*
X192151100Y-128327200D03*
X180951100Y-130867200D03*
%TD*%
D30*
%TO.C,LED15*%
X146301100Y-137730000D03*
X146301100Y-139130000D03*
X151801100Y-139130000D03*
X151801100Y-137730000D03*
%TD*%
D29*
%TO.C,D12*%
X190961100Y-105410000D03*
X183341100Y-105410000D03*
%TD*%
D30*
%TO.C,LED8*%
X127251100Y-99630000D03*
X127251100Y-101030000D03*
X132751100Y-101030000D03*
X132751100Y-99630000D03*
%TD*%
D29*
%TO.C,D2*%
X158576100Y-71120000D03*
X158576100Y-78740000D03*
%TD*%
D30*
%TO.C,LED14*%
X165351100Y-137730000D03*
X165351100Y-139130000D03*
X170851100Y-139130000D03*
X170851100Y-137730000D03*
%TD*%
D25*
%TO.C,S10*%
X149051100Y-114353600D03*
D26*
X143971100Y-114353600D03*
X154131100Y-114353600D03*
D27*
X151591100Y-109273600D03*
X145241100Y-111813600D03*
D28*
X154051100Y-109273600D03*
X142851100Y-111813600D03*
%TD*%
M02*
